<svg width="16" height="16" viewBox="0 0 16 16" fill="none" xmlns="http://www.w3.org/2000/svg">
<path fill-rule="evenodd" clip-rule="evenodd" d="M3.5 3.99918L3.5 3.49927L3.99951 3.49927C3.99984 3.49927 4.00016 3.49927 4.00049 3.49927L12 3.49927C12.2761 3.49927 12.5 3.72313 12.5 3.99927C12.5 4.27541 12.2761 4.49927 12 4.49927L5.20711 4.49927L12.3536 11.6457C12.5488 11.841 12.5488 12.1576 12.3536 12.3528C12.1583 12.5481 11.8417 12.5481 11.6464 12.3528L4.5 5.20637L4.5 11.9993C4.5 12.2754 4.27614 12.4993 4 12.4993C3.72386 12.4993 3.5 12.2754 3.5 11.9993L3.5 3.99935C3.5 3.9993 3.5 3.99924 3.5 3.99918Z" fill="#434343"/>
</svg>
