<svg width="16" height="16" viewBox="0 0 16 16" fill="none" xmlns="http://www.w3.org/2000/svg">
<path fill-rule="evenodd" clip-rule="evenodd" d="M9.0606 2.24996C9.25586 2.44522 9.25586 2.76181 9.0606 2.95707L4.41415 7.60352L9.0606 12.25C9.25586 12.4452 9.25586 12.7618 9.0606 12.9571C8.86534 13.1523 8.54875 13.1523 8.35349 12.9571L2.99994 7.60352L8.35349 2.24996C8.54875 2.0547 8.86534 2.0547 9.0606 2.24996Z" fill="#434F64"/>
<path fill-rule="evenodd" clip-rule="evenodd" d="M13.1641 2.14645C13.3594 2.34171 13.3594 2.65829 13.1641 2.85355L8.51767 7.5L13.1641 12.1464C13.3594 12.3417 13.3594 12.6583 13.1641 12.8536C12.9689 13.0488 12.6523 13.0488 12.457 12.8536L7.10345 7.5L12.457 2.14645C12.6523 1.95118 12.9689 1.95118 13.1641 2.14645Z" fill="#434F64"/>
</svg>
