<svg width="16" height="16" viewBox="0 0 16 16" fill="none" xmlns="http://www.w3.org/2000/svg">
<path d="M14.3475 1.177C14.7696 1.01971 15.2654 0.904229 15.6914 1.11329C15.9443 1.27655 15.9841 1.61104 15.9961 1.8858C16.0359 2.51496 15.7671 3.10629 15.4764 3.64586C14.9183 4.5887 14.2723 5.47666 13.5471 6.2979C12.5635 7.47658 11.578 8.65327 10.5606 9.79612C10.3615 10.0211 10.1624 10.2222 9.97921 10.4611C10.3376 10.8454 10.696 11.2316 11.0364 11.6318C9.84183 11.6318 8.64721 11.6318 7.4526 11.6318C7.42075 10.412 7.4015 9.19151 7.39486 7.97035C7.90058 8.31679 8.2968 8.80857 8.80451 9.13908C9.59373 8.54731 10.352 7.91532 11.0763 7.24562C11.7671 6.60651 12.47 5.97336 13.1011 5.2785C13.8058 4.57899 14.4302 3.803 14.9627 2.96493C15.146 2.68567 15.2518 2.36273 15.2693 2.02915C15.2717 1.9319 15.2367 1.83745 15.1715 1.76523C15.1063 1.69301 15.0159 1.64852 14.9189 1.64091C14.4887 1.64673 14.0625 1.7255 13.6586 1.87385C12.91 2.13012 12.1926 2.47009 11.5203 2.88728C11.6081 2.78272 11.7107 2.69151 11.8249 2.6165C12.6014 2.03179 13.4491 1.54808 14.3475 1.177Z" fill="#0161B0"/>
<path d="M5.16292 2.65632C5.84254 2.28774 6.58926 2.05939 7.35878 1.98483C8.12831 1.91028 8.90498 1.99102 9.64271 2.22228C11.0786 2.674 12.2847 3.66256 13.0095 4.98183C13.0533 5.0774 13.129 5.18093 13.1011 5.28845C12.466 5.98331 11.7671 6.61646 11.0762 7.25557C10.3487 7.92554 9.58716 8.55754 8.79454 9.14903C8.28683 8.81852 7.89062 8.32674 7.3849 7.98031C7.3849 9.20146 7.40415 10.422 7.44264 11.6418C8.63725 11.6418 9.83186 11.6418 11.0265 11.6418C10.686 11.2436 10.3276 10.8553 9.96924 10.4711C10.1425 10.2321 10.3674 10.0311 10.5506 9.80607C11.574 8.66322 12.5596 7.48653 13.5371 6.30785C13.7456 7.17377 13.7626 8.07477 13.5869 8.94794C13.2778 10.414 12.4139 11.7039 11.1758 12.5477C10.1579 13.243 8.94317 13.5921 7.71143 13.5432C6.63628 13.5432 5.60294 13.145 4.69105 12.5915L4.67313 12.5756C4.64851 12.5496 4.62188 12.5257 4.59349 12.5039C3.85785 11.9792 3.24619 11.2995 2.80157 10.5129C4.00056 9.18312 5.29124 7.939 6.66415 6.78968C6.83372 6.64355 7.01409 6.51043 7.20372 6.39147C7.28734 6.39147 7.3411 6.4731 7.40282 6.52089C7.74328 6.86135 8.08175 7.2058 8.42222 7.54427C8.48394 6.41935 8.44014 5.29243 8.44611 4.15954L8.37842 4.07393C7.44662 4.04406 6.51283 4.07393 5.59099 4.06198C5.38977 4.03935 5.18603 4.06041 4.99369 4.1237C5.40583 4.48408 5.79009 4.88427 6.16241 5.28447C4.89214 6.61181 3.66966 7.98429 2.49496 9.40189L2.41133 9.42379C2.33363 9.29748 2.2828 9.1565 2.26201 9.00966C1.99494 7.77363 2.13462 6.48439 2.66021 5.33424C3.17974 4.19233 4.05872 3.25182 5.16292 2.65632Z" fill="#BCBDC1"/>
<path d="M4.98573 4.12967C5.17808 4.06638 5.38182 4.04533 5.58304 4.06795C6.51484 4.08189 7.44862 4.05003 8.37047 4.0799L8.43816 4.16551C8.43816 5.29243 8.47599 6.41935 8.41427 7.55024C8.0738 7.21177 7.73533 6.86732 7.39487 6.52686C7.33314 6.47908 7.27939 6.39744 7.19576 6.39744C7.00614 6.51641 6.82577 6.64952 6.6562 6.79565C5.28329 7.94498 3.99261 9.18909 2.79362 10.5189C2.15451 11.2615 1.50743 12.0201 1.08135 12.9081C0.967859 13.1808 0.828488 13.5193 0.999716 13.7941C1.21475 14.0529 1.59702 14.0131 1.89567 13.9494C2.49298 13.7921 3.01662 13.4616 3.55021 13.1669C3.91295 12.9758 4.25866 12.754 4.58355 12.5039C4.61194 12.5257 4.63857 12.5496 4.66319 12.5756C4.36374 12.7537 4.0776 12.9533 3.80705 13.1729C3.12835 13.6814 2.3935 14.1103 1.61693 14.4511C1.25457 14.5925 0.834461 14.694 0.46214 14.5268C0.328565 14.4523 0.216439 14.3446 0.136576 14.2142C0.0567135 14.0838 0.0118103 13.935 0.00619735 13.7821C-0.0415871 13.2525 0.195344 12.7587 0.428293 12.3008C0.961681 11.3506 1.58508 10.4539 2.2899 9.62289C2.34014 9.56652 2.37449 9.49781 2.38945 9.42379L2.47307 9.40189C3.65573 7.99092 4.88419 6.62044 6.15844 5.29044C5.78214 4.89223 5.40186 4.49403 4.98972 4.12967H4.98573Z" fill="#DB1920"/>
</svg>
