<svg width="14" height="13" viewBox="0 0 14 13" fill="none" xmlns="http://www.w3.org/2000/svg">
<path d="M0.500002 6.50068C0.499718 6.61545 0.532354 6.72789 0.59404 6.82468C0.655725 6.92146 0.743873 6.99852 0.848029 7.04672L6.00843 9.39291C6.16396 9.46334 6.33273 9.49977 6.50347 9.49977C6.67421 9.49977 6.84298 9.46334 6.99851 9.39291L12.1469 7.05272C12.2531 7.00498 12.3431 6.92737 12.406 6.82935C12.4689 6.73132 12.5019 6.61713 12.5009 6.50068M0.500002 9.50092C0.499718 9.61568 0.532354 9.72813 0.59404 9.82491C0.655725 9.92169 0.743873 9.99875 0.848029 10.047L6.00843 12.3931C6.16396 12.4636 6.33273 12.5 6.50347 12.5C6.67421 12.5 6.84298 12.4636 6.99851 12.3931L12.1469 10.053C12.2531 10.0052 12.3431 9.9276 12.406 9.82958C12.4689 9.73156 12.5019 9.61736 12.5009 9.50092M6.99851 0.608223C6.84216 0.536906 6.67232 0.5 6.50047 0.5C6.32862 0.5 6.15878 0.536906 6.00243 0.608223L0.86003 2.94841C0.753551 2.99536 0.663022 3.07225 0.599467 3.16974C0.535912 3.26722 0.502074 3.38108 0.502074 3.49745C0.502074 3.61382 0.535912 3.72768 0.599467 3.82516C0.663022 3.92264 0.753551 3.99954 0.86003 4.04649L6.00843 6.39267C6.16478 6.46399 6.33462 6.5009 6.50647 6.5009C6.67832 6.5009 6.84816 6.46399 7.00451 6.39267L12.1529 4.05249C12.2594 4.00554 12.3499 3.92864 12.4135 3.83116C12.477 3.73368 12.5109 3.61982 12.5109 3.50345C12.5109 3.38708 12.477 3.27322 12.4135 3.17574C12.3499 3.07825 12.2594 3.00136 12.1529 2.95441L6.99851 0.608223Z" stroke="#434F64" stroke-linecap="round" stroke-linejoin="round"/>
</svg>
