<svg width="24" height="24" viewBox="0 0 24 24" fill="none" xmlns="http://www.w3.org/2000/svg">
<path opacity="0.4" fill-rule="evenodd" clip-rule="evenodd" d="M21.3808 10.5C21.2639 9.76871 21.0616 9.05189 20.7769 8.36451C20.2994 7.21191 19.5997 6.16464 18.7175 5.28249C17.8354 4.40033 16.7881 3.70056 15.6355 3.22314C14.9481 2.93842 14.2313 2.7361 13.5 2.61917L13.5 7.89368C13.5581 7.9149 13.6158 7.93736 13.673 7.96107C14.2034 8.18076 14.6853 8.50278 15.0913 8.90873C15.4972 9.31469 15.8192 9.79662 16.0389 10.327C16.0626 10.3843 16.0851 10.4419 16.1063 10.5H21.3808ZM22.8972 10.5C22.9655 10.996 23 11.4971 23 12H14.8717C14.8717 11.6229 14.7974 11.2495 14.6531 10.901C14.5088 10.5526 14.2973 10.2361 14.0306 9.96939C13.7639 9.70273 13.4474 9.4912 13.099 9.34689C12.7505 9.20257 12.3771 9.12829 12 9.12829V1C12.5029 1 13.004 1.03448 13.5 1.10275C14.4288 1.2306 15.3395 1.47696 16.2095 1.83733C17.5441 2.39013 18.7567 3.20038 19.7782 4.22183C20.7996 5.24327 21.6099 6.4559 22.1627 7.79048C22.523 8.66048 22.7694 9.57119 22.8972 10.5Z" fill="#434F64"/>
<path d="M12 1C5.92487 1 1 5.92487 1 12C1 18.0751 5.92487 23 12 23C18.0751 23 23 18.0751 23 12H21.5C21.5 17.2467 17.2467 21.5 12 21.5C6.75329 21.5 2.5 17.2467 2.5 12C2.5 6.7533 6.75329 2.5 12 2.5V1Z" fill="#434F64"/>
<path d="M12 7.62829C9.58557 7.62829 7.62829 9.58557 7.62829 12C7.62829 14.4144 9.58557 16.3717 12 16.3717C14.4144 16.3717 16.3717 14.4144 16.3717 12H14.8717C14.8717 13.586 13.586 14.8717 12 14.8717C10.414 14.8717 9.12829 13.586 9.12829 12C9.12829 10.414 10.414 9.12829 12 9.12829V7.62829Z" fill="#434F64"/>
</svg>
