<svg width="18" height="18" viewBox="0 0 18 18" fill="none" xmlns="http://www.w3.org/2000/svg">
<path d="M17.2735 6.01329C17.5972 5.94411 17.9158 6.15062 17.9854 6.4742C18.0548 6.79818 17.8485 7.11763 17.5245 7.18706L16.799 7.34232V16.7989H17.3985C17.7299 16.7989 17.9991 17.0681 17.9991 17.3994C17.999 17.7307 17.7298 17.999 17.3985 17.999H16.2091C16.2059 17.9991 16.2026 18 16.1994 18C16.1962 18 16.1928 17.9991 16.1896 17.999H0.600555C0.269276 17.999 0.000113828 17.7307 0 17.3994C0 17.0681 0.269206 16.7989 0.600555 16.7989H1.20013V10.6839L0.725549 10.7865C0.401626 10.8558 0.0830836 10.6495 0.0136712 10.3256C-0.0557065 10.0016 0.150617 9.68311 0.474585 9.61369L1.66984 9.35687C1.67469 9.35579 1.67958 9.3549 1.68448 9.35394L1.84756 9.31878C2.60797 9.73824 3.478 9.98165 4.40407 9.99746L2.40027 10.4271V16.7989H4.19998V12.5999C4.19998 12.2686 4.46833 12.0004 4.79956 12.0003H13.1995C13.5308 12.0004 13.7991 12.2686 13.7991 12.5999V16.7989H15.5988V7.59915L6.84633 9.47405C7.6562 9.09128 8.35692 8.51702 8.89115 7.8091L17.2735 6.01329ZM5.40012 16.7989H12.599V15.5997H5.40012V16.7989ZM5.40012 14.3996H12.599V13.1994H5.40012V14.3996Z" fill="#434F64"/>
<path d="M4.49977 0C6.98493 0 8.99954 2.01462 8.99954 4.49977C8.99954 6.98493 6.98493 8.99954 4.49977 8.99954C2.01462 8.99954 0 6.98493 0 4.49977C0 2.01462 2.01462 0 4.49977 0ZM4.49098 1.70304C3.92007 1.7291 3.36871 1.91456 2.90513 2.23719C2.44145 2.55992 2.08501 3.00638 1.88369 3.52326C1.68233 4.04045 1.6458 4.60372 1.77823 5.14134C1.91065 5.67876 2.20602 6.16496 2.62487 6.54068C3.04359 6.91624 3.56729 7.16522 4.13065 7.25842C4.69403 7.35162 5.27444 7.28595 5.79951 7.068C5.95238 7.00441 6.02508 6.82839 5.96161 6.67544C5.89808 6.52247 5.72205 6.44985 5.56905 6.51334C5.14832 6.68798 4.68174 6.74166 4.2283 6.66665C3.77507 6.59162 3.35691 6.39187 3.02524 6.09442C2.69365 5.79697 2.46305 5.41516 2.36023 4.99779C2.25747 4.58058 2.28651 4.14355 2.44324 3.74102C2.60007 3.33844 2.87915 2.986 3.24788 2.72935C3.61681 2.47265 4.05852 2.32361 4.51832 2.30262C4.97827 2.28163 5.43393 2.38973 5.82783 2.61217C6.22143 2.83451 6.53507 3.16056 6.73208 3.54767C6.80714 3.69521 6.98779 3.75433 7.13538 3.6795C7.26446 3.61381 7.32554 3.46726 7.28869 3.33284L7.26721 3.2762L7.16565 3.09359C6.91368 2.67908 6.55436 2.33352 6.12274 2.08974C5.62941 1.81115 5.06195 1.67699 4.49098 1.70304ZM6.73696 6.57584C6.57131 6.57584 6.43623 6.70998 6.4362 6.87563C6.43622 7.04129 6.5713 7.17542 6.73696 7.17542H6.73892C6.90458 7.17542 7.03868 7.04129 7.0387 6.87563C7.03868 6.73063 6.93622 6.6096 6.79946 6.5817L6.73892 6.57584H6.73696ZM6.73696 4.07596C6.57131 4.07596 6.43623 4.2101 6.4362 4.37575V5.87568C6.43622 6.04134 6.5713 6.17547 6.73696 6.17547C6.90243 6.17524 7.03673 6.0412 7.03675 5.87568V4.37575C7.03672 4.21024 6.90243 4.07619 6.73696 4.07596ZM4.6316 2.70103C4.46601 2.70111 4.33184 2.83522 4.33181 3.00082V4.50075C4.33183 4.61637 4.39837 4.72147 4.5027 4.77124L5.55538 5.27122C5.70493 5.34226 5.88358 5.27905 5.95478 5.12962C6.01691 4.99877 5.97625 4.84542 5.86494 4.76148L5.81318 4.72925L4.93139 4.31033V3.00082C4.93136 2.83518 4.79726 2.70103 4.6316 2.70103Z" fill="#FF3533"/>
</svg>
