<svg width="18" height="18" viewBox="0 0 18 18" fill="none" xmlns="http://www.w3.org/2000/svg">
<path d="M4.62179 10.1081C4.86203 10.1398 5.08202 9.96602 5.11324 9.71983C5.1443 9.47346 4.97468 9.24721 4.73437 9.21521C4.16447 9.13974 2.54865 9.46985 2.54865 9.46985C2.53382 9.71767 2.71763 9.93078 2.95937 9.94633C3.51668 9.98166 4.07207 10.0353 4.62179 10.1081ZM7.87751 10.7995C8.11004 10.8695 8.35421 10.7333 8.42267 10.495C8.49111 10.2566 8.35797 10.0065 8.12556 9.93617C7.57288 9.76937 7.01037 9.62672 6.44143 9.50679C6.20395 9.45676 5.97206 9.61375 5.92323 9.85717C5.87449 10.1004 6.02698 10.3381 6.2642 10.3883C6.81051 10.5035 7.34955 10.6401 7.87751 10.7995ZM10.9435 12.0632C11.1578 12.1791 11.4232 12.0948 11.5364 11.8752C11.6495 11.6556 11.5678 11.3837 11.3537 11.2675C10.8404 10.9896 10.3107 10.7399 9.76915 10.5179C9.54414 10.4259 9.28855 10.5381 9.19855 10.7686C9.10855 10.9993 9.21827 11.2611 9.44316 11.3535C9.95753 11.5644 10.4589 11.8009 10.9435 12.0632ZM13.645 13.9738C13.8259 14.1392 14.1037 14.1233 14.2651 13.938C14.4264 13.7525 14.4109 13.4678 14.2301 13.3024C13.7913 12.9012 13.33 12.5327 12.8504 12.1945L12.772 12.1501C12.5841 12.0687 12.3604 12.131 12.2402 12.31C12.1028 12.5148 12.1532 12.7947 12.3529 12.9355L12.6871 13.1794C13.0175 13.428 13.3373 13.6925 13.645 13.9738ZM15.4546 16.021C15.6006 16.2192 15.8759 16.2588 16.0694 16.1092C16.2627 15.9596 16.3014 15.6774 16.1555 15.4791C16.1437 15.463 16.1317 15.4468 16.1199 15.4308C16.108 15.4146 16.0929 15.4012 16.0793 15.3871C16.0695 15.3691 16.0603 15.3504 16.0479 15.3335C16.036 15.3173 16.0241 15.3013 16.0123 15.2852C15.8345 15.0438 15.6508 14.8097 15.4609 14.5841C15.3025 14.396 15.0247 14.375 14.8412 14.5373C14.6576 14.6997 14.6371 14.9843 14.7955 15.1725C14.973 15.3833 15.1451 15.6014 15.3113 15.8271C15.3231 15.8432 15.335 15.8592 15.3469 15.8754C15.3585 15.8911 15.3727 15.9045 15.3858 15.9183C15.3957 15.9366 15.4054 15.9555 15.4181 15.9727C15.43 15.9888 15.4427 16.0047 15.4546 16.021Z" fill="#838C9D"/>
<path d="M18 17.1C18 17.5971 17.6069 18 17.122 18C16.637 18 16.2439 17.5971 16.2439 17.1C16.2439 16.6029 16.637 16.2 17.122 16.2C17.6069 16.2 18 16.6029 18 17.1Z" fill="#838C9D"/>
<path d="M15.0006 2.45043C15.1351 2.24364 15.4076 2.18777 15.6094 2.32563C15.8111 2.46348 15.8656 2.74286 15.7311 2.94965C12.4033 8.06626 6.29221 9.90004 0.439024 9.90004C0.196558 9.90004 0 9.69857 0 9.45004C0 9.20151 0.196558 9.00004 0.439024 9.00004C6.15996 9.00004 11.9083 7.20482 15.0006 2.45043Z" fill="#434F64"/>
<path d="M17.122 2.7C17.122 1.70589 16.3357 0.9 15.3659 0.9C14.396 0.9 13.6098 1.70589 13.6098 2.7C13.6098 3.69411 14.396 4.5 15.3659 4.5V5.4C13.9111 5.4 12.7317 4.19117 12.7317 2.7C12.7317 1.20883 13.9111 0 15.3659 0C16.8207 0 18 1.20883 18 2.7C18 4.19117 16.8207 5.4 15.3659 5.4V4.5C16.3357 4.5 17.122 3.69411 17.122 2.7Z" fill="#FF3533"/>
<path d="M16.2439 2.7C16.2439 3.19706 15.8508 3.6 15.3659 3.6C14.8809 3.6 14.4878 3.19706 14.4878 2.7C14.4878 2.20294 14.8809 1.8 15.3659 1.8C15.8508 1.8 16.2439 2.20294 16.2439 2.7Z" fill="#E43634"/>
</svg>
