<svg width="16" height="16" viewBox="0 0 16 16" fill="none" xmlns="http://www.w3.org/2000/svg">
<path d="M8 4.30769C8.51547 4.30769 8.93333 3.89442 8.93333 3.38462C8.93333 2.87481 8.51547 2.46154 8 2.46154C7.48453 2.46154 7.06667 2.87481 7.06667 3.38462C7.06667 3.89442 7.48453 4.30769 8 4.30769Z" fill="#434F64"/>
<path fill-rule="evenodd" clip-rule="evenodd" d="M8 2.92308C7.74227 2.92308 7.53333 3.12971 7.53333 3.38462C7.53333 3.63952 7.74227 3.84615 8 3.84615C8.25773 3.84615 8.46667 3.63952 8.46667 3.38462C8.46667 3.12971 8.25773 2.92308 8 2.92308ZM6.6 3.38462C6.6 2.61991 7.2268 2 8 2C8.7732 2 9.4 2.61991 9.4 3.38462C9.4 4.14932 8.7732 4.76923 8 4.76923C7.2268 4.76923 6.6 4.14932 6.6 3.38462Z" fill="#434F64"/>
<path fill-rule="evenodd" clip-rule="evenodd" d="M1 8C1 7.7451 1.20893 7.53846 1.46667 7.53846H14.5333C14.7911 7.53846 15 7.7451 15 8C15 8.2549 14.7911 8.46154 14.5333 8.46154H1.46667C1.20893 8.46154 1 8.2549 1 8Z" fill="#434F64"/>
<path d="M8 13.5385C8.51547 13.5385 8.93333 13.1252 8.93333 12.6154C8.93333 12.1056 8.51547 11.6923 8 11.6923C7.48453 11.6923 7.06667 12.1056 7.06667 12.6154C7.06667 13.1252 7.48453 13.5385 8 13.5385Z" fill="#434F64"/>
<path fill-rule="evenodd" clip-rule="evenodd" d="M8 12.1538C7.74227 12.1538 7.53333 12.3605 7.53333 12.6154C7.53333 12.8703 7.74227 13.0769 8 13.0769C8.25773 13.0769 8.46667 12.8703 8.46667 12.6154C8.46667 12.3605 8.25773 12.1538 8 12.1538ZM6.6 12.6154C6.6 11.8507 7.2268 11.2308 8 11.2308C8.7732 11.2308 9.4 11.8507 9.4 12.6154C9.4 13.3801 8.7732 14 8 14C7.2268 14 6.6 13.3801 6.6 12.6154Z" fill="#434F64"/>
</svg>
