<svg width="16" height="16" viewBox="0 0 16 16" fill="none" xmlns="http://www.w3.org/2000/svg">
<path d="M8.21314 14L14.2435 7.96968C14.444 7.76916 14.4422 7.44227 14.2395 7.23956C14.0368 7.03686 13.7099 7.03509 13.5094 7.23562L8.57661 12.1684L8.52022 1.73294C8.51867 1.44781 8.28628 1.21542 8.00115 1.21387C7.71603 1.21233 7.48613 1.44223 7.48767 1.72736L7.54407 12.1628L2.55766 7.17643C2.35495 6.97373 2.02807 6.97196 1.82754 7.17249C1.62701 7.37301 1.62878 7.6999 1.83149 7.90261L7.92891 14H1.5C1.22386 14 1 14.2239 1 14.5C1 14.7762 1.22386 15 1.5 15H14.5C14.7761 15 15 14.7762 15 14.5C15 14.2239 14.7761 14 14.5 14H8.21314Z" fill="#434343"/>
</svg>
