<svg width="15" height="20" viewBox="0 0 15 20" fill="none" xmlns="http://www.w3.org/2000/svg">
<path d="M11 12C13.2091 12 15 13.7909 15 16C15 18.2091 13.2091 20 11 20C8.79086 20 7 18.2091 7 16C7 13.7909 8.79086 12 11 12ZM10.9902 13.4805C10.4767 13.504 9.97976 13.6705 9.5625 13.9609C9.1452 14.2515 8.82395 14.6544 8.64258 15.1201C8.46133 15.5859 8.42866 16.0938 8.54785 16.5781C8.6672 17.0622 8.93365 17.5006 9.31055 17.8389C9.68746 18.1769 10.1593 18.4005 10.666 18.4844C11.1096 18.5578 11.5649 18.5215 11.9883 18.3799L12.167 18.3135C12.32 18.25 12.3926 18.0739 12.3291 17.9209C12.2733 17.7873 12.132 17.7145 11.9951 17.7412L11.9375 17.7588C11.5693 17.9116 11.1606 17.9582 10.7637 17.8926C10.3671 17.8268 10.0008 17.6525 9.71094 17.3926C9.42132 17.1326 9.21962 16.7986 9.12988 16.4346C9.04035 16.0707 9.06552 15.6891 9.20215 15.3379C9.33905 14.9864 9.58283 14.6776 9.90527 14.4531C10.2279 14.2286 10.6151 14.0985 11.0176 14.0801C11.42 14.0617 11.8186 14.1563 12.1631 14.3506C12.5072 14.5449 12.782 14.8302 12.9541 15.168C13.0291 15.3155 13.2098 15.3745 13.3574 15.2998C13.4866 15.2341 13.5478 15.0877 13.5107 14.9531L13.4893 14.8965L13.3975 14.7324C13.1705 14.3593 12.8472 14.0475 12.459 13.8281C12.015 13.5775 11.5038 13.457 10.9902 13.4805ZM12.9883 17.8115C12.823 17.8118 12.6878 17.9461 12.6875 18.1113C12.6875 18.2769 12.8228 18.4109 12.9883 18.4111H12.9902C13.1559 18.4111 13.29 18.277 13.29 18.1113C13.2897 17.9666 13.1873 17.8453 13.0508 17.8174L12.9902 17.8115H12.9883ZM12.9883 15.5889C12.8229 15.5891 12.6877 15.7243 12.6875 15.8896V17.2227C12.6875 17.3882 12.8228 17.5222 12.9883 17.5225C13.1538 17.5223 13.2881 17.3882 13.2881 17.2227V15.8896C13.2879 15.7243 13.1537 15.5891 12.9883 15.5889ZM11.1172 14.3672C10.9519 14.3674 10.8167 14.5017 10.8164 14.667V16C10.8164 16.1156 10.884 16.2217 10.9883 16.2715L11.9238 16.7158L11.9805 16.7363C12.1161 16.7699 12.261 16.7043 12.3232 16.5732C12.394 16.4237 12.3302 16.2449 12.1807 16.1738L11.417 15.8105V14.667C11.4167 14.5016 11.2826 14.3674 11.1172 14.3672Z" fill="#FF3533"/>
<path d="M14 4.87891V12C13.5523 11.6637 13.0465 11.4001 12.5 11.2285V7.11426H10.7402C10.6851 7.47416 10.3753 7.75 10 7.75H3.5C3.08579 7.75 2.75 7.41421 2.75 7C2.75 6.58579 3.08579 6.25 3.5 6.25H8.13477C7.37122 5.59378 6.88684 4.62183 6.88672 3.53613V1.5H2.5459C1.96851 1.5 1.5 1.96851 1.5 2.5459V16.1211C1.5 16.6985 1.96851 17.167 2.5459 17.167H6.1377C6.26668 17.7064 6.48347 18.2113 6.77148 18.667H2.5459L2.28516 18.6533C1.00162 18.5229 0 17.439 0 16.1211V2.5459C0 1.22794 1.00159 0.143046 2.28516 0.0126953L2.5459 0H7.9541L14 4.87891ZM6.82422 13.25C6.52472 13.7039 6.29646 14.209 6.15723 14.75H3.5C3.08579 14.75 2.75 14.4142 2.75 14C2.75 13.5858 3.08579 13.25 3.5 13.25H6.82422ZM10.5 9.75C10.9142 9.75 11.25 10.0858 11.25 10.5C11.25 10.6936 11.1742 10.8679 11.0537 11.001C11.0358 11.0008 11.0179 11 11 11C10.4546 11 9.9299 11.0885 9.43848 11.25H3.5C3.08579 11.25 2.75 10.9142 2.75 10.5C2.75 10.0858 3.08579 9.75 3.5 9.75H10.5ZM8.38672 3.53613C8.38695 4.68371 9.31723 5.61417 10.4648 5.61426H12.5V5.5957L8.38672 2.27539V3.53613Z" fill="#434F64"/>
</svg>
