<svg width="16" height="16" viewBox="0 0 16 16" fill="none" xmlns="http://www.w3.org/2000/svg">
<path d="M11.5 1C11.3143 1 11.1363 1.07375 11.005 1.20503C10.8737 1.3363 10.8 1.51435 10.8 1.7C10.8 1.88565 10.8737 2.0637 11.005 2.19497C11.1363 2.32625 11.3143 2.4 11.5 2.4H12.6102L9.6051 5.4051C9.47759 5.53712 9.40703 5.71394 9.40863 5.89748C9.41022 6.08102 9.48384 6.25659 9.61363 6.38637C9.74341 6.51616 9.91898 6.58978 10.1025 6.59137C10.2861 6.59297 10.4629 6.52241 10.5949 6.3949L13.6 3.3898V4.5C13.6 4.68565 13.6737 4.8637 13.805 4.99497C13.9363 5.12625 14.1143 5.2 14.3 5.2C14.4857 5.2 14.6637 5.12625 14.795 4.99497C14.9263 4.8637 15 4.68565 15 4.5V1.7C15 1.51435 14.9263 1.3363 14.795 1.20503C14.6637 1.07375 14.4857 1 14.3 1H11.5ZM2.4 12.6102V11.5C2.4 11.3143 2.32625 11.1363 2.19497 11.005C2.0637 10.8737 1.88565 10.8 1.7 10.8C1.51435 10.8 1.3363 10.8737 1.20503 11.005C1.07375 11.1363 1 11.3143 1 11.5V14.3C1 14.4857 1.07375 14.6637 1.20503 14.795C1.3363 14.9263 1.51435 15 1.7 15H4.5C4.68565 15 4.8637 14.9263 4.99497 14.795C5.12625 14.6637 5.2 14.4857 5.2 14.3C5.2 14.1143 5.12625 13.9363 4.99497 13.805C4.8637 13.6737 4.68565 13.6 4.5 13.6H3.3898L6.3949 10.5949C6.52241 10.4629 6.59297 10.2861 6.59137 10.1025C6.58978 9.91898 6.51616 9.74341 6.38637 9.61363C6.25659 9.48384 6.08102 9.41022 5.89748 9.40863C5.71394 9.40703 5.53712 9.47759 5.4051 9.6051L2.4 12.6102Z" fill="#434343"/>
</svg>
