<svg width="16" height="16" viewBox="0 0 16 16" fill="none" xmlns="http://www.w3.org/2000/svg">
<path fill-rule="evenodd" clip-rule="evenodd" d="M7.64645 2.64645L4.46447 5.82843C4.2692 6.02369 4.2692 6.34027 4.46447 6.53553C4.65973 6.7308 4.97631 6.7308 5.17157 6.53553L7.5 4.20711V10C7.5 10.2761 7.72386 10.5 8 10.5C8.27614 10.5 8.5 10.2761 8.5 10V4.20711L10.8284 6.53553C11.0237 6.7308 11.3403 6.7308 11.5355 6.53553C11.7308 6.34027 11.7308 6.02369 11.5355 5.82843L8.35355 2.64645C8.15829 2.45118 7.84171 2.45118 7.64645 2.64645ZM3.5 9C3.5 8.72386 3.27614 8.5 3 8.5C2.72386 8.5 2.5 8.72386 2.5 9V12.5C2.5 13.0523 2.94772 13.5 3.5 13.5H12.5C13.0523 13.5 13.5 13.0523 13.5 12.5V9C13.5 8.72386 13.2761 8.5 13 8.5C12.7239 8.5 12.5 8.72386 12.5 9V12.5H3.5V9Z" fill="#434343"/>
</svg>
