<svg width="16" height="16" viewBox="0 0 16 16" fill="none" xmlns="http://www.w3.org/2000/svg">
<path d="M5 11.5C4.72386 11.5 4.5 11.7239 4.5 12C4.5 12.2761 4.72386 12.5 5 12.5L11 12.5C11.2761 12.5 11.5 12.2761 11.5 12C11.5 11.7239 11.2761 11.5 11 11.5L5 11.5Z" fill="#434343"/>
<path d="M4.5 10C4.5 9.72386 4.72386 9.5 5 9.5H10C10.2761 9.5 10.5 9.72386 10.5 10C10.5 10.2761 10.2761 10.5 10 10.5H5C4.72386 10.5 4.5 10.2761 4.5 10Z" fill="#434343"/>
<path d="M5 7.5C4.72386 7.5 4.5 7.72386 4.5 8C4.5 8.27614 4.72386 8.5 5 8.5L8 8.5C8.27614 8.5 8.5 8.27614 8.5 8C8.5 7.72386 8.27614 7.5 8 7.5L5 7.5Z" fill="#434343"/>
<path fill-rule="evenodd" clip-rule="evenodd" d="M3.12966 2.15356C3.53483 1.73681 4.08741 1.5 4.66667 1.5H8.83333C8.96838 1.5 9.09769 1.55463 9.19183 1.65146L13.3585 5.93717C13.4492 6.03051 13.5 6.15554 13.5 6.28571V12.2857C13.5 12.8685 13.275 13.4302 12.8703 13.8464C12.4652 14.2632 11.9126 14.5 11.3333 14.5H4.66667C4.08741 14.5 3.53483 14.2632 3.12966 13.8464C2.72495 13.4302 2.5 12.8685 2.5 12.2857V3.71429C2.5 3.13149 2.72495 2.56983 3.12966 2.15356ZM4.66667 2.5H7.5V5C7.5 5.66304 7.76339 6.29893 8.23223 6.76777C8.70107 7.23661 9.33696 7.5 10 7.5H12.5V12.2857C12.5 12.6122 12.3738 12.9226 12.1533 13.1494C11.9334 13.3756 11.6381 13.5 11.3333 13.5H4.66667C4.36187 13.5 4.0666 13.3756 3.84665 13.1494C3.62624 12.9226 3.5 12.6122 3.5 12.2857V3.71429C3.5 3.38776 3.62624 3.07735 3.84665 2.85064C4.0666 2.62441 4.36187 2.5 4.66667 2.5ZM10 6.5H12.5V6.48871L8.62209 2.5H8.5V5C8.5 5.39782 8.65804 5.77936 8.93934 6.06066C9.22064 6.34196 9.60218 6.5 10 6.5Z" fill="#434343"/>
</svg>
