<svg width="16" height="16" viewBox="0 0 16 16" fill="none" xmlns="http://www.w3.org/2000/svg">
<path fill-rule="evenodd" clip-rule="evenodd" d="M7.24996 12.8536C7.0547 12.6583 7.0547 12.3417 7.24996 12.1464L11.8964 7.5L7.24996 2.85355C7.0547 2.65829 7.0547 2.34171 7.24996 2.14645C7.44523 1.95118 7.76181 1.95118 7.95707 2.14645L13.3106 7.5L7.95707 12.8536C7.76181 13.0488 7.44522 13.0488 7.24996 12.8536Z" fill="#434F64"/>
<path fill-rule="evenodd" clip-rule="evenodd" d="M3.14645 12.9571C2.95118 12.7618 2.95118 12.4452 3.14645 12.25L7.79289 7.60352L3.14645 2.95707C2.95119 2.76181 2.95119 2.44522 3.14645 2.24996C3.34171 2.0547 3.65829 2.0547 3.85355 2.24996L9.20711 7.60352L3.85355 12.9571C3.65829 13.1523 3.34171 13.1523 3.14645 12.9571Z" fill="#434F64"/>
</svg>
