<svg width="20" height="20" viewBox="0 0 20 20" fill="none" xmlns="http://www.w3.org/2000/svg">
<path d="M4.66992 17C4.66992 16.0777 3.92232 15.3301 3 15.3301C2.07768 15.3301 1.33008 16.0777 1.33008 17C1.33008 17.9223 2.07768 18.6699 3 18.6699V20C1.34315 20 0 18.6569 0 17C0 15.3431 1.34315 14 3 14C4.65685 14 6 15.3431 6 17C6 18.6569 4.65685 20 3 20V18.6699C3.92232 18.6699 4.66992 17.9223 4.66992 17Z" fill="#434F64"/>
<path d="M18.6699 3C18.6699 2.07768 17.9223 1.33008 17 1.33008C16.0777 1.33008 15.3301 2.07768 15.3301 3C15.3301 3.92232 16.0777 4.66992 17 4.66992V6C15.3431 6 14 4.65685 14 3C14 1.34315 15.3431 0 17 0C18.6569 0 20 1.34315 20 3C20 4.65685 18.6569 6 17 6V4.66992C17.9223 4.66992 18.6699 3.92232 18.6699 3Z" fill="#838C9D"/>
<path d="M17.835 13.501C17.835 11.9352 16.5657 10.666 15 10.666H10V9.33594H15C17.3003 9.33594 19.165 11.2007 19.165 13.501C19.165 15.8012 17.3003 17.666 15 17.666H5.5V16.3359H15C16.5657 16.3359 17.835 15.0667 17.835 13.501Z" fill="#434F64"/>
<path d="M3.42676 8.8584C3.87688 9.15971 4.41722 9.33594 5.00098 9.33594H6.93848V10.666H5.00098C4.14561 10.666 3.34876 10.4072 2.68652 9.96387L3.42676 8.8584ZM10.168 9.33594V10.666H8.23047V9.33594H10.168ZM0.835938 6.50098C0.835938 5.64561 1.09474 4.84876 1.53809 4.18652L2.64355 4.92676C2.34224 5.37688 2.16602 5.91722 2.16602 6.50098C2.16602 7.08474 2.34224 7.62507 2.64355 8.0752L1.53809 8.81543C1.09474 8.1532 0.835938 7.35634 0.835938 6.50098ZM8.56348 2.33594V3.66602H5.00098C4.41722 3.66602 3.87688 3.84224 3.42676 4.14355L2.68652 3.03809C3.34876 2.59474 4.14561 2.33594 5.00098 2.33594H8.56348ZM14.501 2.33594V3.66602H10.9385V2.33594H14.501Z" fill="#838C9D"/>
<path d="M12.7071 11.2929C13.0976 11.6834 13.0976 12.3164 12.7071 12.707C12.3166 13.0975 11.6835 13.0975 11.293 12.707L8.58598 10L7.2929 8.70696C6.90237 8.31643 6.90237 7.68342 7.2929 7.29289C7.68343 6.90237 8.31646 6.90237 8.707 7.29289L12.7071 11.2929Z" fill="#E43634"/>
<path d="M8.707 12.7071C8.31646 13.0976 7.68343 13.0976 7.2929 12.7071C6.90237 12.3166 6.90237 11.6836 7.2929 11.293L8.58598 10L11.293 7.29304C11.6835 6.90252 12.3166 6.90252 12.7071 7.29304C13.0976 7.68357 13.0976 8.31658 12.7071 8.70711L8.707 12.7071Z" fill="#E43634"/>
</svg>
