<svg width="16" height="15" viewBox="0 0 16 15" fill="none" xmlns="http://www.w3.org/2000/svg">
<path fill-rule="evenodd" clip-rule="evenodd" d="M5.28682 0.00081047C5.61047 -0.00745781 5.96662 0.0468548 6.26898 0.195182L6.27244 0.196879L10.237 2.17541C10.3302 2.22286 10.4901 2.25919 10.6822 2.25358C10.8739 2.24798 11.0339 2.20248 11.126 2.15015L12.8973 1.14013C13.6223 0.724824 14.4116 0.621328 15.0545 0.994616C15.6974 1.36791 16 2.10482 16 2.94358V10.2835C16 10.6502 15.8723 11.0159 15.6976 11.3154C15.5227 11.6151 15.2687 11.9037 14.9568 12.0851L14.9535 12.0871L11.6871 13.9579L11.6856 13.9587C11.3907 14.1264 11.0363 14.1987 10.7132 14.2069C10.3895 14.2152 10.0334 14.1609 9.73102 14.0126L9.72678 14.0105L5.76298 12.0248C5.66983 11.9773 5.50987 11.941 5.31779 11.9466C5.12612 11.9522 4.96615 11.9977 4.87398 12.0501L3.10266 13.0601C2.37773 13.4754 1.58842 13.5789 0.945515 13.2056C0.302617 12.8323 0 12.0954 0 11.2566V3.9167C0 3.55487 0.125136 3.19136 0.299254 2.89202C0.473536 2.59239 0.728605 2.30251 1.04649 2.12071L4.3144 0.249021C4.60925 0.0813575 4.96368 0.00906594 5.28682 0.00081047ZM4.87372 1.23266L1.60887 3.10261C1.50453 3.16223 1.37833 3.28737 1.27736 3.46096C1.17614 3.63498 1.13154 3.80329 1.13154 3.9167V11.2566C1.13154 11.8512 1.33812 12.1251 1.5137 12.2271C1.68912 12.3289 2.02788 12.3719 2.53997 12.0784L2.54106 12.0777L4.31381 11.0669C4.6064 10.9005 4.95987 10.8251 5.28476 10.8156C5.60876 10.8061 5.9685 10.8601 6.27476 11.0156L6.27662 11.0165L10.2294 12.9967L10.2311 12.9975C10.3288 13.0449 10.4923 13.0807 10.6843 13.0758C10.8775 13.0708 11.0358 13.0264 11.1257 12.9754L14.3878 11.1071L14.3891 11.1063C14.4919 11.046 14.6182 10.92 14.7202 10.7453C14.8227 10.5695 14.8685 10.3996 14.8685 10.2835V2.94358C14.8685 2.34905 14.6619 2.07511 14.4863 1.97316C14.3109 1.8713 13.9721 1.82834 13.46 2.12185L13.4589 2.12247L11.6862 3.13332C11.3936 3.29969 11.0401 3.37515 10.7152 3.38464C10.3914 3.39409 10.0319 3.34017 9.7257 3.18485L5.76924 1.21039C5.67162 1.16292 5.50791 1.12707 5.31572 1.13198C5.12257 1.13692 4.9637 1.18171 4.87372 1.23266Z" fill="#434343"/>
<path fill-rule="evenodd" clip-rule="evenodd" d="M5.29563 0.49947C5.6081 0.49947 5.8614 0.752774 5.8614 1.06524V10.8719C5.8614 11.1844 5.6081 11.4377 5.29563 11.4377C4.98316 11.4377 4.72986 11.1844 4.72986 10.8719V1.06524C4.72986 0.752774 4.98316 0.49947 5.29563 0.49947Z" fill="#434343"/>
<path fill-rule="evenodd" clip-rule="evenodd" d="M10.7044 2.47598C11.0169 2.47598 11.2702 2.72929 11.2702 3.04176V13.1351C11.2702 13.4476 11.0169 13.7009 10.7044 13.7009C10.3919 13.7009 10.1386 13.4476 10.1386 13.1351V3.04176C10.1386 2.72929 10.3919 2.47598 10.7044 2.47598Z" fill="#434343"/>
</svg>
