<svg width="16" height="16" viewBox="0 0 16 16" fill="none" xmlns="http://www.w3.org/2000/svg">
<path fill-rule="evenodd" clip-rule="evenodd" d="M9.5 4.5C9.5 5.15567 9.07932 5.71308 8.49315 5.91705C8.49766 5.94403 8.5 5.97174 8.5 6V7.5H11.5C12.3284 7.5 13 8.17157 13 9V10.0854C13.5826 10.2913 14 10.8469 14 11.5C14 12.3284 13.3284 13 12.5 13C11.6716 13 11 12.3284 11 11.5C11 10.8469 11.4174 10.2913 12 10.0854V9C12 8.72386 11.7761 8.5 11.5 8.5H8.5V10C8.5 10.0283 8.49766 10.056 8.49315 10.083C9.07932 10.2869 9.5 10.8443 9.5 11.5C9.5 12.3284 8.82843 13 8 13C7.17157 13 6.5 12.3284 6.5 11.5C6.5 10.8443 6.92068 10.2869 7.50685 10.083C7.50234 10.056 7.5 10.0283 7.5 10V8.5H4.5C4.22386 8.5 4 8.72386 4 9V10.0854C4.5826 10.2913 5 10.8469 5 11.5C5 12.3284 4.32843 13 3.5 13C2.67157 13 2 12.3284 2 11.5C2 10.8469 2.4174 10.2913 3 10.0854V9C3 8.17157 3.67157 7.5 4.5 7.5H7.5V6C7.5 5.97174 7.50234 5.94403 7.50685 5.91705C6.92068 5.71308 6.5 5.15567 6.5 4.5C6.5 3.67157 7.17157 3 8 3C8.82843 3 9.5 3.67157 9.5 4.5ZM8.5 4.5C8.5 4.77614 8.27614 5 8 5C7.72386 5 7.5 4.77614 7.5 4.5C7.5 4.22386 7.72386 4 8 4C8.27614 4 8.5 4.22386 8.5 4.5ZM3.5 11C3.22386 11 3 11.2239 3 11.5C3 11.7761 3.22386 12 3.5 12C3.77614 12 4 11.7761 4 11.5C4 11.2239 3.77614 11 3.5 11ZM12.5 11C12.2239 11 12 11.2239 12 11.5C12 11.7761 12.2239 12 12.5 12C12.7761 12 13 11.7761 13 11.5C13 11.2239 12.7761 11 12.5 11ZM8 12C8.27614 12 8.5 11.7761 8.5 11.5C8.5 11.2239 8.27614 11 8 11C7.72386 11 7.5 11.2239 7.5 11.5C7.5 11.7761 7.72386 12 8 12Z" fill="#434343"/>
</svg>
