<svg width="16" height="16" viewBox="0 0 16 16" fill="none" xmlns="http://www.w3.org/2000/svg">
<path fill-rule="evenodd" clip-rule="evenodd" d="M8.55713 12.9286L4.68137 11.6367C4.37351 11.5341 4.14124 11.2786 4.06826 10.9624L2 2L10.9625 4.06826C11.2787 4.14123 11.5341 4.3735 11.6368 4.68136L12.9287 8.55719L13.7272 9.3557C14.0909 9.71949 14.0909 10.3093 13.7272 10.6731L10.6731 13.7272C10.3093 14.0909 9.71947 14.0909 9.35568 13.7272L8.55713 12.9286ZM3.46139 4.1899L4.97595 10.753L8.28071 11.8546C8.32617 11.7406 8.39505 11.6337 8.48733 11.5414L11.5414 8.48736C11.6337 8.39506 11.7406 8.32617 11.8546 8.28071L10.753 4.97594L4.00837 3.41949L7.43118 6.84228C8.07999 6.45578 8.93198 6.54174 9.49042 7.10017C10.1505 7.76021 10.1505 8.83034 9.49042 9.49037C8.83038 10.1504 7.76025 10.1504 7.10021 9.49037C6.56719 8.95736 6.46461 8.15691 6.79247 7.52097L3.46139 4.1899ZM9.21589 12.27L10.0144 13.0685L13.0685 10.0144L12.27 9.21591L9.21589 12.27ZM8.83172 8.83168C9.12797 8.53543 9.12797 8.05511 8.83172 7.75887C8.53547 7.46262 8.05515 7.46262 7.7589 7.75887C7.46265 8.05512 7.46265 8.53543 7.7589 8.83168C8.05515 9.12793 8.53547 9.12793 8.83172 8.83168Z" fill="#434343"/>
</svg>
