<svg width="16" height="16" viewBox="0 0 16 16" fill="none" xmlns="http://www.w3.org/2000/svg">
<path d="M3.5 7C3.5 4.51472 5.51472 2.5 8 2.5C10.4853 2.5 12.5 4.51472 12.5 7C12.5 9.37847 10.6547 11.3259 8.31772 11.489L9.77518 10.0315C9.97045 9.83623 9.97045 9.51965 9.77518 9.32438C9.57992 9.12912 9.26334 9.12912 9.06808 9.32438L6.5932 11.7993L9.06808 14.2741C9.26334 14.4694 9.57992 14.4694 9.77518 14.2741C9.97045 14.0789 9.97045 13.7623 9.77518 13.567L8.668 12.4598C11.3905 12.1302 13.5 9.81145 13.5 7C13.5 3.96243 11.0376 1.5 8 1.5C4.96243 1.5 2.5 3.96243 2.5 7C2.5 7.27614 2.72386 7.5 3 7.5C3.27614 7.5 3.5 7.27614 3.5 7Z" fill="#434343"/>
</svg>
