<svg width="18" height="18" viewBox="0 0 18 18" fill="none" xmlns="http://www.w3.org/2000/svg">
<path d="M4.62179 10.3673C4.86203 10.3998 5.08202 10.2216 5.11324 9.96906C5.1443 9.71637 4.97468 9.48432 4.73437 9.4515C4.16447 9.37409 3.59006 9.31741 3.01434 9.27997C2.77233 9.26423 2.56362 9.45826 2.54865 9.71267C2.53382 9.96685 2.71763 10.1854 2.95937 10.2014C3.51668 10.2376 4.07207 10.2927 4.62179 10.3673ZM7.87751 11.0764C8.11004 11.1482 8.35421 11.0085 8.42267 10.7641C8.49111 10.5196 8.35797 10.2631 8.12556 10.1909C7.57288 10.0199 7.01037 9.87355 6.44143 9.75055C6.20395 9.69925 5.97206 9.86026 5.92323 10.1099C5.87449 10.3594 6.02698 10.6032 6.2642 10.6547C6.81051 10.7728 7.34955 10.913 7.87751 11.0764ZM10.9435 12.3726C11.1578 12.4913 11.4232 12.4049 11.5364 12.1797C11.6495 11.9545 11.5678 11.6756 11.3537 11.5564C10.8404 11.2713 10.3107 11.0153 9.76915 10.7876C9.54414 10.6933 9.28855 10.8083 9.19855 11.0448C9.10855 11.2813 9.21827 11.5499 9.44316 11.6446C9.95753 11.8609 10.4589 12.1034 10.9435 12.3726ZM13.645 14.3321C13.8259 14.5017 14.1037 14.4854 14.2651 14.2953C14.4264 14.1052 14.4109 13.8131 14.2301 13.6435C13.7913 13.232 13.33 12.854 12.8504 12.5072L12.772 12.4616C12.5841 12.3781 12.3604 12.4421 12.2402 12.6257C12.1028 12.8357 12.1532 13.1228 12.3529 13.2672L12.6871 13.5173C13.0175 13.7724 13.3373 14.0436 13.645 14.3321ZM15.4546 16.4318C15.6006 16.6351 15.8759 16.6757 16.0694 16.5223C16.2627 16.3688 16.3014 16.0794 16.1555 15.876C16.1437 15.8594 16.1317 15.8429 16.1199 15.8265C16.108 15.8099 16.0929 15.7961 16.0793 15.7817C16.0695 15.7632 16.0603 15.744 16.0479 15.7267C16.036 15.7101 16.0241 15.6936 16.0123 15.6772C15.8345 15.4295 15.6508 15.1895 15.4609 14.9581C15.3025 14.7651 15.0247 14.7436 14.8412 14.91C14.6576 15.0766 14.6371 15.3685 14.7955 15.5615C14.973 15.7777 15.1451 16.0014 15.3113 16.233C15.3231 16.2494 15.335 16.2659 15.3469 16.2824C15.3585 16.2986 15.3727 16.3123 15.3858 16.3264C15.3957 16.3453 15.4054 16.3646 15.4181 16.3823C15.43 16.3988 15.4427 16.4151 15.4546 16.4318Z" fill="#838C9D"/>
<path d="M18 0.923077C18 1.43288 17.6069 1.84615 17.122 1.84615C16.637 1.84615 16.2439 1.43288 16.2439 0.923077C16.2439 0.413276 16.637 0 17.122 0C17.6069 0 18 0.413276 18 0.923077Z" fill="#E43634"/>
<path d="M17.4323 17.2121C17.6038 17.3923 17.6038 17.6845 17.4323 17.8647C17.2609 18.045 16.983 18.045 16.8115 17.8647L15.6231 16.6154L15.0554 16.0186C14.884 15.8384 14.884 15.5462 15.0554 15.366C15.2269 15.1857 15.5048 15.1857 15.6762 15.366L17.4323 17.2121Z" fill="#E43634"/>
<path d="M15.6762 17.8648C15.5048 18.0451 15.2269 18.0451 15.0554 17.8648C14.884 17.6846 14.884 17.3924 15.0554 17.2122L15.6231 16.6154L16.8115 15.366C16.983 15.1858 17.2609 15.1858 17.4323 15.366C17.6038 15.5463 17.6038 15.8384 17.4323 16.0187L15.6762 17.8648Z" fill="#E43634"/>
<path d="M15.4396 2.05172C15.5741 1.83963 15.8467 1.78233 16.0484 1.92372C16.2501 2.06511 16.3047 2.35165 16.1702 2.56374C16.0386 2.77125 15.9122 2.96956 15.7912 3.1596C12.4507 8.40538 6.28298 10.1539 0.439024 10.1539C0.196558 10.1539 0 9.94725 0 9.69235C0 9.43745 0.196558 9.23081 0.439024 9.23081C6.16904 9.23081 11.9632 7.5117 15.0615 2.64668C15.1821 2.45724 15.3082 2.25889 15.4396 2.05172Z" fill="#434F64"/>
</svg>
