<svg width="16" height="16" viewBox="0 0 16 16" fill="none" xmlns="http://www.w3.org/2000/svg">
<path d="M5 4.5C5 4.22386 5.22386 4 5.5 4L5.42707 4.99472C5.1855 4.95942 5 4.75137 5 4.5Z" fill="#434343"/>
<path d="M5.42707 4.99472L5.5 4H10.5C10.7761 4 11 4.22386 11 4.5C11 4.77614 10.7761 5 10.5 5H9.50018C9.71854 5.29071 9.875 5.63056 9.94999 6H10.5C10.7761 6 11 6.22386 11 6.5C11 6.77614 10.7761 7 10.5 7H9.94999C9.71836 8.14112 8.70948 9 7.5 9H6.70711L9.35355 11.6464C9.54882 11.8417 9.54882 12.1583 9.35355 12.3536C9.15829 12.5488 8.84171 12.5488 8.64645 12.3536L5.14671 8.85382L5.20168 8.09867C5.23521 8.07368 5.27116 8.05343 5.30861 8.03794C5.36756 8.01349 5.43221 8 5.5 8H7.5C8.15311 8 8.70873 7.5826 8.91465 7H5.5C5.4231 7 5.35025 6.98264 5.28516 6.95162L5.35283 6.02201C5.39936 6.0077 5.44878 6 5.5 6H8.91465C8.70873 5.4174 8.15311 5 7.5 5H5.5C5.47541 5 5.45072 4.99815 5.42707 4.99472Z" fill="#434343"/>
<path d="M5.35174 6.02235L5.42707 4.99472C5.4269 4.9947 5.42725 4.99475 5.42707 4.99472L5.35283 6.02201C5.35246 6.02212 5.3521 6.02224 5.35174 6.02235Z" fill="#434343"/>
<path d="M5.28366 6.9509C5.28416 6.95114 5.28466 6.95138 5.28516 6.95162L5.20168 8.09867C5.20091 8.09923 5.20015 8.0998 5.19939 8.10038L5.28366 6.9509Z" fill="#434343"/>
<path d="M5.19939 8.10038C5.18095 8.11429 5.16325 8.12964 5.14645 8.14645C5.09851 8.19439 5.06234 8.24964 5.03794 8.30861C5.01349 8.36756 5 8.43221 5 8.5C5 8.56779 5.01349 8.63244 5.03794 8.69139C5.06198 8.74949 5.09744 8.80398 5.14433 8.85143L5.19939 8.10038Z" fill="#434343"/>
<path d="M5.28366 6.9509C5.11584 6.87024 5 6.69865 5 6.5C5 6.27548 5.14798 6.08552 5.35174 6.02235L5.28366 6.9509Z" fill="#434343"/>
<path fill-rule="evenodd" clip-rule="evenodd" d="M15 8C15 11.866 11.866 15 8 15C4.13401 15 1 11.866 1 8C1 4.13401 4.13401 1 8 1C11.866 1 15 4.13401 15 8ZM14 8C14 11.3137 11.3137 14 8 14C4.68629 14 2 11.3137 2 8C2 4.68629 4.68629 2 8 2C11.3137 2 14 4.68629 14 8Z" fill="#434343"/>
</svg>
