<svg width="24" height="24" viewBox="0 0 24 24" fill="none" xmlns="http://www.w3.org/2000/svg">
<path fill-rule="evenodd" clip-rule="evenodd" d="M2.66659 1.5C2.02225 1.5 1.5 2.02225 1.5 2.66659C1.5 3.31094 2.02225 3.83339 2.66659 3.83339C4.96483 3.83339 7.24042 4.28593 9.36356 5.16543C11.4866 6.04493 13.4159 7.33397 15.041 8.95896C16.6662 10.584 17.9551 12.5132 18.8346 14.6364C19.7141 16.7597 20.1666 19.0353 20.1666 21.3334C20.1666 21.9778 20.6891 22.5 21.3334 22.5C21.9778 22.5 22.5 21.9778 22.5 21.3334C22.5 18.7287 21.9871 16.1499 20.9905 13.7434C19.9936 11.337 18.5327 9.15071 16.6911 7.30897C14.8493 5.46738 12.663 4.00644 10.2566 3.00979C7.85037 2.0131 5.27143 1.5 2.66659 1.5ZM2.66659 7.33347C2.02225 7.33347 1.5 7.85572 1.5 8.50007C1.5 9.14441 2.02225 9.66666 2.66659 9.66666C4.19884 9.66666 5.71578 9.96861 7.13122 10.5548C8.54667 11.1411 9.83296 12.0005 10.9162 13.0838C11.9995 14.167 12.8589 15.4532 13.4452 16.8688C14.0314 18.2842 14.3333 19.8012 14.3333 21.3334C14.3333 21.9778 14.8556 22.5 15.4999 22.5C16.1443 22.5 16.6665 21.9778 16.6665 21.3334C16.6665 19.4948 16.3044 17.6744 15.6009 15.9759C14.8974 14.2773 13.8662 12.7339 12.5662 11.434C11.2662 10.134 9.72286 9.10271 8.02422 8.39922C6.32558 7.69572 4.50494 7.33347 2.66659 7.33347ZM1.5 14.3334C1.5 13.6891 2.02225 13.1666 2.66659 13.1666C3.73904 13.1666 4.80113 13.378 5.79198 13.7883C6.78282 14.1987 7.68297 14.8002 8.44137 15.5586C9.19976 16.317 9.80131 17.2172 10.2117 18.208C10.622 19.1988 10.8334 20.2608 10.8334 21.3334C10.8334 21.9778 10.3109 22.5 9.66656 22.5C9.02221 22.5 8.49997 21.9778 8.49997 21.3334C8.49997 20.5674 8.34899 19.8088 8.05602 19.101C7.76286 18.3934 7.33318 17.7502 6.79138 17.2086C6.24978 16.667 5.60664 16.2373 4.89899 15.944C4.19119 15.6508 3.4326 15.5 2.6666 15.5C2.02225 15.5 1.5 14.9778 1.5 14.3334ZM3.24999 22.4999C4.21639 22.4999 4.99998 21.7163 4.99998 20.7499C4.99998 19.7835 4.21639 18.9999 3.24999 18.9999C2.2836 18.9999 1.5 19.7835 1.5 20.7499C1.5 21.7163 2.2836 22.4999 3.24999 22.4999Z" fill="#434F64"/>
</svg>
