<svg width="16" height="16" viewBox="0 0 16 16" fill="none" xmlns="http://www.w3.org/2000/svg">
<g clip-path="url(#clip0_607_28)">
<path fill-rule="evenodd" clip-rule="evenodd" d="M6.95933 1.93934C7.24063 1.65804 7.62216 1.5 8.01999 1.5C8.41781 1.5 8.79934 1.65804 9.08065 1.93934C9.36195 2.22064 9.51999 2.60218 9.51999 3V9.1875C9.51999 9.34147 9.59093 9.48686 9.7123 9.58161C10.1637 9.934 10.4938 10.4185 10.6565 10.9675C10.8193 11.5165 10.8067 12.1026 10.6203 12.6441C10.434 13.1856 10.0833 13.6553 9.61712 13.9879C9.15096 14.3205 8.59262 14.4992 8.01999 14.4992C7.44736 14.4992 6.88902 14.3205 6.42286 13.9879C5.9567 13.6553 5.60599 13.1856 5.41966 12.6441C5.23332 12.1026 5.22066 11.5165 5.38344 10.9675C5.54622 10.4185 5.87632 9.934 6.32768 9.58161C6.44905 9.48686 6.51999 9.34147 6.51999 9.1875V3C6.51999 2.60218 6.67802 2.22064 6.95933 1.93934ZM8.01999 0.5C7.35695 0.5 6.72106 0.763392 6.25222 1.23223C5.78338 1.70107 5.51999 2.33696 5.51999 3V8.95415C5.00285 9.41668 4.62285 10.0149 4.4247 10.6832C4.20272 11.4319 4.21999 12.2311 4.47408 12.9695C4.72817 13.7079 5.20642 14.3485 5.84208 14.802C6.47775 15.2555 7.23913 15.4992 8.01999 15.4992C8.80085 15.4992 9.56223 15.2555 10.1979 14.802C10.8336 14.3485 11.3118 13.7079 11.5659 12.9695C11.82 12.2311 11.8373 11.4319 11.6153 10.6832C11.4171 10.0149 11.0371 9.41668 10.52 8.95415V3C10.52 2.33696 10.2566 1.70107 9.78776 1.23223C9.31891 0.763392 8.68303 0.5 8.01999 0.5ZM12.5 2.76001C12.5 2.3458 12.8358 2.01001 13.25 2.01001C13.6642 2.01001 14 2.3458 14 2.76001C14 3.17422 13.6642 3.51001 13.25 3.51001C12.8358 3.51001 12.5 3.17422 12.5 2.76001ZM13.25 1.01001C12.2835 1.01001 11.5 1.79351 11.5 2.76001C11.5 3.72651 12.2835 4.51001 13.25 4.51001C14.2165 4.51001 15 3.72651 15 2.76001C15 1.79351 14.2165 1.01001 13.25 1.01001ZM8.01999 11C7.60578 11 7.26999 11.3358 7.26999 11.75C7.26999 12.1642 7.60578 12.5 8.01999 12.5C8.4342 12.5 8.76999 12.1642 8.76999 11.75C8.76999 11.3358 8.4342 11 8.01999 11ZM7.51999 10.0725C6.79712 10.2876 6.26999 10.9572 6.26999 11.75C6.26999 12.7165 7.05349 13.5 8.01999 13.5C8.98649 13.5 9.76999 12.7165 9.76999 11.75C9.76999 10.9572 9.24286 10.2876 8.51999 10.0725V5.5C8.51999 5.22386 8.29613 5 8.01999 5C7.74385 5 7.51999 5.22386 7.51999 5.5V10.0725Z" fill="#434343"/>
</g>
<defs>
<clipPath id="clip0_607_28">
<rect width="16" height="16" fill="white"/>
</clipPath>
</defs>
</svg>
