<svg width="18" height="18" viewBox="0 0 18 18" fill="none" xmlns="http://www.w3.org/2000/svg">
<path d="M4.2002 13.9326C5.30458 13.9327 6.20005 14.8427 6.2002 15.9658C6.2002 17.089 5.30468 17.9999 4.2002 18C3.09563 18 2.2002 17.0891 2.2002 15.9658C2.20034 14.8427 3.09572 13.9326 4.2002 13.9326ZM8.2002 13.9326C9.30458 13.9327 10.2 14.8427 10.2002 15.9658C10.2002 17.089 9.30468 17.9999 8.2002 18C7.09563 18 6.2002 17.0891 6.2002 15.9658C6.20034 14.8427 7.09572 13.9326 8.2002 13.9326ZM11 6C11.7732 6 12.4004 6.63752 12.4004 7.42383V7.62695H14.0762C14.473 7.62695 15.0158 7.69815 15.4355 8.09375C15.8455 8.48023 16.1509 9.0012 16.376 9.50781C16.6039 10.0208 16.7668 10.5586 16.874 11.0156C16.9503 11.3406 17.0877 11.6189 17.2812 11.8223C17.7422 12.3069 18 12.9547 18 13.6289V15.4512C18 16.2969 17.3258 16.9834 16.4941 16.9834V16.6143C16.2278 17.4194 15.4811 18 14.5996 18C13.4952 17.9998 12.5996 17.089 12.5996 15.9658C12.5998 14.8428 13.4953 13.9328 14.5996 13.9326C15.6311 13.9326 16.48 14.7263 16.5879 15.7461C16.7107 15.7057 16.7998 15.5895 16.7998 15.4512V13.6289C16.7998 13.2714 16.6633 12.9279 16.4189 12.6709C16.2536 12.4971 16.1193 12.3037 16.0098 12.1016H12.4004V15.5596C12.4003 16.3458 11.7731 16.9834 11 16.9834C10.6687 16.9834 10.4005 16.71 10.4004 16.373C10.4004 16.0361 10.6686 15.7627 11 15.7627C11.1104 15.7627 11.2001 15.6718 11.2002 15.5596V7.42383C11.2002 7.3115 11.1105 7.2207 11 7.2207H9.2793C9.4966 6.8398 9.6701 6.43089 9.79199 6H11ZM0 7.66016C0.333001 8.13347 0.737932 8.55214 1.2002 8.89941V15.5596C1.20033 15.6718 1.29002 15.7627 1.40039 15.7627C1.73158 15.7629 2 16.0362 2 16.373C1.99991 16.7098 1.73153 16.9832 1.40039 16.9834C0.627273 16.9834 0.000132103 16.3458 0 15.5596V7.66016ZM4.2002 15.1523C3.75846 15.1523 3.40054 15.5166 3.40039 15.9658C3.40039 16.4151 3.75837 16.7793 4.2002 16.7793C4.64193 16.7792 5 16.4151 5 15.9658C4.99985 15.5167 4.64184 15.1525 4.2002 15.1523ZM8.2002 15.1523C7.75846 15.1523 7.40054 15.5166 7.40039 15.9658C7.40039 16.4151 7.75837 16.7793 8.2002 16.7793C8.64193 16.7792 9 16.4151 9 15.9658C8.99985 15.5167 8.64184 15.1525 8.2002 15.1523ZM14.5996 15.1523C14.1581 15.1526 13.8 15.5168 13.7998 15.9658C13.7998 16.415 14.158 16.7791 14.5996 16.7793C15.0414 16.7793 15.4004 16.4151 15.4004 15.9658C15.4002 15.5166 15.0413 15.1523 14.5996 15.1523ZM10.0498 11.2881C10.3536 11.2881 10.5996 11.5615 10.5996 11.8984C10.5995 12.2354 10.3535 12.5088 10.0498 12.5088H2.34961C2.04607 12.5086 1.79987 12.2352 1.7998 11.8984C1.7998 11.5616 2.04603 11.2883 2.34961 11.2881H10.0498ZM12.4004 10.8818H13.834L14.3174 10.3906C14.4736 10.2318 14.7266 10.2318 14.8828 10.3906C15.0139 10.5241 15.0336 10.7262 14.9443 10.8818H15.5957C15.512 10.5944 15.4094 10.2938 15.2832 10.0098C15.0913 9.57788 14.8656 9.22077 14.6201 8.98926C14.5341 8.90817 14.369 8.84766 14.0762 8.84766H12.4004V10.8818Z" fill="#434F64"/>
<path d="M4.5 0C6.98528 0 9 2.01472 9 4.5C9 6.98528 6.98528 9 4.5 9C2.01472 9 0 6.98528 0 4.5C0 2.01472 2.01472 0 4.5 0ZM1.875 3.75C1.66789 3.75 1.5 3.91789 1.5 4.125V6.375C1.5 6.58211 1.66789 6.75 1.875 6.75C2.08211 6.75 2.25 6.58211 2.25 6.375V4.125C2.25 3.91789 2.08211 3.75 1.875 3.75ZM3.375 3C3.16789 3 3 3.16789 3 3.375V6.375C3 6.58211 3.16789 6.75 3.375 6.75C3.58211 6.75 3.75 6.58211 3.75 6.375V3.375C3.75 3.16789 3.58211 3 3.375 3ZM6.64014 4.60986C6.49369 4.46342 6.25631 4.46342 6.10986 4.60986L5.625 5.09473L5.14014 4.60986C4.99369 4.46342 4.75631 4.46342 4.60986 4.60986C4.46342 4.75631 4.46342 4.99369 4.60986 5.14014L5.09473 5.625L4.60986 6.10986C4.46342 6.25631 4.46342 6.49369 4.60986 6.64014C4.75631 6.78656 4.9937 6.78657 5.14014 6.64014L5.625 6.15527L6.10986 6.64014L6.16846 6.68848C6.31401 6.78458 6.512 6.76827 6.64014 6.64014C6.76827 6.512 6.78458 6.31401 6.68848 6.16846L6.64014 6.10986L6.15527 5.625L6.64014 5.14014C6.78657 4.9937 6.78656 4.75631 6.64014 4.60986ZM4.875 2.25C4.66789 2.25 4.5 2.41789 4.5 2.625V3.375C4.5 3.58211 4.66789 3.75 4.875 3.75C5.08211 3.75 5.25 3.58211 5.25 3.375V2.625C5.25 2.41789 5.08211 2.25 4.875 2.25ZM6.375 1.5C6.16789 1.5 6 1.66789 6 1.875V3.375C6 3.58211 6.16789 3.75 6.375 3.75C6.58211 3.75 6.75 3.58211 6.75 3.375V1.875C6.75 1.66789 6.58211 1.5 6.375 1.5Z" fill="#FF3533"/>
</svg>
