<svg width="16" height="16" viewBox="0 0 16 16" fill="none" xmlns="http://www.w3.org/2000/svg">
<path fill-rule="evenodd" clip-rule="evenodd" d="M12.0001 3.49927H12.5V3.99878C12.5 3.9991 12.5 3.99943 12.5 3.99976L12.5 11.9993C12.5 12.2754 12.2761 12.4993 12 12.4993C11.7239 12.4993 11.5 12.2754 11.5 11.9993L11.5 5.20637L4.35355 12.3528C4.15829 12.5481 3.84171 12.5481 3.64645 12.3528C3.45118 12.1576 3.45118 11.841 3.64645 11.6457L10.7929 4.49927L4 4.49927C3.72386 4.49927 3.5 4.27541 3.5 3.99927C3.5 3.72313 3.72386 3.49927 4 3.49927L11.9999 3.49927C12 3.49927 12 3.49927 12.0001 3.49927Z" fill="#434343"/>
</svg>
