<svg width="16" height="16" viewBox="0 0 16 16" fill="none" xmlns="http://www.w3.org/2000/svg">
<path fill-rule="evenodd" clip-rule="evenodd" d="M12.5 11.9994L12.5 12.4993L12.0005 12.4993C12.0002 12.4993 11.9998 12.4993 11.9995 12.4993L4 12.4993C3.72386 12.4993 3.5 12.2754 3.5 11.9993C3.5 11.7231 3.72386 11.4993 4 11.4993L10.7929 11.4993L3.64645 4.35282C3.45118 4.15756 3.45118 3.84098 3.64645 3.64571C3.84171 3.45045 4.15829 3.45045 4.35355 3.64571L11.5 10.7922L11.5 3.99927C11.5 3.72313 11.7239 3.49927 12 3.49927C12.2761 3.49927 12.5 3.72313 12.5 3.99927L12.5 11.9992C12.5 11.9992 12.5 11.9993 12.5 11.9994Z" fill="#434343"/>
</svg>
