<svg width="24" height="24" viewBox="0 0 24 24" fill="none" xmlns="http://www.w3.org/2000/svg">
<path fill-rule="evenodd" clip-rule="evenodd" d="M7.15385 8.53846H14.0769C14.8416 8.53846 15.4615 9.15838 15.4615 9.92308V16.8462H16.8462V7.15385H7.15385V8.53846ZM15.4615 18.2308V19.6154C15.4615 20.3801 14.8416 21 14.0769 21H4.38462C3.61991 21 3 20.3801 3 19.6154V9.92308C3 9.15838 3.61991 8.53846 4.38462 8.53846H5.76923V7.15385C5.76923 6.38914 6.38914 5.76923 7.15385 5.76923H8.53846V4.38462C8.53846 3.61991 9.15838 3 9.92308 3H19.6154C20.3801 3 21 3.61991 21 4.38462V14.0769C21 14.8416 20.3801 15.4615 19.6154 15.4615H18.2308V16.8462C18.2308 17.6109 17.6109 18.2308 16.8462 18.2308H15.4615ZM18.2308 14.0769H19.6154V4.38462H9.92308V5.76923H16.8462C17.6109 5.76923 18.2308 6.38914 18.2308 7.15385V14.0769ZM7.02659 17.6603C7.20392 17.8204 7.32217 17.944 7.55975 17.944C7.79733 17.944 7.95403 17.8204 8.11869 17.6603C8.22846 17.5535 9.93438 15.8299 13.2364 12.4895C13.5044 12.2188 13.5033 11.7824 13.2314 11.5105C12.961 11.2401 12.5227 11.2401 12.2523 11.5105L7.52496 16.2378L5.56682 14.2797C5.29645 14.0093 4.85811 14.0093 4.58703 14.2797C4.31686 14.5503 4.31718 14.9886 4.58774 15.2588C6.09543 16.753 6.90838 17.5535 7.02659 17.6603Z" fill="#434F64"/>
</svg>
