<svg width="16" height="16" viewBox="0 0 16 16" fill="none" xmlns="http://www.w3.org/2000/svg">
<path d="M4.99854 5.5C4.72239 5.5 4.49854 5.72386 4.49854 6C4.49854 6.27614 4.72239 6.5 4.99854 6.5L11.0015 6.5C11.2776 6.5 11.5015 6.27614 11.5015 6C11.5015 5.72386 11.2776 5.5 11.0015 5.5L4.99854 5.5Z" fill="#434343"/>
<path fill-rule="evenodd" clip-rule="evenodd" d="M5 1.5C5.27614 1.5 5.5 1.72386 5.5 2V3H10.5V2C10.5 1.72386 10.7239 1.5 11 1.5C11.2761 1.5 11.5 1.72386 11.5 2V3H13C13.5523 3 14 3.44772 14 4V13C14 13.5523 13.5523 14 13 14H3C2.44772 14 2 13.5523 2 13V4C2 3.44772 2.44772 3 3 3H4.5V2C4.5 1.72386 4.72386 1.5 5 1.5ZM3 4H13V13H3L3 4Z" fill="#434343"/>
</svg>
