<svg width="16" height="16" viewBox="0 0 16 16" fill="none" xmlns="http://www.w3.org/2000/svg">
<path fill-rule="evenodd" clip-rule="evenodd" d="M8 15C11.866 15 15 11.866 15 8C15 4.13403 11.866 1 8 1C4.134 1 1 4.13403 1 8C1 11.866 4.134 15 8 15ZM6.44424 10.556C6.50259 10.577 6.56509 10.5875 6.63174 10.5875C6.67453 10.5875 6.71561 10.5832 6.75494 10.5745C6.77692 10.5697 6.79834 10.5635 6.81924 10.556C6.87759 10.5353 6.93176 10.5 6.98175 10.45L11.5818 5.84998C11.6734 5.75836 11.7192 5.63953 11.7192 5.49353C11.7192 5.34784 11.6734 5.22919 11.5818 5.13751C11.4901 5.04584 11.3714 5 11.2257 5C11.0797 5 10.9609 5.04584 10.8693 5.13751L6.63174 9.375L4.84424 7.58752C4.75259 7.49585 4.63593 7.45001 4.49426 7.45001C4.35257 7.45001 4.23593 7.49585 4.14426 7.58752C4.05258 7.67914 4.00458 7.79785 4.00024 7.94348C3.99625 8.08948 4.04007 8.20831 4.13174 8.29999L6.28174 10.45C6.33176 10.5 6.38593 10.5353 6.44424 10.556Z" fill="#434343"/>
</svg>
