<svg width="16" height="16" viewBox="0 0 16 16" fill="none" xmlns="http://www.w3.org/2000/svg">
<path d="M8 8.77645L10.2643 11.0409C10.3664 11.1429 10.4946 11.1951 10.6491 11.1975C10.8035 11.1999 10.9341 11.1477 11.0409 11.0409C11.1477 10.9341 11.201 10.8047 11.201 10.6526C11.201 10.5006 11.1477 10.3712 11.0409 10.2643L8.77645 8L11.0409 5.73568C11.1429 5.63363 11.1951 5.50536 11.1975 5.35087C11.1999 5.1965 11.1477 5.06589 11.0409 4.95905C10.9341 4.85233 10.8047 4.79897 10.6526 4.79897C10.5006 4.79897 10.3712 4.85233 10.2643 4.95905L8 7.22355L5.73568 4.95905C5.63363 4.85712 5.50536 4.80493 5.35087 4.80247C5.1965 4.80014 5.0659 4.85233 4.95905 4.95905C4.85233 5.06589 4.79897 5.19533 4.79897 5.34737C4.79897 5.4994 4.85233 5.62884 4.95905 5.73568L7.22355 8L4.95905 10.2643C4.85712 10.3664 4.80493 10.4946 4.80247 10.6491C4.80014 10.8035 4.85233 10.9341 4.95905 11.0409C5.0659 11.1477 5.19533 11.201 5.34737 11.201C5.4994 11.201 5.62884 11.1477 5.73568 11.0409L8 8.77645ZM8.00129 15C7.03308 15 6.12302 14.8163 5.2711 14.4488C4.41919 14.0814 3.67818 13.5827 3.04805 12.9529C2.41793 12.323 1.91903 11.5823 1.55134 10.7307C1.18378 9.87919 1 8.96938 1 8.00129C1 7.03308 1.18372 6.12302 1.55116 5.2711C1.9186 4.41919 2.41725 3.67818 3.04713 3.04805C3.67701 2.41793 4.41772 1.91903 5.26926 1.55134C6.12081 1.18378 7.03062 1 7.99871 1C8.96692 1 9.87698 1.18372 10.7289 1.55116C11.5808 1.9186 12.3218 2.41725 12.9519 3.04713C13.5821 3.67701 14.081 4.41772 14.4487 5.26926C14.8162 6.12081 15 7.03062 15 7.99871C15 8.96692 14.8163 9.87698 14.4488 10.7289C14.0814 11.5808 13.5827 12.3218 12.9529 12.9519C12.323 13.5821 11.5823 14.081 10.7307 14.4487C9.87919 14.8162 8.96938 15 8.00129 15Z" fill="#434343"/>
</svg>
