<svg width="16" height="16" viewBox="0 0 16 16" fill="none" xmlns="http://www.w3.org/2000/svg">
<path d="M10.75 8.10001C11.1642 8.10001 11.5 7.76422 11.5 7.35001C11.5 6.93579 11.1642 6.60001 10.75 6.60001C10.3358 6.60001 10 6.93579 10 7.35001C10 7.76422 10.3358 8.10001 10.75 8.10001Z" fill="#434343"/>
<path d="M8.75 7.35001C8.75 7.76422 8.41421 8.10001 8 8.10001C7.58579 8.10001 7.25 7.76422 7.25 7.35001C7.25 6.93579 7.58579 6.60001 8 6.60001C8.41421 6.60001 8.75 6.93579 8.75 7.35001Z" fill="#434343"/>
<path d="M5.25 8.10001C5.66421 8.10001 6 7.76422 6 7.35001C6 6.93579 5.66421 6.60001 5.25 6.60001C4.83579 6.60001 4.5 6.93579 4.5 7.35001C4.5 7.76422 4.83579 8.10001 5.25 8.10001Z" fill="#434343"/>
<path fill-rule="evenodd" clip-rule="evenodd" d="M2 4C2 3.44772 2.44772 3 3 3H13C13.5523 3 14 3.44772 14 4V10.6154C14 11.1677 13.5523 11.6154 13 11.6154H10.0524C9.7086 11.6154 9.38893 11.792 9.2059 12.0829L8.84646 12.6543C8.45432 13.2777 7.54568 13.2777 7.15354 12.6543L6.7941 12.0829C6.61107 11.792 6.2914 11.6154 5.94764 11.6154H3C2.44772 11.6154 2 11.1677 2 10.6154V4ZM3 4H13V10.6154H10.0524C9.36484 10.6154 8.72551 10.9685 8.35944 11.5505L8 12.1219L7.64056 11.5505C7.27449 10.9685 6.63516 10.6154 5.94764 10.6154H3V4Z" fill="#434343"/>
</svg>
