<svg width="16" height="16" viewBox="0 0 16 16" fill="none" xmlns="http://www.w3.org/2000/svg">
<g clip-path="url(#clip0_1234_240)">
<path fill-rule="evenodd" clip-rule="evenodd" d="M1.83334 2.66659C1.83334 2.20939 2.20949 1.83325 2.66668 1.83325H9.33334C9.79053 1.83325 10.1667 2.20939 10.1667 2.66659C10.1667 2.94273 10.3905 3.16659 10.6667 3.16659C10.9428 3.16659 11.1667 2.94273 11.1667 2.66659C11.1667 1.65711 10.3428 0.833252 9.33334 0.833252H2.66668C1.6572 0.833252 0.833344 1.65711 0.833344 2.66659V9.33325C0.833344 10.3427 1.6572 11.1666 2.66668 11.1666C2.94282 11.1666 3.16668 10.9427 3.16668 10.6666C3.16668 10.3904 2.94282 10.1666 2.66668 10.1666C2.20949 10.1666 1.83334 9.79044 1.83334 9.33325V2.66659ZM5.83334 6.66658C5.83334 6.20635 6.20644 5.83325 6.66668 5.83325H13.3333C13.7936 5.83325 14.1667 6.20635 14.1667 6.66658V13.3333C14.1667 13.7935 13.7936 14.1666 13.3333 14.1666H6.66668C6.20644 14.1666 5.83334 13.7935 5.83334 13.3333V6.66658ZM6.66668 4.83325C5.65415 4.83325 4.83334 5.65406 4.83334 6.66658V13.3333C4.83334 14.3458 5.65415 15.1666 6.66668 15.1666H13.3333C14.3459 15.1666 15.1667 14.3458 15.1667 13.3333V6.66658C15.1667 5.65406 14.3459 4.83325 13.3333 4.83325H6.66668Z" fill="#434343"/>
</g>
<defs>
<clipPath id="clip0_1234_240">
<rect width="16" height="16" fill="white"/>
</clipPath>
</defs>
</svg>
