<svg width="16" height="16" viewBox="0 0 16 16" fill="none" xmlns="http://www.w3.org/2000/svg">
<path d="M1.93333 8C1.93333 4.64947 4.64947 1.93333 8 1.93333C11.3505 1.93333 14.0667 4.64947 14.0667 8C14.0667 8.79813 13.9128 9.55918 13.6335 10.2559C13.5376 10.4951 13.6538 10.7668 13.893 10.8627C14.1323 10.9586 14.4039 10.8424 14.4998 10.6032C14.8226 9.79786 15 8.91907 15 8C15 4.13401 11.866 1 8 1C4.13401 1 1 4.13401 1 8C1 11.866 4.13401 15 8 15C9.35306 15 10.6178 14.6156 11.6893 13.9499C11.9082 13.8139 11.9754 13.5262 11.8394 13.3073C11.7034 13.0884 11.4157 13.0211 11.1967 13.1572C10.2688 13.7337 9.17401 14.0667 8 14.0667C4.64947 14.0667 1.93333 11.3505 1.93333 8Z" fill="#434343"/>
<path fill-rule="evenodd" clip-rule="evenodd" d="M11.7333 5.48003C11.7333 6.58297 9.85547 7.16006 8 7.16006C6.14453 7.16006 4.26667 6.58297 4.26667 5.48003C4.26667 4.37709 6.14453 3.8 8 3.8C9.85547 3.8 11.7333 4.37709 11.7333 5.48003ZM10.8 5.48003L10.7999 5.47861L10.7989 5.47635C10.7959 5.46968 10.7831 5.4451 10.7444 5.40553C10.6602 5.31969 10.4939 5.20485 10.2142 5.09232C9.65543 4.86757 8.84848 4.73333 8 4.73333C7.15152 4.73333 6.34457 4.86757 5.78585 5.09232C5.50608 5.20485 5.33977 5.31969 5.25564 5.40553C5.21685 5.4451 5.20415 5.46968 5.20113 5.47635C5.19982 5.47924 5.19992 5.47952 5.19992 5.47952V5.48054C5.19992 5.48054 5.19982 5.48081 5.20113 5.48371C5.20415 5.49037 5.21685 5.51496 5.25564 5.55453C5.33977 5.64037 5.50608 5.7552 5.78585 5.86774C6.34457 6.09249 7.15152 6.22673 8 6.22673C8.84848 6.22673 9.65543 6.09249 10.2142 5.86774C10.4939 5.7552 10.6602 5.64037 10.7444 5.55453C10.7831 5.51496 10.7959 5.49037 10.7989 5.48371C10.8002 5.48081 10.8 5.48003 10.8 5.48003Z" fill="#434343"/>
<path d="M4.26667 7.1602C4.26667 8.26314 6.14453 8.84023 8 8.84023C9.85547 8.84023 11.7333 8.26314 11.7333 7.1602V6.32018C11.7333 7.42312 9.85547 8.00021 8 8.00021C6.14453 8.00021 4.26667 7.42312 4.26667 6.32018V7.1602Z" fill="#434343"/>
<path d="M8 10.52C6.14453 10.52 4.26667 9.94295 4.26667 8.84001V8C4.26667 9.10294 6.14453 9.68003 8 9.68003C9.85547 9.68003 11.7333 9.10294 11.7333 8V8.84001C11.7333 9.94295 9.85547 10.52 8 10.52Z" fill="#434343"/>
<path d="M4.26667 10.5198C4.26667 11.6228 6.14453 12.1999 8 12.1999C9.85547 12.1999 11.7333 11.6228 11.7333 10.5198V9.67982C11.7333 10.7828 9.85547 11.3598 8 11.3598C6.14453 11.3598 4.26667 10.7828 4.26667 9.67982V10.5198Z" fill="#434343"/>
</svg>
