<svg width="16" height="16" viewBox="0 0 16 16" fill="none" xmlns="http://www.w3.org/2000/svg">
<mask id="mask0_1572_64" style="mask-type:alpha" maskUnits="userSpaceOnUse" x="0" y="0" width="16" height="16">
<rect width="16" height="16" fill="#D9D9D9"/>
</mask>
<g mask="url(#mask0_1572_64)">
<path d="M4.83334 11.1666H9.16668V10.1666H4.83334V11.1666ZM4.83334 8.49992H11.1667V7.49992H4.83334V8.49992ZM4.83334 5.83325H11.1667V4.83325H4.83334V5.83325ZM3.53851 13.6666C3.20173 13.6666 2.91668 13.5499 2.68334 13.3166C2.45001 13.0833 2.33334 12.7982 2.33334 12.4614V3.53842C2.33334 3.20164 2.45001 2.91659 2.68334 2.68325C2.91668 2.44992 3.20173 2.33325 3.53851 2.33325H12.4615C12.7983 2.33325 13.0833 2.44992 13.3167 2.68325C13.55 2.91659 13.6667 3.20164 13.6667 3.53842V12.4614C13.6667 12.7982 13.55 13.0833 13.3167 13.3166C13.0833 13.5499 12.7983 13.6666 12.4615 13.6666H3.53851ZM3.53851 12.6666H12.4615C12.5128 12.6666 12.5598 12.6452 12.6025 12.6024C12.6453 12.5598 12.6667 12.5128 12.6667 12.4614V3.53842C12.6667 3.48709 12.6453 3.44008 12.6025 3.39742C12.5598 3.35464 12.5128 3.33325 12.4615 3.33325H3.53851C3.48718 3.33325 3.44018 3.35464 3.39751 3.39742C3.35473 3.44008 3.33334 3.48709 3.33334 3.53842V12.4614C3.33334 12.5128 3.35473 12.5598 3.39751 12.6024C3.44018 12.6452 3.48718 12.6666 3.53851 12.6666Z" fill="#434343"/>
</g>
</svg>
