<svg width="16" height="16" viewBox="0 0 16 16" fill="none" xmlns="http://www.w3.org/2000/svg">
<path fill-rule="evenodd" clip-rule="evenodd" d="M6.6451 13.1435C6.47968 13.3089 6.2615 13.4111 6.02852 13.4323L2.5 13.753L2.82077 10.2245C2.84195 9.99155 2.94414 9.77337 3.10956 9.60795L9.92462 2.79289C10.3151 2.40237 10.9483 2.40237 11.3388 2.79289L13.4602 4.91421C13.8507 5.30474 13.8507 5.9379 13.4602 6.32843L6.6451 13.1435ZM9.21751 4.91422L10.6317 3.5L12.753 5.62132L11.3388 7.03554L9.21751 4.91422ZM8.5104 5.62133L10.6317 7.74265L5.93799 12.4364L3.60454 12.6485L3.81667 10.3151L8.5104 5.62133Z" fill="black"/>
</svg>
