<svg width="16" height="16" viewBox="0 0 16 16" fill="none" xmlns="http://www.w3.org/2000/svg">
<path d="M3.64645 6.64645C3.84171 6.45118 4.15829 6.45118 4.35355 6.64645L5 7.29289L5.64645 6.64645C5.84171 6.45118 6.15829 6.45118 6.35355 6.64645C6.54882 6.84171 6.54882 7.15829 6.35355 7.35355L5.70711 8L6.35355 8.64645C6.54882 8.84171 6.54882 9.15829 6.35355 9.35355C6.15829 9.54882 5.84171 9.54882 5.64645 9.35355L5 8.70711L4.35355 9.35355C4.15829 9.54882 3.84171 9.54882 3.64645 9.35355C3.45118 9.15829 3.45118 8.84171 3.64645 8.64645L4.29289 8L3.64645 7.35355C3.45118 7.15829 3.45118 6.84171 3.64645 6.64645Z" fill="#434343"/>
<path fill-rule="evenodd" clip-rule="evenodd" d="M2 2.5C2 1.67157 2.67157 1 3.5 1H13.5C14.3284 1 15 1.67157 15 2.5V13.5C15 14.3284 14.3284 15 13.5 15H3.5C2.67157 15 2 14.3284 2 13.5V12C1.44772 12 1 11.5523 1 11V5C1 4.44772 1.44772 4 2 4V2.5ZM3 13.5V12H8C8.55228 12 9 11.5523 9 11V10.5H12C12.2761 10.5 12.5 10.2761 12.5 10C12.5 9.72386 12.2761 9.5 12 9.5H9V8.5H12C12.2761 8.5 12.5 8.27614 12.5 8C12.5 7.72386 12.2761 7.5 12 7.5H9V6.5H12C12.2761 6.5 12.5 6.27614 12.5 6C12.5 5.72386 12.2761 5.5 12 5.5H9V5C9 4.44772 8.55228 4 8 4H3V2.5C3 2.22386 3.22386 2 3.5 2H13.5C13.7761 2 14 2.22386 14 2.5V13.5C14 13.7761 13.7761 14 13.5 14H3.5C3.22386 14 3 13.7761 3 13.5ZM2 5H8V11H2V5Z" fill="#434343"/>
</svg>
