<svg width="16" height="16" viewBox="0 0 16 16" fill="none" xmlns="http://www.w3.org/2000/svg">
<mask id="mask0_1547_20" style="mask-type:alpha" maskUnits="userSpaceOnUse" x="0" y="0" width="16" height="16">
<rect width="16" height="16" fill="#D9D9D9"/>
</mask>
<g mask="url(#mask0_1547_20)">
<path d="M7.58203 11.8845H8.41797V7.82863L9.92279 9.32647L10.5123 8.7398L8 6.24647L5.50192 8.72568L6.09121 9.31235L7.58203 7.82863V11.8845ZM2.06271 14C1.77375 14 1.52439 13.894 1.31463 13.6819C1.10488 13.47 1 13.2235 1 12.9424V4.05765C1 3.77654 1.10488 3.53002 1.31463 3.31808C1.52439 3.10603 1.77375 3 2.06271 3H6.65803L7.86258 4.19882H13.9373C14.2197 4.19882 14.4674 4.30478 14.6804 4.51672C14.8935 4.72877 15 4.97536 15 5.25647V12.9424C15 13.2235 14.8935 13.47 14.6804 13.6819C14.4674 13.894 14.2197 14 13.9373 14H2.06271ZM2.06271 13.1678H13.9373C14.0034 13.1678 14.0576 13.1467 14.1001 13.1044C14.1426 13.0621 14.1639 13.0081 14.1639 12.9424V5.25647C14.1639 5.19059 14.1426 5.13651 14.1001 5.09422C14.0576 5.05193 14.0034 5.03078 13.9373 5.03078H7.52253L6.31797 3.83215H2.06271C1.99664 3.83215 1.94236 3.85329 1.89987 3.89558C1.85738 3.93787 1.83613 3.99189 1.83613 4.05765V12.9424C1.83613 13.0081 1.85738 13.0621 1.89987 13.1044C1.94236 13.1467 1.99664 13.1678 2.06271 13.1678Z" fill="#434F64"/>
</g>
</svg>
