<svg width="16" height="16" viewBox="0 0 16 16" fill="none" xmlns="http://www.w3.org/2000/svg">
<path fill-rule="evenodd" clip-rule="evenodd" d="M1.75 2.25C1.47386 2.25 1.25 2.47386 1.25 2.75C1.25 3.02614 1.47386 3.25 1.75 3.25H11.75C12.0261 3.25 12.25 3.02614 12.25 2.75C12.25 2.47386 12.0261 2.25 11.75 2.25H1.75ZM1.25 5.25C1.25 4.97386 1.47386 4.75 1.75 4.75H8.75C9.02614 4.75 9.25 4.97386 9.25 5.25C9.25 5.52614 9.02614 5.75 8.75 5.75H1.75C1.47386 5.75 1.25 5.52614 1.25 5.25ZM9.06518 13.2625C8.93288 13.3948 8.75838 13.4765 8.57205 13.4935L5.75 13.75L6.00655 10.9279C6.02349 10.7416 6.10522 10.5671 6.23752 10.4348L11.6881 4.98425C12.0004 4.67192 12.5068 4.67192 12.8192 4.98425L14.5157 6.68085C14.8281 6.99318 14.8281 7.49958 14.5157 7.81191L9.06518 13.2625ZM11.1226 6.68085L12.2536 5.54978L13.9502 7.24638L12.8191 8.37745L11.1226 6.68085ZM10.557 7.24638L12.2536 8.94298L8.49965 12.697L6.63339 12.8666L6.80305 11.0004L10.557 7.24638ZM1.25 7.75C1.25 7.47386 1.47386 7.25 1.75 7.25H6.75C7.02614 7.25 7.25 7.47386 7.25 7.75C7.25 8.02614 7.02614 8.25 6.75 8.25H1.75C1.47386 8.25 1.25 8.02614 1.25 7.75ZM1.75 9.75C1.47386 9.75 1.25 9.97386 1.25 10.25C1.25 10.5261 1.47386 10.75 1.75 10.75H4.75C5.02614 10.75 5.25 10.5261 5.25 10.25C5.25 9.97386 5.02614 9.75 4.75 9.75H1.75Z" fill="#434343"/>
</svg>
