<svg width="16" height="16" viewBox="0 0 16 16" fill="none" xmlns="http://www.w3.org/2000/svg">
<path fill-rule="evenodd" clip-rule="evenodd" d="M7.52506 9.67591V13.0029L8.96672 11.9873V9.46527C8.96672 9.46458 8.96669 9.46418 8.96668 9.46404L8.89181 9.06058L12.9979 3H3.00207L7.52506 9.67591ZM9.94991 9.28168L13.8258 3.5609C14.2757 2.89687 13.8 2 12.9979 2H3.00207C2.19998 2 1.7243 2.89687 2.17418 3.5609L6.52506 9.98277V13.0029C6.52506 13.8133 7.43846 14.2871 8.10096 13.8204L9.54263 12.8048C9.80853 12.6175 9.96672 12.3126 9.96672 11.9873V9.46527C9.96672 9.40256 9.96095 9.3412 9.94991 9.28168Z" fill="#434343"/>
</svg>
