<svg width="16" height="16" viewBox="0 0 16 16" fill="none" xmlns="http://www.w3.org/2000/svg">
<path fill-rule="evenodd" clip-rule="evenodd" d="M1.98953 8.35342L1.63604 7.99993L1.98925 7.64672C1.98948 7.64649 1.98971 7.64626 1.98994 7.64603L7.64645 1.98952C7.84171 1.79426 8.15829 1.79426 8.35355 1.98952C8.54881 2.18479 8.54881 2.50137 8.35355 2.69663L3.55025 7.49993L13.6569 7.49993C13.933 7.49993 14.1569 7.72379 14.1569 7.99993C14.1569 8.27607 13.933 8.49993 13.6569 8.49993L3.55025 8.49993L8.35355 13.3032C8.54882 13.4985 8.54882 13.8151 8.35355 14.0103C8.15829 14.2056 7.84171 14.2056 7.64645 14.0103L1.98965 8.35355C1.98961 8.3535 1.98957 8.35346 1.98953 8.35342Z" fill="#434343"/>
</svg>
