<svg width="16" height="16" viewBox="0 0 16 16" fill="none" xmlns="http://www.w3.org/2000/svg">
<path d="M15 8C15 11.866 11.866 15 8 15C4.13401 15 1 11.866 1 8C1 4.134 4.13401 0.999998 8 0.999998C11.866 0.999998 15 4.134 15 8ZM2.33713 8C2.33713 11.1275 4.87248 13.6629 8 13.6629C11.1275 13.6629 13.6629 11.1275 13.6629 8C13.6629 4.87248 11.1275 2.33712 8 2.33712C4.87248 2.33712 2.33713 4.87248 2.33713 8Z" fill="#CED1D7"/>
<path d="M15 8C15 9.47787 14.5323 10.9178 13.6638 12.1136C12.7953 13.3094 11.5706 14.1996 10.1652 14.6567C8.75984 15.1138 7.24581 15.1144 5.84005 14.6584C4.43429 14.2024 3.20893 13.3132 2.3395 12.1181C1.47006 10.923 1.00118 9.48343 1 8.00556C0.998828 6.52768 1.46543 5.08735 2.33296 3.8909C3.20049 2.69445 4.42444 1.80326 5.82948 1.34501C7.23451 0.886761 8 0.999998 8 0.999998L7.97365 2.33718C7.97365 2.33718 7.38073 2.24552 6.24409 2.61624C5.10744 2.98695 4.11729 3.7079 3.41547 4.67581C2.71365 5.64372 2.33618 6.80892 2.33713 8.0045C2.33808 9.20007 2.7174 10.3647 3.42076 11.3315C4.12411 12.2983 5.11541 13.0176 6.25264 13.3865C7.38988 13.7555 8.61469 13.755 9.75164 13.3852C10.8886 13.0153 11.8793 12.2952 12.5819 11.3278C13.2845 10.3605 13.6629 9.19557 13.6629 8H15Z" fill="#434F64"/>
</svg>
