<svg width="16" height="16" viewBox="0 0 16 16" fill="none" xmlns="http://www.w3.org/2000/svg">
<path d="M8 0.5C11.0077 0.5 13.5 3.11102 13.5 6.40039C13.4999 6.9777 13.3092 7.67328 12.9668 8.44531C12.6269 9.21169 12.1524 10.0203 11.6191 10.8125C10.8193 12.0006 9.90314 13.1308 9.15039 14.001L8.46191 14.7773C8.28357 14.9737 8.12662 15.1408 8 15.2754L7.53809 14.7773C6.72135 13.8782 5.44738 12.3968 4.38086 10.8125C3.84759 10.0203 3.37312 9.21169 3.0332 8.44531C2.6908 7.67328 2.50009 6.9777 2.5 6.40039C2.5 3.11102 4.99234 0.5 8 0.5ZM8 0.730469C5.08822 0.730469 2.7002 3.2529 2.7002 6.40039C2.7003 7.00917 2.93354 7.78127 3.35742 8.65723L3.55078 9.03906C3.95265 9.80037 4.45962 10.5834 4.99902 11.333L5.54688 12.0693C6.098 12.7888 6.6497 13.449 7.125 13.9932L7.57227 14.4961V14.4971L7.62891 14.5596L8 14.9697L8.37109 14.5596L8.42773 14.4971V14.4961C8.84314 14.0354 9.36116 13.4401 9.9043 12.7666L10.4531 12.0693C11.098 11.2275 11.7327 10.3158 12.2402 9.4209L12.4492 9.03906C12.9948 8.0055 13.2997 7.0961 13.2998 6.40039C13.2998 3.2529 10.9118 0.730469 8 0.730469ZM8 4.19238C9.03748 4.19238 9.90039 5.05896 9.90039 6.1543C9.90015 7.24942 9.03734 8.11523 8 8.11523C6.96266 8.11523 6.09985 7.24942 6.09961 6.1543C6.09961 5.05896 6.96252 4.19238 8 4.19238Z" stroke="#434343"/>
</svg>
