<svg width="16" height="16" viewBox="0 0 16 16" fill="none" xmlns="http://www.w3.org/2000/svg">
<path fill-rule="evenodd" clip-rule="evenodd" d="M9.8088 10.5555C9.77265 10.5163 9.73615 10.4766 9.69933 10.4363C9.54658 10.6792 9.38039 10.9296 9.20074 11.1874C9.4328 11.437 9.64831 11.6602 9.83444 11.8488L9.87556 11.8904L9.87751 11.8923C10.0329 12.0491 10.166 12.18 10.2688 12.2796C10.415 12.4214 10.4998 12.5 10.4998 12.5C10.4998 12.5 10.5846 12.4214 10.7309 12.2796C10.8336 12.18 10.9667 12.0491 11.1221 11.8923L11.1241 11.8904L11.1646 11.8494C11.582 11.4265 12.1479 10.8285 12.716 10.1517C13.2796 9.48027 13.846 8.73079 14.2737 7.9961C14.7083 7.24965 14.9998 6.51847 14.9998 5.9C14.9998 3.46995 12.9851 1.5 10.4998 1.5C9.35091 1.5 8.30256 1.921 7.50732 2.61382C7.84746 2.69204 8.1729 2.809 8.47881 2.95985C9.05886 2.57128 9.75692 2.34615 10.4998 2.34615C12.4551 2.34615 14.0998 3.90568 14.0998 5.9C14.0998 6.29332 13.9059 6.85783 13.5052 7.55359C13.1169 8.22801 12.588 8.93522 12.0421 9.58852C11.7521 9.93561 11.4614 10.2625 11.1908 10.5555C10.9733 10.791 10.7689 11.0046 10.5883 11.189L10.5422 11.236L10.4998 11.2789L10.4962 11.2753L10.4575 11.236L10.4113 11.189C10.2307 11.0046 10.0263 10.791 9.8088 10.5555ZM12.2998 5.73077C12.2998 6.50886 11.7413 7.1643 10.9806 7.36204C10.9934 7.24604 10.9998 7.13361 10.9998 7.02475C10.9998 6.78081 10.9806 6.54138 10.9437 6.30789C11.172 6.17372 11.2998 5.94326 11.2998 5.73077C11.2998 5.41548 11.0185 5.06064 10.5447 5.03946C10.3834 4.70785 10.183 4.39901 9.94951 4.11901C10.123 4.0667 10.3079 4.03846 10.4998 4.03846C11.4939 4.03846 12.2998 4.79613 12.2998 5.73077ZM3.9577 11.5885C4.24776 11.9356 4.53846 12.2625 4.80898 12.5555C5.02647 12.791 5.23092 13.0046 5.41149 13.189L5.45764 13.236L5.5 13.279L5.54236 13.236L5.58851 13.189C5.76908 13.0046 5.97353 12.791 6.19102 12.5555C6.46154 12.2625 6.75224 11.9356 7.0423 11.5885C7.58823 10.9352 8.11708 10.228 8.50541 9.55359C8.90604 8.85783 9.1 8.29332 9.1 7.9C9.1 5.90568 7.45528 4.34615 5.5 4.34615C3.54472 4.34615 1.9 5.90568 1.9 7.9C1.9 8.29332 2.09396 8.85783 2.49459 9.55359C2.88292 10.228 3.41177 10.9352 3.9577 11.5885ZM5.5 14.5C5.5 14.5 5.41522 14.4214 5.26894 14.2796C5.16618 14.18 5.03308 14.0491 4.87769 13.8923L4.87574 13.8904L4.83526 13.8494C4.41782 13.4265 3.85194 12.8285 3.28382 12.1517C2.72025 11.4803 2.15386 10.7308 1.7261 9.9961C1.29149 9.24965 1 8.51847 1 7.9C1 5.46995 3.01472 3.5 5.5 3.5C7.98528 3.5 10 5.46995 10 7.9C10 8.51847 9.70851 9.24965 9.2739 9.9961C8.84614 10.7308 8.27975 11.4803 7.71618 12.1517C7.14806 12.8285 6.58282 13.4259 6.16537 13.8488L6.12426 13.8904L6.12232 13.8923C5.96693 14.0491 5.83382 14.18 5.73107 14.2796C5.58478 14.4214 5.5 14.5 5.5 14.5ZM6.3 7.73077C6.3 8.0559 6.00084 8.42308 5.5 8.42308C4.99916 8.42308 4.7 8.0559 4.7 7.73077C4.7 7.40564 4.99916 7.03846 5.5 7.03846C6.00084 7.03846 6.3 7.40564 6.3 7.73077ZM5.5 9.42308C6.49411 9.42308 7.3 8.6654 7.3 7.73077C7.3 6.79613 6.49411 6.03846 5.5 6.03846C4.50589 6.03846 3.7 6.79613 3.7 7.73077C3.7 8.6654 4.50589 9.42308 5.5 9.42308Z" fill="#434343"/>
</svg>
