<svg width="16" height="16" viewBox="0 0 16 16" fill="none" xmlns="http://www.w3.org/2000/svg">
<path fill-rule="evenodd" clip-rule="evenodd" d="M11.2142 8.59104C11.2142 11.3883 9.00023 13.6559 6.26918 13.6559C3.53813 13.6559 1.32417 11.3883 1.32417 8.59104C1.32417 5.79382 3.53813 3.52622 6.26918 3.52622C9.00023 3.52622 11.2142 5.79382 11.2142 8.59104ZM12.0384 8.59104C12.0384 11.8545 9.45541 14.5 6.26918 14.5C3.08295 14.5 0.5 11.8545 0.5 8.59104C0.5 5.32761 3.08295 2.68208 6.26918 2.68208C9.45541 2.68208 12.0384 5.32761 12.0384 8.59104ZM6.68104 5.63633C6.68104 5.40323 6.49655 5.21427 6.26896 5.21427C6.04137 5.21427 5.85687 5.40323 5.85687 5.63633V8.83575L8.9491 10.6455C9.1467 10.7612 9.39842 10.6909 9.51134 10.4885C9.62425 10.2861 9.5556 10.0283 9.358 9.91263L6.68104 8.34588V5.63633Z" fill="#434343"/>
<path fill-rule="evenodd" clip-rule="evenodd" d="M12.5544 11.5675C13.8367 10.6524 14.6758 9.13106 14.6758 7.40896C14.6758 4.61174 12.4619 2.34414 9.73082 2.34414C9.67134 2.34414 9.6121 2.34521 9.55313 2.34735C9.0912 2.09192 8.59769 1.8887 8.08016 1.74541C8.60312 1.58575 9.1572 1.5 9.73082 1.5C12.9171 1.5 15.5 4.14553 15.5 7.40896C15.5 9.9541 13.929 12.1234 11.7259 12.955C12.0512 12.5289 12.33 12.0637 12.5544 11.5675Z" fill="#434343"/>
</svg>
