<svg width="16" height="16" viewBox="0 0 16 16" fill="none" xmlns="http://www.w3.org/2000/svg">
<path fill-rule="evenodd" clip-rule="evenodd" d="M14.0105 7.64572L14.364 7.99922L14.0108 8.35242C14.0105 8.35265 14.0103 8.35288 14.0101 8.35312L8.35355 14.0096C8.15829 14.2049 7.84171 14.2049 7.64645 14.0096C7.45118 13.8144 7.45118 13.4978 7.64645 13.3025L12.4497 8.49922L2.34315 8.49922C2.067 8.49922 1.84315 8.27536 1.84315 7.99922C1.84314 7.72307 2.067 7.49922 2.34314 7.49922L12.4497 7.49922L7.64645 2.69591C7.45118 2.50065 7.45118 2.18407 7.64645 1.98881C7.84171 1.79355 8.15829 1.79355 8.35355 1.98881L14.0103 7.6456C14.0104 7.64564 14.0104 7.64568 14.0105 7.64572Z" fill="#434343"/>
</svg>
