<svg width="16" height="16" viewBox="0 0 16 16" fill="none" xmlns="http://www.w3.org/2000/svg">
<path fill-rule="evenodd" clip-rule="evenodd" d="M7.99999 12C11.2364 12 13.0464 9.53483 13.7728 8.22868C13.8543 8.08209 13.8543 7.91791 13.7728 7.77132C13.0464 6.46517 11.2364 4 7.99999 4C4.76362 4 2.95362 6.46517 2.2272 7.77132C2.14568 7.91791 2.14568 8.08209 2.2272 8.22868C2.95362 9.53483 4.76362 12 7.99999 12ZM14.6467 8.71472C14.8963 8.2659 14.8963 7.73409 14.6467 7.28528C13.8782 5.9034 11.8101 3 7.99999 3C4.18987 3 2.1218 5.9034 1.35327 7.28528C1.10366 7.7341 1.10366 8.26591 1.35327 8.71472C2.1218 10.0966 4.18987 13 7.99999 13C11.8101 13 13.8782 10.0966 14.6467 8.71472Z" fill="#434343"/>
<path d="M11 8C11 9.65685 9.65685 11 7.99999 11C6.34314 11 4.99999 9.65685 4.99999 8C4.99999 6.34315 6.34314 5 7.99999 5C9.65685 5 11 6.34315 11 8Z" fill="#434343"/>
</svg>
