<svg width="16" height="16" viewBox="0 0 16 16" fill="none" xmlns="http://www.w3.org/2000/svg">
<path fill-rule="evenodd" clip-rule="evenodd" d="M0.500012 12.0001C0.500012 11.724 0.723869 11.5001 1.00001 11.5001H15C15.2762 11.5001 15.5 11.724 15.5 12.0001C15.5 12.2762 15.2762 12.5001 15 12.5001H1.00001C0.723869 12.5001 0.500012 12.2762 0.500012 12.0001Z" fill="#434343"/>
<path fill-rule="evenodd" clip-rule="evenodd" d="M15.4889 2.89534C15.5468 3.16535 15.3748 3.43114 15.1048 3.489L1.10478 6.489C0.834764 6.54686 0.568971 6.37488 0.511111 6.10487C0.453251 5.83486 0.625235 5.56906 0.895247 5.5112L14.8952 2.5112C15.1653 2.45334 15.4311 2.62533 15.4889 2.89534Z" fill="#434343"/>
<path fill-rule="evenodd" clip-rule="evenodd" d="M4.00001 8.0001C4.00001 7.72396 4.22387 7.5001 4.50001 7.5001H11.5C11.7762 7.5001 12 7.72396 12 8.0001V12.0001C12 12.2762 11.7762 12.5001 11.5 12.5001C11.2239 12.5001 11 12.2762 11 12.0001V8.5001H5.00001V12.0001C5.00001 12.2762 4.77615 12.5001 4.50001 12.5001C4.22387 12.5001 4.00001 12.2762 4.00001 12.0001V8.0001Z" fill="#434343"/>
<path fill-rule="evenodd" clip-rule="evenodd" d="M4.00001 10.0001C4.00001 9.72396 4.22387 9.5001 4.50001 9.5001H11.5C11.7762 9.5001 12 9.72396 12 10.0001C12 10.2762 11.7762 10.5001 11.5 10.5001H4.50001C4.22387 10.5001 4.00001 10.2762 4.00001 10.0001Z" fill="#434343"/>
<path fill-rule="evenodd" clip-rule="evenodd" d="M2.00001 5.28526C2.27615 5.28526 2.50001 5.50912 2.50001 5.78526V11.9996C2.50001 12.2758 2.27615 12.4996 2.00001 12.4996C1.72387 12.4996 1.50001 12.2758 1.50001 11.9996V5.78526C1.50001 5.50912 1.72387 5.28526 2.00001 5.28526Z" fill="#434343"/>
<path fill-rule="evenodd" clip-rule="evenodd" d="M14 2.71495C14.2762 2.71495 14.5 2.9388 14.5 3.21495V12.0006C14.5 12.2767 14.2762 12.5006 14 12.5006C13.7239 12.5006 13.5 12.2767 13.5 12.0006V3.21495C13.5 2.9388 13.7239 2.71495 14 2.71495Z" fill="#434343"/>
</svg>
