<svg width="23" height="23" viewBox="0 0 23 23" fill="none" xmlns="http://www.w3.org/2000/svg">
<path d="M8 1H2.16667C1.52233 1 1 1.52233 1 2.16667V8C1 8.64433 1.52233 9.16667 2.16667 9.16667H8C8.64433 9.16667 9.16667 8.64433 9.16667 8V2.16667C9.16667 1.52233 8.64433 1 8 1Z" stroke="#434F64" stroke-width="2" stroke-linecap="round" stroke-linejoin="round"/>
<path d="M20.8333 1H15C14.3557 1 13.8333 1.52233 13.8333 2.16667V8C13.8333 8.64433 14.3557 9.16667 15 9.16667H20.8333C21.4777 9.16667 22 8.64433 22 8V2.16667C22 1.52233 21.4777 1 20.8333 1Z" stroke="#434F64" stroke-width="2" stroke-linecap="round" stroke-linejoin="round"/>
<path d="M20.8333 13.8333H15C14.3557 13.8333 13.8333 14.3557 13.8333 15V20.8333C13.8333 21.4777 14.3557 22 15 22H20.8333C21.4777 22 22 21.4777 22 20.8333V15C22 14.3557 21.4777 13.8333 20.8333 13.8333Z" stroke="#434F64" stroke-width="2" stroke-linecap="round" stroke-linejoin="round"/>
<path d="M8 13.8333H2.16667C1.52233 13.8333 1 14.3557 1 15V20.8333C1 21.4777 1.52233 22 2.16667 22H8C8.64433 22 9.16667 21.4777 9.16667 20.8333V15C9.16667 14.3557 8.64433 13.8333 8 13.8333Z" stroke="#434F64" stroke-width="2" stroke-linecap="round" stroke-linejoin="round"/>
</svg>
