<svg width="20" height="22" viewBox="0 0 20 22" fill="none" xmlns="http://www.w3.org/2000/svg">
<path d="M8.2673 20.0001C8.44285 20.3041 8.69532 20.5566 8.99935 20.7321C9.30338 20.9076 9.64825 21 9.99931 21C10.3504 21 10.6952 20.9076 10.9993 20.7321C11.3033 20.5566 11.5558 20.3041 11.7313 20.0001M1.26127 14.3261C1.13064 14.4692 1.04443 14.6473 1.01313 14.8386C0.98183 15.0299 1.00679 15.2261 1.08498 15.4035C1.16317 15.5808 1.29121 15.7316 1.45353 15.8375C1.61585 15.9435 1.80546 15.9999 1.99928 16.0001H17.9993C18.1931 16.0001 18.3828 15.9439 18.5452 15.8382C18.7076 15.7325 18.8358 15.5818 18.9142 15.4046C18.9926 15.2273 19.0178 15.0311 18.9868 14.8398C18.9557 14.6486 18.8698 14.4704 18.7393 14.3271C17.4093 12.9561 15.9993 11.499 15.9993 7.00003C15.9993 5.40872 15.3672 3.88259 14.242 2.75737C13.1167 1.63215 11.5906 1 9.99931 1C8.408 1 6.88187 1.63215 5.75665 2.75737C4.63143 3.88259 3.99929 5.40872 3.99929 7.00003C3.99929 11.499 2.58828 12.9561 1.26127 14.3261Z" stroke="#434F64" stroke-width="2" stroke-linecap="round" stroke-linejoin="round"/>
</svg>
