<svg width="22" height="22" viewBox="0 0 22 22" fill="none" xmlns="http://www.w3.org/2000/svg">
<path d="M10.7441 14.3257L7.67433 11.2559M10.7441 14.3257C12.1734 13.7821 13.5446 13.0965 14.837 12.2792M10.7441 14.3257V19.4419C10.7441 19.4419 13.8445 18.8791 14.837 17.3954C15.9421 15.7377 14.837 12.2792 14.837 12.2792M7.67433 11.2559C8.21884 9.84327 8.90448 8.48915 9.72082 7.21412C10.9131 5.3078 12.5732 3.73821 14.5434 2.65464C16.5135 1.57107 18.7281 1.00955 20.9765 1.0235C20.9765 3.80672 20.1784 8.69782 14.837 12.2792M7.67433 11.2559H2.55811C2.55811 11.2559 3.12089 8.15551 4.6046 7.16296C6.26225 6.05786 9.72082 7.16296 9.72082 7.16296M3.06973 15.8605C1.53487 17.1498 1.02324 20.9767 1.02324 20.9767C1.02324 20.9767 4.85018 20.4651 6.13946 18.9303C6.86597 18.0707 6.85573 16.7508 6.04737 15.9526C5.64964 15.573 5.12573 15.3537 4.57618 15.3367C4.02663 15.3197 3.49016 15.5062 3.06973 15.8605Z" stroke="#434F64" stroke-width="2" stroke-linecap="round" stroke-linejoin="round"/>
</svg>
