<svg width="191" height="28" viewBox="0 0 191 28" fill="none" xmlns="http://www.w3.org/2000/svg">
<path d="M0 15.7614L2.79299 18.8128L16.3478 4.00397L13.5548 0.952578L0 15.7614Z" fill="#FFBE07"/>
<path d="M6.48266 14.8089L9.27565 17.8602L22.8305 3.05139L20.0375 0L6.48266 14.8089Z" fill="#211F1F"/>
<path d="M8.41371 24.9486L11.2067 28L24.7615 13.1911L21.9685 10.1398L8.41371 24.9486Z" fill="#211F1F"/>
<path d="M7.43886 19.8689L10.2319 22.9203L23.7867 8.11147L20.9937 5.06007L7.43886 19.8689Z" fill="#FFBE07"/>
<path d="M14.8899 23.9777L17.6797 27.0256L31.242 12.2085L28.4246 9.16061L14.8899 23.9777Z" fill="#FFBE07"/>
<path d="M46.7788 9.64542V12.3902H52.1139V15.7885H46.7788V21.8662H43.2421V6.24713H52.9532V9.64542H46.7788Z" fill="#211F1F"/>
<path d="M62.8437 21.8664L60.326 16.0501H59.1271V21.8664H55.5903V6.24729H61.2851C62.7837 6.24729 63.9826 6.7701 64.8818 7.75038C65.721 8.73066 66.2006 9.90699 66.2006 11.2794C66.2006 12.2597 65.9608 13.1092 65.5412 13.7628C65.0617 14.4816 64.5221 15.0044 63.8627 15.3312L66.9799 21.8664H62.8437ZM61.1053 9.71094H59.1271V12.8478H61.1053C61.5848 12.8478 61.9445 12.7171 62.2442 12.3904C62.544 12.0636 62.6638 11.7368 62.6638 11.2794C62.6638 10.8873 62.544 10.4952 62.2442 10.1684C61.9445 9.84164 61.5848 9.71094 61.1053 9.71094Z" fill="#211F1F"/>
<path d="M69.138 21.8664V6.24729H78.8491V9.64559H72.6148V12.2597H77.9499V15.658H72.6148V18.4027H78.8491V21.801H69.138V21.8664Z" fill="#211F1F"/>
<path d="M81.7268 21.8664V6.24729H85.2635V21.8664H81.7268Z" fill="#211F1F"/>
<path d="M97.6722 20.2329C97.1327 20.8864 96.4733 21.3439 95.8139 21.6053C95.1545 21.8667 94.3752 21.9974 93.536 21.9974C91.9774 21.9974 90.7186 21.5399 89.8793 20.5597C88.9801 19.5794 88.5006 18.6645 88.3807 17.8149C88.2608 16.9 88.1409 15.6583 88.1409 14.0898C88.1409 12.456 88.2009 11.149 88.3807 10.2994C88.5006 9.44985 88.9202 8.66563 89.5196 8.01211C90.1191 7.35859 90.7186 6.90113 91.3779 6.57437C92.0373 6.24761 92.7567 6.1169 93.5959 6.1169C95.2744 6.1169 96.5932 6.63972 97.5523 7.62C98.4515 8.60027 99.0509 9.84196 99.2308 11.2797H95.694C95.5741 10.6915 95.3343 10.2341 95.0346 9.97266C94.7349 9.71126 94.2553 9.58055 93.6559 9.58055C93.3561 9.58055 93.0564 9.64591 92.8166 9.77661C92.5769 9.90731 92.397 10.1034 92.2172 10.2994C92.0373 10.5608 91.9175 10.8876 91.8575 11.4104C91.7976 11.8679 91.7376 12.7828 91.7376 14.0898C91.7376 15.3969 91.7976 16.3118 91.8575 16.8346C91.9175 17.3574 92.0973 17.7495 92.3371 18.0763C92.5769 18.4031 92.9965 18.5991 93.6559 18.5991C94.3752 18.5991 94.8548 18.4684 95.0945 18.1417C95.3343 17.8149 95.5142 17.5535 95.634 17.2267C95.7539 16.9 95.7539 16.6386 95.7539 16.3118V16.0504H93.6559V12.8481H99.2907V15.0048C99.2907 16.3118 99.1708 17.3574 98.991 18.1417C98.6313 18.9259 98.2716 19.6447 97.6722 20.2329Z" fill="#211F1F"/>
<path d="M109.242 21.8664V15.658H105.525V21.8664H101.988V6.24729H105.525V12.2597H109.242V6.24729H112.779V21.8664H109.242Z" fill="#211F1F"/>
<path d="M122.25 9.64559V21.8664H118.713V9.64559H115.176V6.24729H125.727V9.64559H122.25Z" fill="#211F1F"/>
<path d="M140.907 9.53155V21.7523H137.371V9.53155H133.834V6.13325H144.384V9.53155H140.907Z" fill="#211F1F"/>
<path d="M146.063 21.7522V6.13309H149.599V21.7522H146.063Z" fill="#211F1F"/>
<path d="M162.008 20.1186C161.469 20.7721 160.809 21.2296 160.15 21.491C159.49 21.7524 158.711 21.8831 157.872 21.8831C156.313 21.8831 155.054 21.4256 154.215 20.4454C153.316 19.4651 152.836 18.5502 152.717 17.7006C152.597 16.7857 152.477 15.544 152.477 13.9755C152.477 12.3417 152.537 11.0347 152.717 10.1851C152.836 9.33554 153.256 8.55132 153.855 7.8978C154.455 7.24428 155.054 6.78682 155.714 6.46006C156.373 6.1333 157.093 6.00259 157.932 6.00259C159.61 6.00259 160.929 6.52541 161.888 7.50569C162.787 8.48597 163.387 9.72765 163.567 11.1654H160.03C159.91 10.5772 159.67 10.1198 159.37 9.85836C159.071 9.59695 158.591 9.46624 157.992 9.46624C157.692 9.46624 157.392 9.5316 157.152 9.6623C156.913 9.793 156.733 9.98906 156.553 10.1851C156.373 10.4465 156.253 10.7733 156.193 11.2961C156.133 11.7536 156.073 12.6685 156.073 13.9755C156.073 15.2826 156.133 16.1975 156.193 16.7203C156.253 17.2431 156.433 17.6352 156.673 17.962C156.913 18.2887 157.332 18.4848 157.992 18.4848C158.711 18.4848 159.191 18.3541 159.43 18.0273C159.67 17.7006 159.85 17.4392 159.97 17.1124C160.03 16.851 160.09 16.5242 160.09 16.1975V16.0014H157.992V12.7992H163.627V14.9558C163.627 16.2628 163.507 17.3085 163.327 18.0927C163.147 18.8769 162.548 19.4651 162.008 20.1186Z" fill="#211F1F"/>
<path d="M166.264 21.7522V6.13309H175.975V9.53139H169.741V12.1455H175.076V15.5438H169.741V18.2885H175.975V21.6868H166.264V21.7522Z" fill="#211F1F"/>
<path d="M186.106 21.7522L183.588 15.9359H182.389V21.7522H178.853V6.13309H184.547C186.046 6.13309 187.245 6.6559 188.144 7.63618C188.983 8.61646 189.463 9.79279 189.463 11.1652C189.463 12.1455 189.223 12.995 188.803 13.6486C188.324 14.3674 187.784 14.8902 187.125 15.217L190.242 21.7522H186.106ZM184.427 9.53139H182.449V12.6683H184.427C184.907 12.6683 185.267 12.5376 185.566 12.2108C185.866 11.8841 185.986 11.5573 185.986 11.0998C185.986 10.6424 185.866 10.3156 185.566 9.98885C185.267 9.72744 184.847 9.53139 184.427 9.53139Z" fill="#211F1F"/>
</svg>
