<svg xmlns="http://www.w3.org/2000/svg" width="69" height="22" viewBox="0 0 69 22" fill="none">
  <svg x="0" y="1.184" width="20.431" height="20.715" viewBox="0 0 20.4275 20.7152">
    <path id="Vector" d="M3.52167 0.0206228C3.75184 -0.00204202 4.0118 -0.0016357 4.24426 0.00162326C4.96283 0.0117044 5.693 -0.0157009 6.41027 0.0162844C6.5337 0.00918305 6.74888 0.00288601 6.87092 0.0102603C7.93049 0.00116484 8.99012 0.00113358 10.0497 0.0101666C10.5103 0.0125649 11.2318 -0.00677209 11.664 0.0228336C12.027 0.0157197 12.3937 0.0185536 12.7574 0.0154968C13.0479 0.0130588 13.3776 -0.00628867 13.6631 0.0116085C13.6893 0.0461443 13.6976 0.0524247 13.7075 0.0935222C14.4137 0.752807 15.0472 1.42812 15.7243 2.11229L17.3524 3.75462C17.5986 4.00196 17.8175 4.18798 18.0336 4.47268C18.187 4.63788 18.3921 4.78778 18.5453 4.95012C18.9482 5.37731 19.3724 5.77216 19.7647 6.21001C19.9684 6.43743 20.2785 6.61334 20.4024 6.91113C20.4298 7.11481 20.4142 7.3409 20.4161 7.54758C20.4213 8.11254 20.3767 8.66876 20.3612 9.23361L20.3364 10.2573C20.3343 10.354 20.3339 10.6635 20.3201 10.7467C20.305 11.6497 20.3953 12.5358 20.3641 13.4366C20.3606 13.5375 20.3619 13.8975 20.3424 13.9745C20.4026 14.0686 20.3854 14.0936 20.3666 14.2139C20.4441 14.403 20.4488 16.9568 20.3741 17.1716C20.4059 17.5152 20.4474 20.4824 20.3767 20.6704L20.3562 20.6869C20.3265 20.6748 20.2932 20.6625 20.2653 20.6475C19.9841 20.7167 18.927 20.6946 18.5855 20.6946L15.1647 20.6938C14.6432 20.6938 13.7952 20.6686 13.3089 20.7152C13.1904 20.7019 13.086 20.7127 12.9745 20.6715C12.365 20.6884 11.7718 20.7044 11.1604 20.6931C10.8475 20.6875 10.5202 20.7023 10.2093 20.6796C10.0968 20.7079 6.71847 20.7025 6.62641 20.6734C6.33099 20.6998 5.90137 20.6911 5.59829 20.6923L3.80091 20.6942L1.49454 20.6944C1.01642 20.6946 0.495839 20.7044 0.021854 20.6829C-0.000756993 20.4745 0.0110616 20.0886 0.0118058 19.8669L0.0141919 18.4585C0.00854281 16.9649 0.0114659 15.4712 0.0229631 13.9776C-0.00327368 13.4332 0.0240245 12.7369 0.0177763 12.1731C0.0131492 11.7557 -0.00285907 10.9855 0.034533 10.5952C0.00824846 10.4492 0.00555758 9.52023 0.0132736 9.32365C0.0329719 8.82179 -0.0228373 7.93924 0.038138 7.4773C0.0248828 7.44867 0.014165 7.31733 0.00976594 7.27713C0.00299736 6.54062 -0.0222796 0.17857 0.0504355 0.0148112C1.02917 -0.00604071 2.0167 0.0245068 2.99641 0.0107292C3.16752 0.00832247 3.35105 0.010998 3.52167 0.0206228Z" fill="#E10610"/>
  </svg>
  <svg x="5.327" y="7.99" width="15.104" height="13.908" viewBox="0 0 15.0986 13.9088">
    <path id="Vector" d="M15.0737 0C15.1008 0.20523 15.0854 0.433029 15.0873 0.641282C15.0924 1.21053 15.0482 1.77096 15.0329 2.3401L15.0083 3.37156C15.0062 3.469 15.0058 3.78087 14.9922 3.86468C14.9772 4.77449 15.0667 5.66732 15.0358 6.57497C15.0323 6.67663 15.0336 7.03937 15.0143 7.11695C15.0739 7.21178 15.0569 7.23691 15.0382 7.3582C15.115 7.54874 15.1197 10.1219 15.0456 10.3383C15.0772 10.6845 15.1183 13.6742 15.0482 13.8637L15.0279 13.8802C14.9985 13.8681 14.9656 13.8557 14.9378 13.8406C14.6592 13.9103 13.6117 13.888 13.2733 13.888L9.88359 13.8872C9.36686 13.8872 8.52656 13.8618 8.04468 13.9088C7.92724 13.8954 7.82383 13.9063 7.71329 13.8647C7.10941 13.8817 6.52155 13.8979 5.91571 13.8865C5.60569 13.8809 5.28129 13.8958 4.97325 13.8729C4.86173 13.9015 1.51415 13.896 1.42292 13.8666C1.38172 13.7937 1.21849 13.6274 1.15818 13.5555C0.788208 13.1143 0.349918 12.7732 0 12.3156C1.01721 11.2222 2.10978 10.1626 3.1333 9.06798C2.64125 8.57797 2.1577 8.07024 1.67077 7.57435C1.59879 7.50104 1.53022 7.40225 1.47408 7.31525C2.10238 7.30372 2.66954 7.26599 3.29207 7.23658C4.36954 7.18898 5.44673 7.1354 6.52362 7.07586C7.11832 7.04439 7.75557 6.99904 8.34751 6.98745C7.83147 6.49401 7.20959 5.86012 6.74396 5.31617C7.51148 4.55688 8.25097 3.73201 9.01931 2.96746C9.31668 2.67158 9.59211 2.3502 9.90144 2.06309C9.72067 1.927 9.37958 1.54385 9.21278 1.37087C8.89084 1.03702 8.50491 0.696773 8.23324 0.326499C10.0154 0.294019 11.8159 0.144448 13.5982 0.0652953C14.0809 0.043859 14.5986 0.0514806 15.0737 0Z" fill="#E10610"/>
  </svg>
  <svg x="13.324" y="13.614" width="7.107" height="8.285" viewBox="0 0 7.10522 8.28609">
    <path id="Vector" d="M5.11098 0C5.47356 0.435087 5.88621 0.7876 6.27185 1.19915C6.43812 1.37658 6.58869 1.5169 6.78038 1.66799L6.81181 1.58967C6.87752 1.64948 6.93242 1.65489 7.02032 1.67574C7.08037 1.76804 7.0632 1.7925 7.04444 1.91055C7.12174 2.09599 7.12649 4.60038 7.0519 4.81101C7.08367 5.148 7.12505 8.0578 7.05451 8.24216L7.03407 8.2583C7.00445 8.24645 6.97125 8.2344 6.94332 8.21968C6.66281 8.28753 5.60795 8.26587 5.2672 8.26587L1.85387 8.26505C1.33354 8.26505 0.487384 8.24032 0.00214377 8.28609C-0.0311392 8.22827 0.334601 2.35009 0.303697 1.56703C0.781138 2.01656 1.4771 2.7959 1.94375 3.16895C2.09148 3.05802 2.68673 2.43352 2.83767 2.28145C3.33151 1.78387 3.83473 1.2807 4.33373 0.786578C4.58965 0.533131 4.8441 0.233135 5.11098 0Z" fill="#FECD00"/>
  </svg>
  <svg x="18.947" y="18.643" width="1.484" height="3.256" viewBox="0 0 1.48025 3.25525">
    <path id="Vector" d="M1.44637 0C1.47243 0.31821 1.50636 3.06592 1.44851 3.24001L1.43175 3.25525C1.40746 3.24406 1.38023 3.23267 1.35733 3.21878C1.3176 3.16437 1.27314 3.11725 1.23074 3.06592C0.829135 2.57964 0.401115 2.11777 0 1.63182L0.903591 0.590051C1.03382 0.440237 1.30839 0.10937 1.44637 0Z" fill="#E10610"/>
  </svg>
  <svg x="20.134" y="15.092" width="0.297" height="0.297" viewBox="0 0 0.296051 0.295932">
    <path id="Vector" d="M0.0330329 0C0.102122 0.0551612 0.159839 0.0601548 0.25224 0.0793774C0.315371 0.164503 0.297322 0.187061 0.277597 0.295932C0.158556 0.21335 0.104819 0.168422 0 0.0722343L0.0330329 0Z" fill="#E10610"/>
  </svg>
  <svg x="10.364" y="20.42" width="2.663" height="1.478" viewBox="0 0 2.66446 1.47966">
    <path id="Vector" d="M0 1.46239C0.372127 0.976905 0.932964 0.466517 1.3441 0C1.6295 0.361495 2.01551 0.714047 2.32463 1.06117C2.41304 1.16043 2.5976 1.34653 2.66446 1.45428C2.07723 1.47113 1.50559 1.48714 0.916464 1.47591C0.614991 1.4703 0.299535 1.48507 0 1.46239Z" fill="#FECD00"/>
  </svg>
  <svg x="20.431" y="12.133" width="0" height="3.256" viewBox="0 0 0 3.25525">
    <path id="Vector" d="M0 3.16752C0 3.09442 0 2.87523 0 2.78772V2.04461C0 1.33466 0 0.707012 0 0V0.0285993C0 0.931247 0 1.81704 0 2.71754C0 2.8184 0 3.17828 0 3.25525C0 3.234 0 3.22849 0 3.16752Z" fill="#FECD00"/>
  </svg>
  <svg x="0" y="1.184" width="20.431" height="20.715" viewBox="0 0 20.4275 20.7152">
    <path id="Vector" d="M13.384 7.05466C13.3745 6.45514 13.4221 5.87529 13.4543 5.27766L13.573 2.8582L13.6677 0.796588C13.6756 0.638623 13.6838 0.109659 13.7218 0C14.429 0.662867 15.0636 1.34185 15.7418 2.02973L17.3725 3.68099C17.6192 3.92968 17.8384 4.1167 18.0548 4.40295C18.2085 4.56905 18.4139 4.71977 18.5673 4.88299C18.971 5.3125 19.3958 5.70949 19.7888 6.14973C19.9928 6.37838 20.3034 6.55524 20.4275 6.85465C19.9473 6.90602 19.424 6.89841 18.936 6.9198C17.1345 6.99879 15.3145 7.14804 13.5131 7.18045C13.7877 7.54993 14.1778 7.88946 14.5032 8.22259C14.6718 8.39521 15.0166 8.77753 15.1993 8.91333C14.8866 9.19983 14.6082 9.52052 14.3076 9.81578C13.531 10.5787 12.7835 11.4018 12.0077 12.1595C12.4784 12.7023 13.107 13.3348 13.6286 13.8272C13.0302 13.8387 12.3861 13.884 11.785 13.9154C10.6964 13.9748 9.60759 14.0283 8.51847 14.0758C7.8892 14.1051 7.31592 14.1428 6.68082 14.1543C6.73757 14.2411 6.80688 14.3397 6.87964 14.4128C7.37184 14.9077 7.86061 15.4143 8.35798 15.9033C7.32339 16.9955 6.21902 18.0528 5.1908 19.144C5.5445 19.6006 5.98753 19.941 6.3615 20.3812C6.42246 20.4529 6.58746 20.619 6.62911 20.6917C6.33322 20.7183 5.9029 20.7095 5.59932 20.7107L3.79902 20.7126L1.4889 20.7128C1.01 20.713 0.488573 20.7229 0.013817 20.7013C-0.00883076 20.4917 0.00300707 20.1037 0.00375251 19.8808L0.00614248 18.4648C0.000484167 16.963 0.00341198 15.4613 0.014928 13.9595L0.0256528 13.9372L0.0611891 13.9322C0.213353 14.0356 0.344622 14.2301 0.482782 14.3536C0.87711 14.7062 1.26537 15.2326 1.67102 15.5568C1.91745 15.3543 2.08087 15.1111 2.30122 14.8952C2.95248 14.257 3.5686 13.5811 4.22453 12.9479C4.43778 12.7421 4.622 12.5327 4.81696 12.3111C5.06455 12.5954 5.47924 12.9617 5.75046 13.2462C5.95875 13.4647 6.31879 13.8538 6.53542 14.0308C6.5298 12.9483 6.63028 11.9326 6.70015 10.8555C6.78088 9.5448 6.83674 8.23263 6.86765 6.91974C6.92349 6.97038 6.98163 7.03204 7.0339 7.08714C7.51202 7.59127 8.02396 8.07035 8.49829 8.57733C8.62728 8.42238 8.76071 8.27451 8.9049 8.13387C9.29961 7.74884 9.69131 7.35463 10.075 6.95823L11.0002 5.99928C11.1715 5.82034 11.494 5.44748 11.6796 5.33376C12.0349 5.67255 12.3769 6.07082 12.7338 6.41569C12.9435 6.61835 13.1378 6.89586 13.384 7.05466Z" fill="#FECD00"/>
  </svg>
  <svg x="0" y="1.184" width="20.431" height="20.715" viewBox="0 0 8.28942 7.10237">
    <path id="Vector" d="M3.47736 0.020127C3.70464 -0.00199293 3.96133 -0.00159638 4.19086 0.00158424C4.90039 0.011423 5.62138 -0.0153235 6.32962 0.0158929C6.45149 0.00896229 6.66397 0.00281663 6.78448 0.0100137C6.73095 0.0201453 6.69869 0.0143759 6.67597 0.056334C6.64 0.122753 6.64379 0.266551 6.64131 0.344316L6.67034 0.356046C6.9206 0.692258 7.50506 1.19589 7.80977 1.5154C7.94733 1.65963 8.16093 1.9149 8.28942 2.03898C8.02458 2.27016 7.82721 2.48979 7.58372 2.74011L6.69314 3.64108C6.43432 3.90212 6.17198 4.1528 5.91995 4.42395C5.72192 4.63701 5.32272 4.94247 5.1883 5.19132C5.30088 5.34584 5.57221 5.57428 5.71355 5.72469C6.04793 6.08047 6.44091 6.43624 6.77398 6.78818C6.25322 6.79432 5.70131 6.8461 5.17845 6.87475L1.87401 7.03293C1.27904 7.05878 0.596251 7.10557 0.00964307 7.10219C0.00295964 6.38338 -0.0219993 0.174277 0.0498009 0.0144552C1.01623 -0.00589549 1.99133 0.0239177 2.95871 0.0104713C3.12767 0.0081224 3.30889 0.0107336 3.47736 0.020127Z" fill="#FECD00"/>
  </svg>
  <svg x="0" y="1.184" width="8.287" height="7.102" viewBox="0 0 3.55261 1.77559">
    <path id="Vector" d="M0 0.00749316C1.00168 -0.0132476 2.01236 0.0171371 3.01504 0.00343288C3.19016 0.00103899 3.378 0.00370025 3.55261 0.0132737C3.43774 0.164642 3.22331 0.354814 3.08864 0.497921C2.71171 0.898444 2.16512 1.35566 1.82226 1.77559C1.37825 1.40432 0.998489 0.982212 0.580836 0.58361C0.382555 0.394372 0.20793 0.188751 0 0.00749316Z" fill="#E10610"/>
  </svg>
  <svg x="0" y="1.184" width="3.554" height="1.775" viewBox="0 0 0.296051 0.295932">
    <path id="Vector" d="M0 0.00797976C0.0793252 0.00190316 0.217618 -0.00348519 0.296051 0.002825C0.261211 0.0117081 0.240214 0.00664963 0.225426 0.0434373C0.202017 0.101671 0.204482 0.22775 0.20287 0.295932C0.187908 0.28472 0.173053 0.27322 0.158331 0.261434C0.0677476 0.188579 0.0249807 0.142396 0 0.00797976Z" fill="#FE6111"/>
  </svg>
  <svg x="6.514" y="1.184" width="0.297" height="0.297" viewBox="0 0 1.48025 3.25525">
    <path id="Vector" d="M0.0279114 0C0.469059 0.373077 1.05817 1.18415 1.48025 1.59586C1.06777 2.11281 0.631554 2.58006 0.202565 3.07895C0.153807 3.13564 0.0794967 3.20397 0.0244973 3.25525C-0.000395194 3.10281 -0.00294356 2.13291 0.00436378 1.92767C0.0230189 1.4037 -0.0298347 0.482288 0.0279114 0Z" fill="#FECD00"/>
  </svg>
  <svg x="0" y="8.582" width="1.484" height="3.256" viewBox="0 0 5.32892 0.295932">
    <path id="Vector" d="M0.153102 0.00560513C1.27195 -0.00184269 2.39086 -0.00186829 3.5097 0.00552834C3.99611 0.00749225 4.75797 -0.00834183 5.21434 0.0159007C5.25637 0.0368672 5.27905 0.0475074 5.32892 0.0525017C4.88408 0.0900922 4.43598 0.0776604 3.98998 0.0979769C3.4721 0.121568 2.95697 0.174967 2.43917 0.201337C2.17541 0.21477 0.0884595 0.269391 0.0310407 0.295932L0 0.28609C0.00264875 0.220845 -0.00140114 0.100195 0.0370605 0.0444686C0.0613589 0.00926506 0.0958583 0.0141057 0.153102 0.00560513Z" fill="#FECD00"/>
  </svg>
  <svg x="6.81" y="1.184" width="5.327" height="0.297" viewBox="0 0 2.07236 2.07152">
    <path id="Vector" d="M0.0346226 2.0697C0.00885103 1.44971 0.052986 0.819355 0.000452496 0.192267C-0.0183859 -0.0326451 0.556492 -0.162054 0.696185 0.397379C0.757989 0.64482 0.916936 1.22539 0.997578 1.46089C1.16906 1.0119 1.32484 0.54653 1.50423 0.106625C1.57252 -0.0608114 1.96053 0.0635346 2.0634 0.107641C2.07131 0.49958 2.07129 0.891677 2.0634 1.28362C2.06106 1.46983 2.04542 1.88241 2.07236 2.05151C1.94671 2.05934 1.82094 2.06461 1.69513 2.06729C1.66629 1.59762 1.65843 1.27049 1.66368 0.801648C1.66011 0.76562 1.65145 0.732394 1.64353 0.697291L1.62408 0.699892L1.59977 0.78847C1.52024 1.10256 1.29947 1.7281 1.18838 2.0354C1.04698 2.06927 0.995656 2.09961 0.867234 2.02171C0.761098 1.85924 0.660647 1.41484 0.589553 1.20695C0.50891 0.971156 0.465528 0.870561 0.350676 0.652504C0.365314 0.845252 0.411826 1.88168 0.380587 2.03381C0.300777 2.08083 0.130756 2.07122 0.0346226 2.0697Z" fill="#E10610"/>
  </svg>
  <svg x="18.057" y="1.481" width="2.077" height="2.07" viewBox="0 0 2.07236 2.07152">
    <path id="Vector" d="M0.114041 0.0124394C0.66748 0.00367352 1.24526 -0.00878568 1.79827 0.00916059C1.92168 0.0131671 1.99262 0.0180923 2.0642 0.0858824C2.07442 0.156429 2.08317 0.13093 2.03718 0.183698C1.85839 0.262032 1.48074 0.228092 1.26316 0.221142C1.30933 0.587558 1.29068 1.11321 1.28928 1.493C1.2839 1.68216 1.29182 1.86729 1.29857 2.05617C1.13128 2.0567 0.937993 2.06637 0.7687 2.07152C0.717189 1.65651 0.751911 0.673306 0.757173 0.223816C0.579987 0.227168 0.138438 0.271585 0.0224304 0.168787C-0.00565629 0.0949637 -0.00668674 0.123651 0.0155366 0.055988L0.114041 0.0124394Z" fill="#E10610"/>
  </svg>
  <svg x="15.987" y="1.481" width="2.07" height="2.07" viewBox="0 0 0 0.295932">
    <path id="Vector" d="M0 0.258562V0.00737467V0C0 0.0995435 0 0.193767 0 0.295932V0.258562Z" fill="#E10610" fill-opacity="0.298039"/>
  </svg>
  <svg x="19.541" y="2.072" width="0" height="0.295" viewBox="0 0 45.0199 16.3837">
    <path id="Vector" d="M7.63192 0.0139886C9.52593 0.106219 10.6887 0.761657 11.5597 2.50186C11.9164 1.93115 12.998 0.755574 13.6077 0.486843C16.521 -0.796889 19.9426 0.582818 20.1757 3.99253C20.1872 4.16107 20.1999 5.03936 20.2417 5.12457C20.3841 4.90827 20.5731 4.09646 20.7331 3.76874C21.5458 2.10345 22.4023 0.974211 24.19 0.339836C25.7583 -0.217291 27.6205 -0.0300195 29.1315 0.628701C29.7047 0.878237 29.8299 1.11092 30.2474 1.45081C31.5707 2.52901 31.8933 3.69149 32.4873 5.26221C32.6445 4.38252 32.9275 3.69898 33.2965 2.91151C34.8321 -0.365705 40.4956 -0.914873 42.991 1.46017C44.1657 2.5777 44.4737 3.58896 44.944 5.06465C44.2082 5.11287 43.3481 5.34227 42.6147 5.46025C42.369 5.49958 41.3808 5.78797 41.2775 5.58197C41.0453 5.11848 40.9622 4.61847 40.6568 4.17043C39.8359 2.96535 37.6348 3.1161 36.7876 4.1929C35.8051 5.44152 35.7546 7.29502 35.8287 8.81143C35.9131 10.7684 36.6771 13.084 39.0618 12.8897C40.927 12.7375 40.9069 11.4777 41.4654 10.1055C41.5803 9.82316 42.9904 10.2707 43.21 10.3147C43.7932 10.4397 44.4102 10.5605 45.0199 10.6083C44.4629 17.2025 35.6989 18.4535 32.9328 12.7811C32.7775 12.4627 32.7543 12.1294 32.6602 11.9313L32.5998 11.9201C32.5139 11.9927 32.4855 12.1135 32.4446 12.224C31.1043 16.1103 26.8893 17.3458 23.3363 15.614C21.518 14.7277 20.8056 12.9154 20.1931 11.127C20.1887 11.8096 20.3542 15.6463 20.1574 15.974C20.1617 15.9717 20.0458 16.0363 20.0457 16.0363C18.9623 15.9928 17.8633 15.996 16.7834 16.0302C16.6958 16.033 16.6618 15.806 16.6569 15.739C16.5828 14.7413 16.601 13.7296 16.6008 12.7286C16.6112 10.8723 16.6019 9.01556 16.573 7.15972C16.556 6.35306 16.518 4.66295 16.2213 3.93915C15.476 3.29822 14.76 3.00468 13.7858 3.41105C13.5141 3.53418 12.906 3.92932 12.7822 4.19431C11.3669 7.22339 12.128 11.009 11.9042 14.2703C11.8734 14.7198 11.9334 15.6032 11.7989 15.9445C11.6397 16.0499 8.86554 16.0176 8.43867 16.0288C8.36022 15.1257 8.38312 13.9908 8.38223 13.069L8.37835 8.45984C8.37488 7.14755 8.39357 5.64939 8.07981 4.39281C7.62784 2.57911 4.87697 3.12172 4.2607 4.44759C3.52996 6.01972 3.68138 8.1808 3.67979 9.88823L3.66888 16.0232C2.57793 15.9595 1.17303 16.0045 0.0668277 16.0148C-0.0984337 11.0465 0.103706 5.9832 0.0337472 1.00558C0.0316115 0.853889 0.0263284 0.66381 0.0631651 0.519144L0.154852 0.467177C0.489754 0.447046 3.02165 1.3642 3.30669 1.57628C3.47146 1.82114 3.38926 2.18304 3.35601 2.47799C4.61942 0.824397 5.56335 0.164272 7.63192 0.0139886ZM30.0109 11.1659C30.4735 11.2516 32.1895 11.5737 32.5746 11.5943C32.3118 10.8424 32.1314 10.2309 32.1692 9.421C30.6372 9.34469 29.0824 9.36014 27.5464 9.36388C26.5964 9.36622 25.4362 9.32268 24.5078 9.37886C24.2405 9.39337 23.9094 9.421 23.6472 9.40414C23.7615 9.89666 23.8042 10.3901 23.9183 10.8765C24.1059 11.6762 24.5626 12.3649 25.2569 12.812C26.283 13.4735 27.7981 13.3185 28.437 12.1935C28.658 11.8134 28.8171 11.4075 29.0112 11.0198C29.173 11.0465 29.9293 11.142 30.0109 11.1659ZM23.7191 6.86103C24.7728 6.85307 25.828 6.88303 26.8849 6.87554C27.5832 6.87367 28.6098 6.81655 29.2588 6.83902C28.9919 5.10912 28.2941 3 26.0893 3.23549C24.0783 3.75516 23.9381 5.09555 23.7191 6.86103Z" fill="#E10610"/>
  </svg>
  <svg x="23.978" y="5.617" width="45.023" height="16.383" viewBox="0 0 2.81935 4.5634">
    <path id="Vector" d="M0.849074 0.0765806C0.978716 0.0424039 1.14241 -0.00394549 1.27659 0.00026807C1.62023 0.0100997 2.24774 0.390254 2.52862 0.167404L2.7006 0.141189C2.8538 0.256359 2.82336 1.51622 2.80046 1.76856C2.7013 2.86175 3.1566 4.40812 1.61128 4.557C1.09801 4.60616 -0.172657 4.38003 0.198286 3.60895C0.337389 3.51672 0.273738 3.53076 0.436166 3.55464C0.538971 3.65904 0.568525 3.73114 0.634143 3.85848C1.19332 4.1862 1.54412 4.28124 2.0989 3.84257C2.25224 3.53685 2.30249 3.25361 2.3787 2.92074C2.22938 2.96755 1.86987 3.06962 1.74177 3.12626L1.38436 3.25782C-0.137672 3.30838 -0.533109 0.840172 0.849074 0.0765806ZM1.07014 2.78121C1.40277 2.90107 1.5016 2.85753 1.82715 2.74517C1.91127 2.65154 2.01721 2.52934 2.08709 2.41698C2.4675 1.80555 2.41631 0.465163 1.46783 0.449714C1.10728 0.444095 0.90495 0.671157 0.670253 0.915075C0.442536 1.76247 0.509511 2.12015 1.07014 2.78121Z" fill="#E10610"/>
  </svg>
  <svg x="43.912" y="1.188" width="2.822" height="4.563" viewBox="0 0 0.757013 0.512648">
    <path id="Vector" d="M0 0.0360446C0.33263 0.155897 0.431455 0.112362 0.757013 0C0.590791 0.247664 0.411643 0.142324 0.416046 0.262645C0.526345 0.336148 0.544096 0.345513 0.671631 0.381094L0.314223 0.512648C0.15231 0.450381 0.102758 0.408714 0.0477252 0.25609L0.077045 0.265451C0.0659917 0.107676 0.0403728 0.243914 0 0.0360446Z" fill="#E10610"/>
  </svg>
  <svg x="44.981" y="3.934" width="0.759" height="0.513" viewBox="0 0 3.06362 3.315">
    <path id="Vector" d="M1.18017 0.0243288C3.45978 -0.316502 3.71269 3.03234 1.70558 3.27907C1.27876 3.41203 0.748478 3.14517 0.356132 2.97991C-0.00858169 2.31042 -0.146795 1.44102 0.199512 0.726589C0.412101 0.288379 0.746417 0.16244 1.18017 0.0243288ZM0.734709 0.804776C0.415333 1.72708 0.408728 2.71211 1.58572 2.90687C1.93807 2.77859 2.07062 2.6344 2.28316 2.32072C2.35613 1.58616 2.48615 0.361414 1.37271 0.433981C1.0997 0.554301 0.97835 0.639979 0.734709 0.804776Z" fill="#E10610"/>
  </svg>
  <svg x="52.061" y="1.197" width="3.064" height="3.315" viewBox="0 0 2.9223 3.31559">
    <path id="Vector" d="M0.890083 0.0119572C1.55572 -0.015665 1.88512 -0.0194097 2.5012 0.276008C2.96535 1.25683 2.67435 1.55787 2.7507 2.56023C2.75487 2.61547 2.89055 2.946 2.9223 3.03261C2.65576 3.46895 2.34997 3.01435 2.15728 3.02372C1.53783 3.05321 0.613938 3.72973 0.11621 2.91651C-0.143591 2.262 0.0263776 1.7428 0.685082 1.46423C1.17386 1.25777 1.79051 1.3809 2.22093 1.07331C2.27006 1.0382 2.24829 0.963756 2.24463 0.909448C2.04708 0.61169 1.75323 0.437529 1.39362 0.435188C0.929987 0.431443 0.645692 0.830324 0.237328 0.964689L0.163795 0.891657C0.193395 0.357939 0.459565 0.212336 0.890083 0.0119572ZM0.811914 2.79853C1.56251 3.06211 2.51375 2.30086 2.22023 1.7559L2.17236 1.74794C1.73763 1.81021 0.906663 1.84532 0.599278 2.18756C0.424672 2.38185 0.640165 2.6665 0.811914 2.79853Z" fill="#E10610"/>
  </svg>
  <svg x="29.339" y="1.208" width="2.926" height="3.315" viewBox="0 0 2.93581 3.31818">
    <path id="Vector" d="M1.38678 0.00943956C1.48443 0.00194879 1.58527 -0.00461067 1.68292 0.00428462C2.04333 0.0361204 2.37619 0.210285 2.60756 0.48838C2.95228 0.910205 2.96375 1.22528 2.91448 1.7164C2.07719 1.95517 1.28261 1.87651 0.403921 1.87979C0.796408 2.75247 1.46307 3.2389 2.25629 2.47859C2.39989 2.38074 2.43713 2.34843 2.60625 2.29927C2.75973 2.33298 2.71374 2.29974 2.78929 2.41351C2.79753 2.84236 2.20117 3.27776 1.81491 3.31006C0.582134 3.41259 -0.121486 2.53196 0.0173363 1.34888C0.116254 0.506171 0.565598 0.094179 1.38678 0.00943956ZM1.56461 1.35778C1.89678 1.36293 2.27699 1.44252 2.37512 1.04831C2.29587 0.670966 1.76924 0.404107 1.40359 0.462628C1.12286 0.543622 0.752335 0.730423 0.566489 0.959829C0.521246 1.12322 0.514032 1.05721 0.593232 1.20656C0.917526 1.40787 1.17452 1.35918 1.56461 1.35778Z" fill="#E10610"/>
  </svg>
  <svg x="60.906" y="1.214" width="2.939" height="3.318" viewBox="0 0 2.99649 3.2828">
    <path id="Vector" d="M1.20665 0.00616869C1.29896 -0.000853912 1.39156 -0.00178774 1.48401 0.00289399C2.53239 0.0543931 4.03279 1.86061 1.95673 1.8681C1.42622 1.86997 0.991716 1.86154 0.457615 1.80442C0.742688 2.66259 1.35793 3.26559 2.15419 2.51277C2.25161 2.39807 2.55553 2.22672 2.70953 2.23655C2.79561 2.29179 2.76713 2.26511 2.81317 2.36764C2.77182 2.80913 2.32467 3.11859 1.92521 3.22533C1.30561 3.39153 0.796222 3.17383 0.267821 2.87139C-0.0158748 2.32504 -0.0837079 1.42099 0.110175 0.827347C0.265718 0.351214 0.739082 0.104953 1.20665 0.00616869ZM1.76981 1.35779C1.9335 1.34795 2.07944 1.36013 2.19883 1.25338C2.4709 0.720602 1.6123 0.414885 1.17606 0.463575C0.945958 0.679871 0.663446 0.844202 0.634202 1.15601C0.790133 1.47577 1.44734 1.35685 1.76981 1.35779Z" fill="#E10610"/>
  </svg>
  <svg x="25.944" y="1.212" width="2.995" height="3.282" viewBox="0 0 2.70476 4.50055">
    <path id="Vector" d="M0.0840283 0C0.2421 0.0257495 0.423403 0.0425992 0.586299 0.0655397C0.760155 0.322567 0.629575 1.23925 0.588828 1.55808C2.29769 0.712556 2.79594 1.50798 2.67753 3.20839C2.65547 3.52534 2.8601 4.45233 2.40542 4.50055C1.91237 4.24072 2.13236 2.72898 2.16365 2.18871C2.04112 1.82681 1.85312 1.79778 1.52213 1.64235C1.37263 1.6798 1.06478 1.74862 0.955743 1.8329C0.327155 2.31699 0.800013 3.47666 0.726621 4.15317C0.712242 4.28566 0.650652 4.3718 0.541852 4.44858C0.355678 4.40925 0.28355 4.4027 0.103559 4.47386C-0.0393854 4.29689 -0.0231329 0.314613 0.0840283 0Z" fill="#E10610"/>
  </svg>
  <svg x="35.894" y="0" width="2.705" height="4.501" viewBox="0 0 2.62713 3.30897">
    <path id="Vector" d="M1.03095 0.00832941C1.53903 -0.0375516 2.17666 0.0968183 2.42114 0.644581C2.46479 0.74243 2.44217 0.760688 2.39735 0.843087C2.16059 0.924549 1.72122 0.527069 1.25642 0.386617C1.01189 0.439521 0.612517 0.530812 0.504793 0.775667C0.701365 1.33841 2.49805 1.2532 2.61888 2.19236C2.71584 2.94472 1.93756 3.20595 1.34991 3.30895C0.878172 3.31176 -0.276575 2.89088 0.0608332 2.24199C0.413791 2.15397 0.849742 2.92599 1.53444 2.87215C1.72741 2.85717 1.90477 2.76072 2.02205 2.60669C2.12327 2.47654 2.10603 2.42551 2.08617 2.29255C1.79068 1.85247 0.821547 1.83421 0.365737 1.5313C0.147106 1.3857 0.109686 1.02099 0.0585406 0.76958L0.17933 0.407214C0.518705 0.131928 0.58746 0.0462515 1.03095 0.00832941Z" fill="#E10610"/>
  </svg>
  <svg x="66.364" y="1.217" width="2.629" height="3.309" viewBox="0 0 2.62123 3.33527">
    <path id="Vector" d="M1.41861 0.00278786C2.70693 -0.0655655 2.62975 1.13717 2.61532 2.05245C2.60904 2.45134 2.63494 2.99489 2.37121 3.31887C2.2145 3.3404 2.27459 3.35351 2.14433 3.27345C1.82889 2.70837 2.29351 1.18961 1.82135 0.59784C1.66483 0.401676 1.39468 0.448958 1.1722 0.47143L0.757845 0.642315C0.398705 1.07912 0.76089 3.07682 0.283489 3.32542C-0.129091 3.11193 0.0253733 0.580049 0.0418127 0.105321C0.716441 0.326299 0.77152 0.173671 1.41861 0.00278786Z" fill="#E10610"/>
  </svg>
  <svg x="57.698" y="1.217" width="2.622" height="3.335" viewBox="0 0 2.63417 3.33466">
    <path id="Vector" d="M1.43576 0.0238773C2.79266 -0.0641393 2.62938 1.42184 2.62676 2.31278C2.62578 2.64331 2.64086 3.01691 2.48939 3.31655C2.31774 3.33902 2.37961 3.3526 2.2427 3.28237C1.67336 2.52627 2.79092 0.419019 1.20608 0.483627C1.12473 0.507036 0.927077 0.561344 0.863099 0.60067C0.149128 1.03841 1.02257 2.94996 0.242144 3.30905L0.151328 3.26926C-0.0811195 2.89659 0.0313814 0.61003 0.00299863 0C0.666761 0.408716 0.725072 0.234087 1.43576 0.0238773Z" fill="#E10610"/>
  </svg>
  <svg x="40.689" y="1.195" width="2.636" height="3.335" viewBox="0 0 2.73259 3.317">
    <path id="Vector" d="M1.04381 0.0192591C1.66059 -0.0607986 2.00798 0.114299 2.50069 0.441084C2.57549 0.649889 2.64397 0.787532 2.57488 0.990719C2.29771 1.03988 1.82522 0.576856 1.37218 0.384437C0.436907 0.74493 0.61713 1.49728 0.671928 2.34842C1.03514 2.9327 1.48173 3.04787 2.01266 2.59281C2.17326 2.40367 2.41269 2.06143 2.6856 2.16256C2.73998 2.29786 2.75188 2.37183 2.69614 2.51369C2.41185 3.21876 1.57662 3.46548 0.888125 3.23093C-0.233882 2.84937 -0.247417 0.903639 0.592449 0.24211C0.683218 0.170948 0.926951 0.0693537 1.04381 0.0192591Z" fill="#E10610"/>
  </svg>
  <svg x="49.052" y="1.201" width="2.732" height="3.318" viewBox="0 0 2.63556 3.29154">
    <path id="Vector" d="M1.03976 0.0153957C1.70853 -0.0492123 1.98908 0.0874981 2.50273 0.46391C2.5336 0.639943 2.5802 0.809889 2.52405 0.977963C2.253 1.16945 1.80651 0.404917 1.37422 0.420367C-0.118921 0.472802 0.536178 3.82165 1.89016 2.61798C2.08233 2.4176 2.29422 2.11282 2.58971 2.19803L2.63556 2.29868C2.55074 3.46256 0.418431 3.70461 0.123457 2.47706C-0.118686 1.46908 -0.095315 0.399766 1.03976 0.0153957Z" fill="#E10610"/>
  </svg>
  <svg x="32.775" y="1.203" width="2.636" height="3.291" viewBox="0 0 1.66766 3.38886">
    <path id="Vector" d="M1.39027 0.0772498L1.48989 0.0955035C1.59331 0.219101 1.60334 0.237832 1.66766 0.386243C1.59239 0.754696 1.00908 0.736903 0.663722 0.805256C0.514025 1.5225 0.647203 2.96307 0.464397 3.30858C0.344806 3.41017 0.206063 3.38723 0.0453771 3.38536C-0.031556 3.07215 0.0123811 0.481751 0.0134723 0C0.861343 0.724265 0.60292 0.1971 1.36942 0.0805245L1.39027 0.0772498Z" fill="#E10610"/>
  </svg>
  <svg x="24.04" y="1.087" width="1.67" height="3.39" viewBox="0 0 1.66413 3.28927">
    <path id="Vector" d="M1.11919 0.00924394C1.29258 -0.00152405 1.34902 -0.0113566 1.51903 0.0317154C1.61851 0.123009 1.63556 0.136119 1.66413 0.266739C1.52779 0.63051 0.752229 0.641279 0.658136 0.835571C0.42625 1.31404 0.793444 2.91332 0.425593 3.28927C0.337447 3.27147 0.246584 3.24854 0.158626 3.22841C0.0751639 3.14975 0.0213988 3.08421 0.0150759 2.96201C-0.0343831 2.00787 0.0583985 1.04297 0.00425587 0.0850878C0.484748 0.215708 0.710358 0.34867 1.11919 0.00924394Z" fill="#E10610"/>
  </svg>
  <svg x="55.649" y="1.206" width="1.663" height="3.289" viewBox="0 0 1.75986 3.53941">
    <path id="Vector" d="M0.070848 0C0.317909 0.102062 0.368539 0.313677 0.45542 0.544486C0.787582 0.341299 1.40676 -0.0257523 1.75901 0.348318C1.78622 0.744861 1.14925 0.732223 0.847953 0.777636C0.514245 1.19431 0.49804 1.40265 0.490453 1.9359L0.493448 2.15172C0.496118 2.37317 0.539069 3.54548 0.213418 3.53939C-0.0805263 3.26364 -0.0106002 0.401693 0.070848 0Z" fill="#E10610"/>
  </svg>
  <svg x="64.501" y="1.041" width="1.759" height="3.54" viewBox="0 0 0.5168 3.46588">
    <path id="Vector" d="M0.212841 0L0.336676 0.0641396C0.585423 0.412929 0.572403 3.09509 0.323188 3.46588C0.00226606 3.16298 -0.0101456 2.61194 0.00339001 2.1962C0.0249346 1.53607 -0.0710334 0.604412 0.212841 0Z" fill="#E10610"/>
  </svg>
  <svg x="39.268" y="1.124" width="0.511" height="3.465" viewBox="0 0 4.538 4.58959">
    <path id="Vector" d="M1.66972 0.0262537C2.33563 -0.00634364 2.84709 -0.0664455 3.48313 0.267677C4.61315 0.861269 4.79894 2.57983 4.21389 3.61385C3.88604 4.1942 3.44379 4.41147 2.81576 4.56209C0.479235 4.8241 -0.535663 3.18077 0.276694 1.04616C0.497451 0.464424 1.09561 0.192296 1.66972 0.0262537Z" fill="#FEFEFE"/>
  </svg>
</svg>
