<svg xmlns="http://www.w3.org/2000/svg" width="186" height="22" viewBox="0 0 186 22" fill="none">
  <svg x="37.423" y="0.22" width="7.235" height="7.238" viewBox="0 0 7.2471 7.23764">
    <path id="Vector" d="M3.19389 0.0258905C5.17761 -0.210731 6.9788 1.20092 7.22018 3.1815C7.46163 5.16216 6.05219 6.96411 4.06956 7.20975C2.08055 7.45612 0.269116 6.04301 0.0269208 4.05603C-0.215277 2.06912 1.20379 0.26324 3.19389 0.0258905ZM4.12752 6.68761C5.34166 6.17253 5.47617 4.97843 5.51691 3.81228C5.57117 2.25939 5.12852 0.283832 3.10055 0.546575C2.51173 0.810628 2.19232 1.13973 1.98329 1.75275C1.45739 3.29487 1.56192 7.34989 4.12752 6.68761Z" fill="#2C2C2C"/>
  </svg>
  <svg x="63.166" y="0.218" width="7.254" height="7.238" viewBox="0 0 7.24618 7.23675">
    <path id="Vector" d="M3.1865 0.0267365C5.17724 -0.214615 6.98556 1.20504 7.22081 3.19391C7.45607 5.18279 6.02872 6.98416 4.03652 7.21278C2.05335 7.4403 0.259536 6.02268 0.0253731 4.04283C-0.208862 2.06298 1.20478 0.266996 3.1865 0.0267365ZM4.18056 6.68169C5.44871 6.04669 5.49403 4.91226 5.52944 3.66767C5.57388 2.10118 5.04668 0.264667 3.07502 0.551276C1.3988 1.37181 1.55362 4.25217 2.15127 5.72974C2.49006 6.5673 3.31218 6.91067 4.18056 6.68169Z" fill="#2C2C2C"/>
  </svg>
  <svg x="45.161" y="0.308" width="8.742" height="7.099" viewBox="0 0 8.74562 7.09976">
    <path id="Vector" d="M0.278387 0.0342751C0.992313 -0.0110556 1.70864 -0.00298118 2.42141 0.0584299C3.01701 1.2454 3.88139 3.54838 4.41018 4.83147C4.77323 4.05263 5.10043 3.25763 5.3907 2.44895C5.57349 1.94398 6.04211 0.169029 6.61928 0.0648339C7.00229 -0.00436274 8.23802 -0.0588622 8.54031 0.124934L8.54227 0.298401C8.4335 0.471793 8.00029 0.574679 7.71906 0.74727C7.4884 1.12963 7.6462 2.4117 7.67651 2.90328C7.74871 4.07605 7.76044 5.22526 7.77072 6.39854C8.05005 6.50157 8.5583 6.67628 8.74562 6.89282L8.71407 7.02488C8.29951 7.1159 5.88285 7.12696 5.56905 6.85862L5.63622 6.72051C5.87053 6.53686 6.06907 6.51554 6.35707 6.45326C6.38753 5.19048 6.34986 3.74739 6.35117 2.4654L6.30461 1.26199C5.71775 2.90721 5.05067 4.5183 4.48545 6.17043C4.375 6.4932 4.26316 6.88889 3.94769 7.04729C3.56825 6.81307 3.48446 6.25171 3.3107 5.85181C2.71772 4.48701 2.24822 2.91557 1.53189 1.6231C1.59914 2.44488 1.32192 5.81186 1.62005 6.25957C1.85436 6.61159 2.27933 6.62068 2.53339 6.91362L2.48836 7.00691C2.43707 7.02095 2.38527 7.0331 2.3331 7.04336C2.05042 7.09851 0.220393 7.15272 0 7.00057C0.000145714 6.81066 0.709118 6.41957 0.853958 6.21351C1.14983 5.79236 1.11049 1.36123 1.0047 0.647511C0.677426 0.583844 0.219081 0.523962 0.13464 0.172813L0.278387 0.0342751Z" fill="#2C2C2C"/>
  </svg>
  <svg x="158.825" y="0.29" width="8.017" height="7.124" viewBox="0 0 8.01355 7.12472">
    <path id="Vector" d="M4.39037 0.107021C4.98998 0.0216711 7.37459 -0.106971 7.85035 0.160429L7.86419 0.286452C7.67986 0.497098 7.35783 0.560983 7.08243 0.646478C6.98189 2.37639 7.06204 4.70114 7.07734 6.46911C7.49554 6.53205 7.70245 6.55802 8.01282 6.86355L8.01355 6.98543C7.86274 7.1204 7.70755 7.09697 7.50209 7.09915C6.98408 7.06204 4.79763 7.14033 4.59436 6.86158C4.87122 6.56239 5.27922 6.52695 5.66318 6.4702C5.68139 5.59538 5.67266 4.68571 5.67703 3.80784C4.56523 3.80405 3.45416 3.78674 2.34236 3.75574C2.3154 4.60917 2.33434 5.56744 2.33289 6.42909C2.6265 6.50971 3.18385 6.58567 3.21518 6.92227C2.84726 7.19091 0.435689 7.19484 0.0765035 6.91827L0.0947178 6.79333C0.289975 6.60342 0.590868 6.56377 0.861896 6.49879C0.935482 5.08263 1.00834 1.93779 0.863355 0.582669C0.596698 0.516092 0.0772285 0.453005 0 0.176874L0.142068 0.0620553C0.69141 0.00923018 2.76638 -0.0658604 3.16491 0.190916L3.15034 0.314977C2.93323 0.507068 2.62213 0.549271 2.33507 0.617158C2.38753 1.31727 2.34382 2.42209 2.33507 3.15313C3.53284 3.19227 4.47269 3.1906 5.669 3.12773L5.66756 0.636295C5.20273 0.462175 4.83771 0.319122 4.39037 0.107021Z" fill="#2C2C2C"/>
  </svg>
  <svg x="177.574" y="0.29" width="8.091" height="7.35" viewBox="0 0 8.09005 7.34931">
    <path id="Vector" d="M0.222218 0.0603785C0.920188 0.0245069 1.42071 0.0115543 2.12087 0.035784C2.74744 0.520888 3.57437 1.52275 4.12808 2.14639C5.01694 3.15131 5.91235 4.15084 6.81433 5.14477C6.81797 4.22047 6.83473 1.58059 6.56005 0.776282C6.34585 0.549047 6.20524 0.636945 5.82201 0.468501C5.70981 0.300202 5.71491 0.36314 5.74187 0.205174C6.15497 -0.0539312 7.62741 -0.0675372 8.06237 0.163846L8.09005 0.275169C7.88095 0.50677 7.50064 0.641016 7.20557 0.77126C7.15384 1.78098 7.52978 6.86449 7.32651 7.29204C7.10138 7.3934 7.10503 7.34174 6.8085 7.2788C5.17723 5.39783 3.49933 3.55739 1.77626 1.75922C1.7748 2.89154 1.72744 5.52865 1.86004 6.5105C2.16167 6.57839 2.86183 6.68601 3.00026 6.95195C2.66147 7.22852 0.899063 7.13313 0.408007 7.06495C0.232421 7.04057 0.209831 6.9748 0.18506 6.82797C0.34316 6.69103 0.967542 6.65858 1.21161 6.63187C1.19486 5.3095 1.43966 2.18328 1.00106 0.903469C0.883756 0.561997 0.246257 0.607982 0 0.293941L0.0218607 0.160351L0.222218 0.0603785Z" fill="#2C2C2C"/>
  </svg>
  <svg x="71.145" y="0.196" width="6.752" height="7.355" viewBox="0 0 6.74742 7.35453">
    <path id="Vector" d="M3.41108 0.00174638C4.37388 -0.0162986 5.00118 0.101211 5.82789 0.555099C5.90767 0.876489 6.18227 1.98363 5.80873 2.12406C5.39046 1.81657 5.08752 1.17518 4.74115 0.960966C2.33286 -0.528762 1.30106 2.705 1.64072 4.49589C1.86235 5.66444 2.35523 6.68522 3.55643 6.84071C5.02115 7.03033 4.8256 5.51266 4.64411 4.56916C4.31327 4.16656 4.11714 4.59171 3.80698 3.92456C4.14941 3.80348 6.55282 3.80632 6.74742 4.04316C6.70655 4.22943 6.48521 4.35429 6.34867 4.46366C5.99073 4.75026 6.09805 6.19357 6.03561 6.80375C4.81496 7.43445 2.37935 7.67566 1.33516 6.69417C-1.10242 4.40311 -0.0808172 0.371522 3.41108 0.00174638Z" fill="#2C2C2C"/>
  </svg>
  <svg x="130.963" y="0.282" width="5.654" height="7.128" viewBox="0 0 5.66809 7.12774">
    <path id="Vector" d="M0.0444417 0.0709469C1.29685 0.000513375 2.8611 -0.046199 4.09967 0.0735671C5.31638 0.191223 5.8803 1.53638 5.59543 2.61369C5.40527 3.33425 5.0184 3.6504 4.41004 4.02221C3.99913 4.04644 2.93468 4.10269 2.6673 3.72695C2.71538 3.114 3.64504 3.41014 3.99913 2.87512C4.33645 2.36513 4.14339 1.04894 3.64869 0.667596C3.51026 0.560999 2.80573 0.533712 2.60829 0.577078C2.39627 0.726459 2.45456 0.645475 2.40138 0.927427C2.43999 2.7862 2.46112 4.6452 2.46549 6.50434C2.85673 6.53715 3.14961 6.55658 3.46436 6.8111L3.42428 6.91232C2.98568 7.11154 0.442977 7.22563 0.170492 7.01556C0.209835 6.69446 0.611271 6.66398 0.928928 6.39127C1.11981 6.05809 0.987942 1.41654 0.955884 0.715257C0.665185 0.605023 0.144257 0.462046 0 0.231681L0.0444417 0.0709469Z" fill="#2C2C2C"/>
  </svg>
  <svg x="124.732" y="0.264" width="5.785" height="7.132" viewBox="0 0 5.79677 7.13263">
    <path id="Vector" d="M0.226584 0.0867351C1.39667 0.0284528 4.14921 -0.205696 5.10291 0.468589C6.40778 1.39136 5.77684 4.05677 4.00641 4.08711C3.57 4.09454 2.86766 4.12146 2.83268 3.51491C3.11173 3.28833 3.42719 3.46347 3.74703 3.22103C4.60675 2.56843 4.32261 1.41159 3.79731 0.662866C3.46654 0.608659 3.04032 0.503445 2.72995 0.591996C2.53542 0.761459 2.59007 0.682801 2.55582 0.980907L2.56894 6.53075C2.91064 6.56451 3.46144 6.59769 3.67054 6.90322C3.35361 7.21187 0.551528 7.13103 0 7.09807C0.338057 6.8055 0.791956 6.59165 1.19267 6.38355C1.25096 4.7451 1.09067 2.36528 1.02146 0.671815C0.673929 0.574168 0.298714 0.518141 0.118757 0.22673L0.226584 0.0867351Z" fill="#2C2C2C"/>
  </svg>
  <svg x="167.102" y="0.141" width="6.826" height="7.269" viewBox="0 0 6.82452 7.2699">
    <path id="Vector" d="M3.10152 0C3.23412 0.00531162 3.33539 0.028525 3.46435 0.0533368C3.92699 0.579551 5.58595 5.53522 5.99905 6.5958C6.29558 6.70123 6.70357 6.78578 6.82452 7.08446L6.74511 7.18691C6.30505 7.28412 3.96124 7.3475 3.66107 7.07195L3.70113 6.93392C3.92991 6.72844 4.27525 6.669 4.57907 6.58757C4.33354 6.16752 3.97945 4.84536 3.65888 4.73331L1.98972 4.70806C1.81049 5.3368 1.62325 5.96313 1.428 6.58692C1.73618 6.69213 2.08371 6.75085 2.27533 6.98122L2.25711 7.10841C1.8615 7.33411 0.3876 7.31679 0 7.07995L0.00655465 6.94586C0.184326 6.75034 0.494694 6.70647 0.759165 6.63865C1.43819 4.94104 2.37587 1.41551 3.10152 0ZM2.15948 4.16882L3.16054 4.16416L3.46363 4.15704C3.68876 3.84067 3.10153 2.48417 2.86037 2.20367C2.72048 2.69256 2.37077 3.70082 2.15948 4.16882Z" fill="#2C2C2C"/>
  </svg>
  <svg x="117.236" y="0.326" width="6.994" height="7.267" viewBox="0 0 6.99448 7.26801">
    <path id="Vector" d="M0.0832587 0.0251538C0.869387 0.000341957 2.71996 -0.0588846 3.4019 0.17781L3.42448 0.318893L3.39316 0.338393L3.38805 0.189525L3.32905 0.371937C3.04272 0.518625 2.71631 0.551585 2.3972 0.605211C2.38481 0.777948 2.36296 1.11193 2.38044 1.27615C2.60994 3.38028 1.32839 7.67709 5.09291 6.41016C6.30963 5.1174 5.8346 2.33127 5.57887 0.677684C5.54171 0.435678 4.75267 0.452849 4.5902 0.211788L4.6718 0.105776C4.95521 -0.00482179 5.26632 0.0100219 5.57232 0.00325503C6.05317 0.027412 6.57337 -0.0577942 6.99448 0.197746L6.97263 0.329955C6.75333 0.525176 6.467 0.546931 6.17557 0.600921C6.263 2.10178 6.48959 4.23734 6.17193 5.67723C5.78797 7.41449 2.87005 7.72781 1.65625 6.62219C1.39979 6.39131 1.21328 6.09328 1.11783 5.76185C0.893435 4.96358 1.03769 1.74357 0.976487 0.6138C0.688702 0.566213 0.246466 0.519206 0.0359087 0.330826C-0.0136341 0.131604 -0.0238412 0.213462 0.0832587 0.0251538Z" fill="#2C2C2C"/>
  </svg>
  <svg x="87.085" y="0" width="6.529" height="7.421" viewBox="0 0 6.5298 7.42042">
    <path id="Vector" d="M5.68895 0.434973C5.88982 0.26049 6.10598 0.0237215 6.37679 0.0848416C6.6229 0.454108 6.59282 2.06324 6.13418 2.24878C5.96078 2.09904 5.6864 1.3664 5.57915 1.11217C5.16307 1.06196 4.52885 1.06691 4.09382 1.05796C4.05236 1.85994 3.98971 6.37606 4.24769 6.71578C4.53766 6.82282 4.98085 6.91653 5.04183 7.23901C4.74326 7.48211 2.012 7.44085 1.53296 7.34575L1.47431 7.24985C1.68327 6.71578 2.22299 6.92898 2.55981 6.59267C2.88898 5.83747 2.69015 2.09482 2.66735 1.09762C0.494239 0.957112 1.49989 1.08103 0.117131 2.02621L0.0170995 1.99987C-0.082569 1.65847 0.278218 0.315714 0.459778 0C0.755578 0.0902248 0.861147 0.237133 1.06923 0.460367C2.51814 0.48758 4.20682 0.43279 5.68895 0.434973Z" fill="#2C2C2C"/>
  </svg>
  <svg x="152.241" y="0.158" width="5.971" height="7.341" viewBox="0 0 5.96963 7.34195">
    <path id="Vector" d="M2.9613 0.0327747C3.66291 -0.0722935 4.7718 0.101025 5.49745 0.191031C5.67377 0.619526 5.99215 1.40361 5.82021 1.84236C5.27815 2.02689 3.17259 -1.19857 1.84732 1.89046C0.942432 3.99925 2.09066 8.57946 4.85048 6.16086C5.07707 5.92074 5.52951 5.24704 5.86028 5.22747L5.95427 5.35255C6.04024 6.1904 5.78014 7.14729 4.79511 7.256C3.65053 7.38246 2.44766 7.46781 1.45462 6.76958C-0.244411 5.57469 -0.4098 3.00568 0.722399 1.37196C1.2885 0.562843 1.99594 0.19387 2.9613 0.0327747Z" fill="#2C2C2C"/>
  </svg>
  <svg x="98.189" y="0.158" width="5.933" height="7.366" viewBox="0 0 5.94072 7.36667">
    <path id="Vector" d="M2.92151 0.0361636C3.65416 -0.0755987 4.75015 0.096992 5.49235 0.211083C5.66356 0.626408 6.01779 1.56999 5.78152 1.9677C5.1062 1.91626 4.60946 0.601887 3.71711 0.575474C3.36776 0.537274 2.70229 0.665338 2.44714 0.921751C1.28558 2.08507 1.22161 4.97888 2.25159 6.24283C2.96588 7.11925 4.00963 6.88794 4.78199 6.23352C5.04522 5.96132 5.47763 5.25967 5.86406 5.28958C6.07396 5.58339 5.79492 6.52151 5.71427 6.89376C4.44313 7.5198 2.61959 7.57685 1.42393 6.74533C-0.250467 5.58092 -0.398878 2.92634 0.720061 1.3434C1.25236 0.590392 2.02828 0.174339 2.92151 0.0361636Z" fill="#2C2C2C"/>
  </svg>
  <svg x="137.063" y="0.29" width="6.138" height="7.126" viewBox="0 0 6.12841 7.12641">
    <path id="Vector" d="M0.0926683 0.0560546C0.607768 0.0227296 3.13591 -0.117626 3.44264 0.231049L3.37634 0.358236C3.07399 0.568009 2.8882 0.583289 2.53047 0.654013C2.38184 2.19387 2.46636 4.85827 2.42847 6.50597C3.52133 6.52241 4.7599 6.76151 5.44184 5.65218C5.66041 5.29644 5.59338 5.1817 5.96277 4.99819L6.0735 5.07205C6.17186 5.34679 6.11285 5.71148 6.08881 6.01096C6.07861 6.31293 6.01449 6.81077 5.98462 7.12641C4.08451 7.07969 2.22228 6.99158 0.32217 7.08726C0.154599 7.0957 0.139297 7.05895 0.0110687 6.96429C-0.00350269 6.74491 -0.0282712 6.83201 0.123271 6.63956C0.387014 6.51033 0.752758 6.52081 1.05366 6.50611L1.04855 0.734632C0.715596 0.624106 0.0103398 0.476837 0.0926683 0.0560546Z" fill="#2C2C2C"/>
  </svg>
  <svg x="82.379" y="0.165" width="4.297" height="7.35" viewBox="0 0 4.29758 7.35014">
    <path id="Vector" d="M1.77906 0.0168308C2.35587 -0.0530934 3.03767 0.110258 3.61244 0.224276C3.68945 0.603002 3.92849 1.69516 3.66278 1.99428C3.18382 1.79775 2.72817 0.435866 1.95574 0.497786C1.78401 0.492111 1.27161 0.758274 1.20706 0.901396C0.235 3.05748 4.10903 2.44701 4.28017 4.57748C4.42268 6.35127 3.69273 7.13302 2.00099 7.35014C1.21318 7.2784 0.902662 7.22921 0.183636 6.90957C0.143419 6.51207 0.0149731 5.53473 0.218681 5.22208C0.549307 5.31994 1.00627 6.27392 1.47321 6.58149C2.23617 7.30561 3.79371 6.28025 3.40727 5.42712C2.72132 3.91258 0.496265 4.59341 0.0472468 2.48186C-0.0707817 1.93862 0.0344263 1.37071 0.339333 0.905691C0.735894 0.311954 1.13347 0.152386 1.77906 0.0168308Z" fill="#2C2C2C"/>
  </svg>
  <svg x="104.978" y="0.161" width="4.297" height="7.337" viewBox="0 0 4.30206 7.3366">
    <path id="Vector" d="M1.69785 0.019819C2.11116 -0.0260938 2.78436 0.00301038 3.17524 0.157411C3.86943 0.431651 3.99313 1.38148 3.68444 2.00251L3.54761 2.00913C3.28088 1.83981 2.90247 1.05114 2.58007 0.752892C2.00618 0.00242536 0.713183 1.05587 0.943848 1.65863C1.4505 2.99469 4.20369 2.88205 4.29556 4.63933C4.38277 6.30594 3.59016 7.1491 1.99758 7.33588C1.35243 7.3492 0.766075 7.17602 0.183291 6.92383C0.147518 6.52495 -0.00664749 5.47529 0.306055 5.19952C0.625023 5.3513 0.99674 6.3998 1.50594 6.65716C1.78243 6.79686 1.95248 6.92274 2.34627 6.83805C2.6903 6.76267 3.21509 6.37281 3.37378 6.05971C3.96691 4.8897 1.82024 4.36989 1.15018 4.00048C0.0268666 3.38113 -0.321679 1.98017 0.318662 0.915518C0.654314 0.357507 1.09932 0.154356 1.69785 0.019819Z" fill="#2C2C2C"/>
  </svg>
  <svg x="112.511" y="0.167" width="4.315" height="7.339" viewBox="0 0 4.31861 7.33892">
    <path id="Vector" d="M1.72527 0.0175462C2.33873 -0.0524507 3.00319 0.102243 3.613 0.212841C3.76236 0.749824 3.82283 1.37667 3.74997 1.92871L3.66909 1.98976C3.20863 1.80159 2.63161 0.364403 1.9147 0.495593C1.0579 0.620743 0.491073 1.74433 1.40907 2.26116C2.88661 3.09276 4.87051 3.52067 4.17545 5.78305C3.8119 6.96594 3.07458 7.22112 1.90158 7.33892C1.15334 7.27038 0.880122 7.20861 0.189437 6.91705C0.144265 6.50478 -0.0211151 5.57911 0.313299 5.29482C0.829127 5.49783 1.18831 7.07516 2.33581 6.80653C2.9041 6.67352 3.60643 6.11398 3.45926 5.51864C3.24361 4.64622 1.75368 4.37897 1.09797 3.92319C-0.018928 3.22809 -0.311816 1.97273 0.348998 0.847105C0.625127 0.376918 1.18321 0.126907 1.72527 0.0175462Z" fill="#2C2C2C"/>
  </svg>
  <svg x="56.749" y="0.29" width="6.119" height="7.132" viewBox="0 0 6.11536 7.13298">
    <path id="Vector" d="M0.141864 0.0553562C0.874223 0.00922515 2.8743 -0.0875483 3.49016 0.181744L3.5193 0.291975C3.07735 0.561048 3.01586 0.553628 2.5111 0.667646C2.42032 1.36209 2.46076 2.14238 2.45493 2.85109L2.41413 6.52316C3.43894 6.48867 4.49682 6.79515 5.17031 5.97374C5.39333 5.70175 5.72031 5.02478 6.03382 5.06196C6.15636 5.23149 6.10798 5.50654 6.09509 5.72642C6.04052 6.23263 5.99724 6.62554 5.99761 7.13298C4.88268 7.09828 3.7606 7.06422 2.64574 7.03722C2.2019 7.02653 0.308489 7.18835 0.0289362 6.99714C-0.0103338 6.7771 -0.0278933 6.86413 0.0985137 6.6724C0.341565 6.50272 0.752189 6.51705 1.06256 6.49784C1.04136 4.76429 1.20376 2.40855 1.05542 0.731384C0.606619 0.57873 0.185578 0.557341 0.141864 0.0553562Z" fill="#2C2C2C"/>
  </svg>
  <svg x="142.625" y="0.328" width="5.896" height="7.099" viewBox="0 0 5.90726 7.09871">
    <path id="Vector" d="M2.80427 6.45122C2.82685 4.00417 2.78678 4.16563 1.46807 1.97404C1.23711 1.59015 0.917272 1.01445 0.638958 0.6601C0.504172 0.488818 0.104914 0.394304 0 0.118973C0.263014 -0.106589 2.83633 0.0221247 3.2079 0.226877C3.09133 0.616517 2.59736 0.582976 2.23818 0.608952L3.96051 3.56505C4.20167 3.20575 4.99363 1.87886 5.1561 1.68139C5.5182 1.44658 5.51456 1.0993 5.80671 0.99379L5.90726 1.08852C4.41004 4.06856 4.16597 2.84398 4.32407 6.50994C4.58562 6.56648 4.90765 6.59711 5.07377 6.79248L5.04462 6.91355C4.57397 7.1346 2.28553 7.18452 1.8921 6.91479C1.94529 6.59966 2.51794 6.52646 2.80427 6.45122Z" fill="#2C2C2C"/>
  </svg>
  <svg x="174.077" y="0.293" width="3.218" height="7.097" viewBox="0 0 3.21008 7.0953">
    <path id="Vector" d="M0.0939796 0.0525202C0.686308 0.0154116 2.62796 -0.0972233 3.0702 0.194989L3.05927 0.328144C2.8305 0.53748 2.53178 0.579828 2.2287 0.654045C2.23671 2.5906 2.23307 4.52723 2.21922 6.46372C2.61994 6.5439 2.95872 6.55744 3.21008 6.86355L3.15835 7.052C2.70737 7.10636 0.277585 7.15438 0 6.90058L0.0429832 6.77041C0.295069 6.55417 0.495422 6.52855 0.813079 6.45062C0.826193 4.50431 0.826201 2.55786 0.812358 0.611549C0.480859 0.548101 0.116573 0.552252 0.00145856 0.21289L0.0939796 0.0525202Z" fill="#2C2C2C"/>
  </svg>
  <svg x="78.38" y="0.293" width="3.181" height="7.097" viewBox="0 0 3.17469 7.09822">
    <path id="Vector" d="M0.132889 0.0584756C0.669482 0.00877921 2.71713 -0.0986911 3.10182 0.216732L3.07413 0.34756C2.82328 0.555296 2.58467 0.585636 2.2703 0.659126C2.24931 2.60558 2.24247 4.55204 2.24975 6.49856C2.55349 6.53247 2.77185 6.53974 3.05111 6.67355C3.21256 6.88013 3.18043 6.78415 3.14932 7.06887C2.6936 7.10001 0.402972 7.15502 0.0992313 6.92924L0.098502 6.79514C0.266365 6.57038 0.608429 6.48052 0.881133 6.37712C0.932133 4.54301 0.88463 2.49331 0.89024 0.633803C0.579432 0.573702 0.0912171 0.532664 0 0.208218L0.132889 0.0584756Z" fill="#2C2C2C"/>
  </svg>
  <svg x="94.153" y="0.29" width="3.218" height="7.091" viewBox="0 0 3.20775 7.09048">
    <path id="Vector" d="M0.0861887 0.0553488C0.108993 0.053457 0.131873 0.0517857 0.15475 0.0503304C0.677281 0.0156957 2.73112 -0.103563 3.09832 0.218481L3.07778 0.359351C2.87735 0.566941 2.58453 0.615761 2.3025 0.693908C2.29062 2.62254 2.28961 4.55116 2.2993 6.47979C2.64785 6.53211 2.98605 6.56885 3.20775 6.85168C3.14029 7.02216 3.14764 6.9769 2.95683 7.09048C2.39947 7.07295 0.383885 7.11944 0.0149369 6.99306C0.0248455 6.66141 0.943863 6.49864 0.932352 5.94885C0.89534 4.17178 0.994278 2.40353 0.915738 0.626315C0.578702 0.552825 0.146006 0.532742 0 0.208733L0.0861887 0.0553488Z" fill="#2C2C2C"/>
  </svg>
  <svg x="147.479" y="0.356" width="2.065" height="1.652" viewBox="0 0 2.05458 1.65213">
    <path id="Vector" d="M0.911443 0.554517C0.580672 0.502711 0.189428 0.487064 0 0.180591L0.0670317 0.0807611C0.488874 -0.0604698 1.67863 -0.00211404 2.05458 0.145156C1.75222 0.511076 1.45569 0.586893 1.04259 1.05926L0.942046 0.964532C0.649889 1.07004 0.653528 1.41733 0.291428 1.65213C0.488871 1.15233 0.600343 0.998802 0.911443 0.554517Z" fill="var(--fill-0, black)"/>
  </svg>
  <svg x="36.791" y="9.568" width="149.209" height="12.432" viewBox="0 0 149.211 12.4319">
    <path id="Vector" d="M0 0.00429448L149.211 0V12.4319H0V0.00429448Z" fill="#E82023"/>
  </svg>
  <svg x="134.534" y="11.436" width="5.171" height="6.585" viewBox="0 0 5.17753 6.58621">
    <path id="Vector" d="M0 0.100336C1.13366 -0.00771581 4.38454 -0.295563 4.79546 1.08589C5.1561 2.29986 4.32408 2.80439 3.34123 3.11392C4.75029 3.49774 5.6151 4.13826 4.94846 5.69922C4.62789 6.08901 4.28982 6.38216 3.78857 6.49924C3.29095 6.61537 0.338065 6.62184 0.0990935 6.47821C0.74315 5.80538 0.81892 5.77948 0.780305 4.83969C0.724934 3.47278 0.824748 2.0644 0.725663 0.696691C0.271034 0.542291 0.108557 0.580492 0 0.100336Z" fill="#FEFEFE"/>
  </svg>
  <svg x="136.654" y="14.918" width="1.6" height="2.616" viewBox="0 0 1.60947 2.61531">
    <path id="Vector" d="M0.00058571 0.00779003C0.219886 0.000732119 0.712401 -0.0197152 0.904015 0.0574852C1.90216 0.460295 1.63477 1.64784 1.34335 2.401C0.865403 2.65676 0.56596 2.62271 0.0406607 2.59965C-0.0168964 1.84037 0.00495713 0.790272 0.00058571 0.00779003Z" fill="#E82023"/>
  </svg>
  <svg x="136.654" y="12.045" width="1.451" height="2.325" viewBox="0 0 1.45463 2.32756">
    <path id="Vector" d="M0.0221617 0.0192044C0.25749 0.00807187 0.693182 -0.0392216 0.894268 0.0746508C1.70954 0.535525 1.50117 1.39426 1.11065 2.07015C0.736166 2.38666 0.507393 2.32176 0.00686458 2.32263C0.00103601 1.55063 -0.010624 0.79099 0.0221617 0.0192044Z" fill="#E82023"/>
  </svg>
  <svg x="99.008" y="13.567" width="4.817" height="6.813" viewBox="0 0 4.82122 6.8153">
    <path id="Vector" d="M1.64964 0.0106372C2.60495 -0.0486638 3.54859 0.160308 4.65238 0.138552C4.76917 0.33792 4.72997 0.322787 4.73092 0.587204C4.58375 0.688343 4.43534 0.58968 4.17466 0.569089C4.06253 0.839108 4.52379 1.57961 4.34521 2.11375C3.80498 3.72965 1.89845 2.86945 1.2136 3.28543C1.09746 3.48844 1.11313 3.3937 1.17221 3.64568C1.77321 4.20995 5.11305 3.22693 4.80064 5.46771C4.13575 6.87638 2.54863 6.94325 1.16945 6.71623C0.793359 6.65439 0.312209 6.419 0.10872 6.08299C0.000818262 5.9069 -0.0283249 5.69378 0.0282851 5.49521C0.153891 5.0689 0.550963 4.88751 0.913354 4.68072C-0.393047 3.67238 0.571508 3.57488 0.926467 3.02014C1.12267 2.71353 -1.06508 1.05011 1.64964 0.0106372Z" fill="#FEFEFE"/>
  </svg>
  <svg x="99.938" y="18.366" width="2.883" height="1.575" viewBox="0 0 2.872 1.57494">
    <path id="Vector" d="M0.548318 0.0197014C1.25066 -0.0131143 2.3414 -0.0754717 2.84222 0.51048C2.9746 0.995948 2.64522 1.23504 2.25652 1.48687C0.932274 1.82565 -0.940589 1.15537 0.548318 0.0197014Z" fill="#E82023"/>
  </svg>
  <svg x="100.533" y="13.904" width="1.562" height="2.488" viewBox="0 0 1.5722 2.48664">
    <path id="Vector" d="M0.601307 0C1.68469 0.0538438 1.67384 1.10394 1.45505 1.93336C1.36471 2.27599 1.23436 2.31798 0.921298 2.48664C-0.293157 2.36367 -0.207552 0.711102 0.601307 0Z" fill="#E82023"/>
  </svg>
  <svg x="63.314" y="13.523" width="4.836" height="6.765" viewBox="0 0 4.83862 6.7657">
    <path id="Vector" d="M1.61983 0.0475799C1.90179 0.0896363 1.69997 0.297587 1.90419 0.438236C2.4853 0.1533 3.16892 -0.212329 3.77574 0.154027C5.83075 1.39484 4.75276 5.94399 1.85611 4.22579L1.85567 5.42134C1.85735 6.28597 1.818 6.25985 2.554 6.72676C2.10761 6.73666 0.224617 6.86035 0.0123845 6.60772C0.248441 6.25308 0.303596 6.54231 0.525737 6.22507C0.640487 5.12301 0.52763 2.22243 0.53783 0.976383C0.538632 0.8799 0.11322 0.882375 0 0.626544L0.0722012 0.506779C0.404939 0.315269 1.21365 0.147919 1.61983 0.0475799Z" fill="#FEFEFE"/>
  </svg>
  <svg x="65.137" y="13.983" width="1.618" height="3.722" viewBox="0 0 1.61896 3.72265">
    <path id="Vector" d="M0.672359 0C1.93264 0.0705063 1.70132 2.58829 1.30287 3.38656C1.2542 3.48406 1.04626 3.6501 0.953224 3.72264C-0.055191 3.57843 -0.00411782 2.90611 0.00236646 2.05065C0.00622788 1.55005 0.0284487 1.04297 0.0409072 0.541931L0.672359 0Z" fill="#E82023"/>
  </svg>
  <svg x="54.219" y="13.479" width="7.44" height="4.539" viewBox="0 0 7.43893 4.53843">
    <path id="Vector" d="M1.61335 0.10012C1.85837 0.123622 1.68111 0.415034 1.86361 0.621387C1.94849 0.569435 2.03402 0.518575 2.12021 0.468806C3.98179 -0.605233 3.70165 0.475208 4.43875 0.67181L4.51175 0.626481C4.98874 0.33194 5.72445 -0.119985 6.25828 0.053698C7.45474 0.442829 7.00528 2.81924 7.10903 3.77504C7.12316 3.90477 7.37277 4.34221 7.43893 4.45958C7.23595 4.57163 5.69378 4.55301 5.44002 4.46314L5.42334 4.3305C5.5206 4.22907 5.61852 4.1283 5.71717 4.02825C5.78769 3.42905 5.89093 1.13057 5.54668 0.664025C5.06146 0.393278 4.77075 0.845642 4.45149 1.1901C4.41201 1.82065 4.44108 2.78969 4.44028 3.44542C4.44202 3.52117 4.44567 3.59677 4.4512 3.67229C4.48668 4.12182 4.67036 4.1996 5.03231 4.50869C4.54971 4.51757 3.20855 4.57694 2.83217 4.46242C2.76857 4.245 2.90525 4.311 2.97337 4.19698C3.01235 4.06943 3.10262 3.67251 3.09191 3.55195C3.03574 2.92328 3.56737 0.411034 2.47911 0.648966C2.34032 0.679235 1.94237 1.08743 1.80423 1.22487C1.79644 1.95177 1.79083 2.6764 1.79811 3.40308C1.80438 4.03458 1.85902 3.96997 2.26964 4.4125C2.04969 4.58815 0.284435 4.57527 0.0525306 4.40363C0.125461 4.21204 0.358749 4.12997 0.549634 4.03363C0.598667 3.25246 0.580671 1.93154 0.551966 1.09477C0.545627 0.909886 0.119121 0.897808 0 0.663879L0.0593787 0.5495C0.42585 0.356317 1.1832 0.203733 1.61335 0.10012Z" fill="#FEFEFE"/>
  </svg>
  <svg x="114.148" y="13.543" width="4.538" height="4.591" viewBox="0 0 4.538 4.58959">
    <path id="Vector" d="M1.66972 0.0262537C2.33563 -0.00634364 2.84709 -0.0664455 3.48313 0.267677C4.61315 0.861269 4.79894 2.57983 4.21389 3.61385C3.88604 4.1942 3.44379 4.41147 2.81576 4.56209C0.479235 4.8241 -0.535663 3.18077 0.276694 1.04616C0.497451 0.464424 1.09561 0.192296 1.66972 0.0262537Z" fill="#FEFEFE"/>
  </svg>
  <svg x="115.45" y="13.911" width="1.86" height="3.815" viewBox="0 0 1.86455 3.81559">
    <path id="Vector" d="M0.664201 0.00346001C0.962186 -0.00861847 1.24196 -0.00293995 1.44086 0.258566C2.03465 1.04134 2.04994 3.24435 1.19387 3.81481C-0.449054 3.87309 -0.164184 0.682256 0.664201 0.00346001Z" fill="#E82023"/>
  </svg>
  <svg x="44.491" y="11.422" width="3.962" height="6.745" viewBox="0 0 3.96515 6.74347">
    <path id="Vector" d="M1.38983 0.0501744C2.22411 -0.0533658 2.74584 0.0117544 3.56556 0.168484C3.60847 0.587883 3.85509 1.7165 3.31347 1.77456C3.01476 1.51844 2.94904 0.490239 2.48064 0.46077C0.896803 0.361159 0.986052 1.79835 2.1031 2.48923C2.85884 2.95658 3.49751 3.4857 3.94208 4.19513C4.06179 5.64811 3.74807 6.36075 2.22805 6.70935C1.59842 6.81929 0.843763 6.63571 0.187248 6.55109C0.111695 6.06199 0.00219025 5.36878 0.0371616 4.88986L0.144772 4.81455C0.275915 4.90623 0.734477 5.51831 0.828827 5.67635C1.75069 7.22108 3.21497 5.66878 2.62213 4.70861C2.04532 3.77435 0.435107 3.29448 0.0663046 2.04502C-0.230515 1.03952 0.515104 0.318666 1.38983 0.0501744Z" fill="#FEFEFE"/>
  </svg>
  <svg x="107.508" y="11.48" width="5.524" height="6.547" viewBox="0 0 5.5241 6.54714">
    <path id="Vector" d="M0 0.0696183C0.559105 -0.00292539 1.94128 -0.052769 2.49907 0.0988669C2.56173 0.115966 2.57338 0.184289 2.61054 0.261635C2.48523 0.519795 2.30455 0.372962 2.08029 0.661027C2.07687 1.01814 3.02437 2.62058 3.26115 3.04514C3.54238 2.26477 4.05165 1.55265 4.31758 0.766168C4.41303 0.484507 3.85203 0.567819 3.9686 0.118514C4.23235 -0.0481108 5.27784 -0.0186418 5.5241 0.14711C5.51317 0.42135 5.20426 0.454455 5.0039 0.793307C4.60464 1.46868 4.244 2.2249 3.89575 2.9272C3.5351 3.64099 3.10961 5.19046 3.64147 5.99353C3.71433 6.10318 4.22214 6.12123 4.36567 6.36505L4.2848 6.46765C3.94601 6.57257 1.57051 6.61004 1.41029 6.3473C1.54311 6.15593 1.84074 6.09641 2.07278 6.02125C2.37667 3.7489 1.7179 2.60297 0.484937 0.706139C0.312703 0.44114 0.0322757 0.414583 0 0.0696183Z" fill="#FEFEFE"/>
  </svg>
  <svg x="157.244" y="13.486" width="5.394" height="4.539" viewBox="0 0 5.40818 4.53916">
    <path id="Vector" d="M1.63054 0.0941468L1.68155 0.0952393C1.89356 0.258444 1.76606 0.304501 1.87826 0.648956C2.26003 0.622398 3.09715 -0.406165 4.00714 0.180587C5.21875 0.961832 4.29857 2.63135 4.69127 3.79598C4.845 4.25198 5.02204 4.28189 5.40818 4.49479C4.84572 4.51043 3.49859 4.56355 3.00317 4.46423L2.98059 4.38164C3.06291 4.28567 3.14233 4.18802 3.21956 4.08863C3.55179 3.66006 3.39878 1.53658 3.32447 0.948589C3.19333 0.729721 3.07821 0.598677 2.82248 0.55291C2.4021 0.604935 2.18499 0.914828 1.90085 1.22501C1.83746 1.9984 1.87243 2.89679 1.89138 3.67884C1.90085 4.09853 2.10703 4.05894 2.24837 4.40027L2.16459 4.49581C1.76388 4.51414 0.209101 4.63908 0.000729282 4.35734C0.129686 4.16736 0.187977 4.19828 0.451719 4.10027C0.682676 3.77503 0.550077 1.48645 0.507091 0.983517C0.501263 0.910028 0.131871 0.860693 0 0.696906L0.0728571 0.551165C0.445885 0.35107 1.1934 0.200379 1.63054 0.0941468Z" fill="#FEFEFE"/>
  </svg>
  <svg x="141.453" y="13.517" width="4.966" height="4.677" viewBox="0 0 4.96594 4.67851">
    <path id="Vector" d="M1.5453 0.0622855L1.66697 0.0806936C1.86077 0.497838 1.60723 3.35069 1.85931 3.7655C1.93363 3.88505 2.05238 3.9696 2.19008 4.00009C3.55251 4.31303 3.13212 2.00255 3.15908 1.30542C3.17875 0.799579 2.97402 0.977046 2.73068 0.634628L2.77221 0.520392C3.04906 0.324371 4.06615 0.100703 4.44865 0L4.45594 2.69961C4.4523 3.05535 4.44282 3.45131 4.45958 3.80741C4.47051 4.02657 4.75611 4.16235 4.95136 4.29805L4.96594 4.39722C4.77287 4.50702 3.42647 4.66018 3.23995 4.46183C3.20134 4.42065 3.18968 4.26552 3.04032 4.16904C2.50993 4.47711 1.92051 4.84987 1.27646 4.59237C0.0546442 4.10399 0.477213 2.292 0.38177 1.28687C0.367199 1.13538 0.0852428 0.696329 0 0.519663C0.145714 0.347872 1.26625 0.126607 1.5453 0.0622855Z" fill="#FEFEFE"/>
  </svg>
  <svg x="120.379" y="13.521" width="5.245" height="4.657" viewBox="0 0 5.25445 4.65903">
    <path id="Vector" d="M1.57517 0.0561747L1.65312 0.0604691C2.05821 0.498059 1.25897 3.52867 2.23598 4.03131C2.66146 4.04178 2.90627 3.80669 3.20207 3.53776C3.25379 2.94031 3.34341 1.50341 3.13504 0.927573C3.09206 0.808898 2.88587 0.919202 2.7438 0.657695L2.805 0.538658C3.17074 0.287047 3.99621 0.119984 4.46323 0L4.4727 2.74953C4.44793 3.80923 4.29201 3.92369 5.25445 4.43826C4.85301 4.45674 3.44249 4.63035 3.26691 4.51844C3.26399 4.36281 3.27201 4.28939 3.20352 4.14481C2.6316 4.13405 2.31904 4.83976 1.44986 4.61471C-0.132598 4.20491 0.617095 2.09926 0.35991 0.945687C0.335138 0.834434 0.158828 0.917311 0 0.62619L0.0488174 0.481395C0.396346 0.294251 1.16061 0.150765 1.57517 0.0561747Z" fill="#FEFEFE"/>
  </svg>
  <svg x="92.386" y="13.468" width="5.134" height="4.554" viewBox="0 0 5.1346 4.55287">
    <path id="Vector" d="M1.60978 0.110714C1.79476 0.153862 1.75301 0.484567 1.83534 0.67513C2.32137 0.543868 2.8117 -0.0799212 3.43346 0.00855731C5.3641 0.283379 4.31984 2.76565 4.65761 3.98361C4.70008 4.1367 4.93876 4.16966 5.1346 4.39239L5.06422 4.45889C4.69615 4.5636 3.25875 4.58856 2.94248 4.4872C2.91362 4.19222 3.29846 4.11698 3.32017 3.80083C3.37947 2.93795 3.38239 1.83714 3.26859 0.985896C3.14866 0.732466 3.08593 0.605129 2.80485 0.548521C1.41117 0.912039 1.79862 2.86977 1.82944 4.01206L2.41798 4.52147C2.02135 4.52933 0.274599 4.6253 0.0280507 4.43706C0.0560278 4.16857 0.558447 4.1669 0.57688 3.80862C0.617534 3.02032 0.603548 1.85038 0.552694 1.06666C0.541547 0.894288 0.195257 0.953663 0 0.673238L0.0645504 0.557616C0.405084 0.375347 1.20258 0.21018 1.60978 0.110714Z" fill="#FEFEFE"/>
  </svg>
  <svg x="163.996" y="13.561" width="4.129" height="4.589" viewBox="0 0 4.13656 4.5895">
    <path id="Vector" d="M1.58366 0.0128542C3.43495 -0.0968708 3.90342 0.483041 4.13656 2.24766C3.21638 2.24948 2.29692 2.25727 1.37674 2.27095C1.43502 2.91154 1.43939 3.39046 1.91588 3.88794C2.42151 4.41663 3.03788 4.10047 3.47138 3.65815C3.57848 3.46439 3.60981 3.39083 3.81891 3.37504L3.90925 3.47392C3.89759 4.90675 0.556368 5.13013 0.122868 3.12816C-0.18896 1.68878 0.0223289 0.525171 1.58366 0.0128542Z" fill="#FEFEFE"/>
  </svg>
  <svg x="165.391" y="13.884" width="1.432" height="1.606" viewBox="0 0 1.43208 1.60513">
    <path id="Vector" d="M0.501257 0C1.24221 0.0355806 1.57809 0.865792 1.37263 1.52487C1.35078 1.59581 1.20506 1.59392 1.13074 1.60513L0 1.5913C0.0524571 0.891624 0.0196718 0.530944 0.501257 0Z" fill="#E82023"/>
  </svg>
  <svg x="77.915" y="11.26" width="3.72" height="6.763" viewBox="0 0 3.73633 6.76467">
    <path id="Vector" d="M1.99126 0.000152656C2.65994 -0.00450411 3.47346 0.0927087 3.72387 0.939876C3.76919 1.09319 3.683 1.17286 3.59222 1.28709C3.38705 1.38154 3.3582 1.38212 3.13453 1.36749C2.72369 1.12149 2.61972 0.446256 2.17019 0.402235C1.79818 0.730755 1.82084 1.93409 1.81465 2.3826C2.11183 2.37699 2.43656 2.33028 2.6681 2.50054L2.66759 2.6198C2.43743 2.79246 2.10644 2.74968 1.80838 2.74801C1.8113 3.86192 1.78274 5.19208 1.869 6.28606C1.95585 6.35904 2.23351 6.37162 2.48115 6.50594L2.51102 6.6244C2.19562 6.81897 0.452008 6.7724 0.0729327 6.71339L0 6.58874C0.174493 6.3073 0.425047 6.46047 0.475319 6.20842C0.644201 5.36242 0.672036 3.7204 0.462863 2.89637C0.423666 2.7419 0.210265 2.70268 0.0681212 2.65051L0.00896039 2.50855L0.0655731 2.40115C0.544463 2.36571 0.54541 2.3946 0.58621 1.88992C0.677937 0.755566 0.740373 0.231972 1.99126 0.000152656Z" fill="#FEFEFE"/>
  </svg>
  <svg x="81.952" y="13.62" width="5.134" height="6.75" viewBox="0 0 5.12853 6.7502">
    <path id="Vector" d="M0.0288254 0.0396156C0.498462 0.01444 1.98788 -0.06305 2.35814 0.106631L2.36186 0.241239L2.09724 0.458507C1.96668 0.830685 2.75754 2.48842 2.95805 2.98138C3.20306 2.30579 3.5369 1.54783 3.72523 0.851131C3.78155 0.642813 3.5299 0.280896 3.57828 0.0501675C3.96092 -0.0289247 4.71011 0.0257916 5.12853 0.0412899C4.89736 0.199183 4.59041 0.391786 4.464 0.635612C3.85892 1.803 3.38477 3.24747 2.9222 4.49839C2.49336 5.66113 2.03087 7.23192 0.401053 6.60893C-0.0814068 6.42455 -0.164391 5.53904 0.349834 5.50622C0.610517 5.62839 0.998992 6.09843 1.24911 6.33403L1.38674 6.31948C1.93214 5.93733 2.16383 4.98765 2.36106 4.35433C1.75306 3.09373 1.2011 1.79536 0.528989 0.569249C0.409284 0.350891 0.210531 0.42409 0.0288254 0.0396156Z" fill="#FEFEFE"/>
  </svg>
  <svg x="69.862" y="11.251" width="2.399" height="6.758" viewBox="0 0 2.38418 6.7598">
    <path id="Vector" d="M1.80751 0C2.08255 0.381272 1.68358 5.49302 1.99068 6.33043C1.99927 6.35386 2.28604 6.44387 2.38418 6.63014L2.30134 6.71629C1.7882 6.78694 0.583514 6.75136 0.0115863 6.74692C-0.00458802 6.2079 0.625843 6.66929 0.578194 5.41749C0.524426 4.00336 0.645078 2.46503 0.520565 1.0477C0.505994 0.882315 0.15985 0.771205 0.0130426 0.699317L0 0.561649C0.234746 0.354059 1.4323 0.0936446 1.80751 0Z" fill="#FEFEFE"/>
  </svg>
  <svg x="148.112" y="13.543" width="3.497" height="4.596" viewBox="0 0 3.50043 4.59454">
    <path id="Vector" d="M1.20978 0.032156L1.4706 0.0199342C1.98425 -0.00276748 2.62613 -0.0688359 3.05453 0.286752C3.3088 0.498052 3.34887 1.04959 3.12665 1.27879C2.89861 1.21032 2.6152 0.683885 2.30555 0.403897C1.92961 0.274236 1.53836 0.400188 1.29866 0.713646C1.17699 1.58715 3.30806 1.97425 3.47563 2.9649C3.65486 4.02832 2.83158 4.39227 2.00101 4.58261C1.32926 4.63224 0.867356 4.51509 0.203628 4.45012C0.113285 4.0687 -0.0929015 3.46543 0.0477127 3.15488L0.197794 3.11326C0.433851 3.27567 0.588312 3.77183 0.812712 4.0035C1.09103 4.29091 1.82397 4.19014 2.07023 3.92514C2.5234 2.86871 0.219652 2.37793 0.0440662 1.28039C-0.0841622 0.475206 0.534394 0.233343 1.20978 0.032156Z" fill="#FEFEFE"/>
  </svg>
  <svg x="169.855" y="13.548" width="3.571" height="4.6" viewBox="0 0 3.58219 4.59928">
    <path id="Vector" d="M1.16676 0.0325091C1.89825 -0.0265735 2.35215 -0.00954772 3.06979 0.12026C3.14848 0.510918 3.241 0.848314 3.18782 1.24436L3.11934 1.25469C2.70988 0.790324 2.01117 -0.0909695 1.37367 0.625663C1.19299 1.59209 3.23882 1.83904 3.55867 3.19037C3.60675 3.39236 3.5827 3.58606 3.47196 3.76287C3.15139 4.27599 2.48548 4.47419 1.93176 4.59475C1.38388 4.62466 0.720881 4.49958 0.168625 4.4162C0.0775532 4.00648 -0.0339196 3.63212 0.112523 3.22603C0.451309 3.24422 1.04728 4.52163 1.68769 4.18932C3.16523 3.42249 1.07569 2.57357 0.529264 2.00603C-0.456493 0.982051 0.0374783 0.475702 1.16676 0.0325091Z" fill="#FEFEFE"/>
  </svg>
  <svg x="175.045" y="13.548" width="3.534" height="4.6" viewBox="0 0 3.52716 4.60014">
    <path id="Vector" d="M1.29992 0.020611C2.02703 -0.0179529 2.43139 -0.0149702 3.14029 0.140959L3.27289 1.6213C3.09147 1.3654 2.72427 0.570473 2.48821 0.454709C2.15599 0.291504 1.56074 0.334873 1.36986 0.739211C1.31522 1.39494 2.48603 1.78625 2.9392 2.18826C3.22918 2.44577 3.27944 2.50201 3.5257 2.81329L3.52716 3.69079C2.99457 4.33699 2.7658 4.42402 1.97748 4.59821C1.42377 4.61705 0.688643 4.49351 0.128372 4.41805C0.0992291 4.0434 0.019816 3.53392 0.156787 3.19922C0.413973 3.25575 1.47332 5.03238 2.13996 3.84643C2.71189 2.8285 -0.520048 2.07686 0.0730087 0.775298C0.24058 0.40836 0.952391 0.12597 1.29992 0.020611Z" fill="#FEFEFE"/>
  </svg>
  <svg x="126.926" y="13.497" width="3.776" height="4.525" viewBox="0 0 3.77339 4.52451">
    <path id="Vector" d="M1.68955 0.0809138L1.7544 0.090955C1.887 0.272059 1.83818 0.307855 1.83891 0.584132C2.03927 0.598321 2.70372 0.00131227 3.12702 2.55234e-06C3.72008 -0.00188926 3.97217 1.04843 3.5955 1.35344C3.04324 1.41413 2.82685 0.838145 2.64762 0.442539C2.3307 0.709793 2.18644 0.869143 1.9125 1.18166C1.87534 2.00889 1.86879 3.15685 1.9329 3.9739C2.0247 4.23467 2.35183 4.11891 2.55073 4.40101C2.27533 4.53947 0.225129 4.6062 0.0371578 4.35706C0.161015 4.17799 0.271027 4.23154 0.435684 4.12502C0.522384 4.06892 0.534772 4.00868 0.556629 3.91496C0.599615 3.73545 0.606902 1.03962 0.530402 0.95995C0.386145 0.810934 0.136971 0.842585 0 0.626482C0.194528 0.417728 1.34202 0.169974 1.68955 0.0809138Z" fill="#FEFEFE"/>
  </svg>
  <svg x="50.22" y="13.574" width="2.418" height="4.444" viewBox="0 0 2.4107 4.44462">
    <path id="Vector" d="M1.73691 0L1.76402 0.00589326C1.94201 0.179576 1.88824 3.52473 1.89414 3.97811C2.0961 4.05335 2.30177 4.09803 2.4107 4.27476L2.33704 4.37168C1.96517 4.4793 0.705257 4.43695 0.24531 4.43375L0.0899052 4.38864C0.0479395 4.12604 0.283341 4.2092 0.567921 3.76434C0.696587 3.06066 0.641944 1.64922 0.527777 0.919636C0.527413 0.917381 0.0954428 0.695167 0 0.520902C0.18054 0.331721 1.39776 0.0844766 1.73691 0Z" fill="#FEFEFE"/>
  </svg>
  <svg x="88.406" y="13.576" width="2.399" height="4.442" viewBox="0 0 2.41521 4.44305">
    <path id="Vector" d="M1.73072 0L1.83316 0.0650479C1.89909 0.438462 1.87753 3.44542 1.88212 3.97135C2.08124 4.04491 2.30767 4.09868 2.41521 4.2728L2.33886 4.37052C1.96087 4.47748 0.711665 4.43557 0.248294 4.432L0.0593787 4.37568C0.0524573 4.14597 0.288366 4.13244 0.559248 3.824C0.685073 3.06524 0.595896 2.16656 0.604202 1.39477C0.61258 0.618841 0.248297 0.955435 0 0.521919C0.18411 0.323934 1.38421 0.0856408 1.73072 0Z" fill="#FEFEFE"/>
  </svg>
  <svg x="153.32" y="13.572" width="2.269" height="4.437" viewBox="0 0 2.28262 4.43659">
    <path id="Vector" d="M1.67863 0L1.73619 0.00654609C1.95039 0.209261 1.76387 3.09697 1.85276 3.62165C1.88846 3.83186 2.15803 4.14256 2.28262 4.37539C2.1369 4.46336 0.362831 4.43091 0.0663024 4.43004L0 4.30991C0.1122 4.01347 0.504907 4.07678 0.526764 3.89829C0.622207 3.14513 0.566827 1.82167 0.572656 1.02878C0.574113 0.778769 0.279778 0.852329 0.00729282 0.648014L0.0102011 0.512167C0.198172 0.313381 1.33912 0.0813478 1.67863 0Z" fill="#FEFEFE"/>
  </svg>
  <svg x="73.861" y="13.585" width="2.623" height="4.42" viewBox="0 0 2.61171 4.4189">
    <path id="Vector" d="M1.7117 0L1.76788 0.00866002C1.86799 0.177322 1.83534 3.36211 1.87483 3.93322L2.61171 4.37678C1.85349 4.43608 0.928564 4.41556 0.154239 4.41512L0.0659378 4.37052L0.0407286 4.24923C0.107539 4.19902 0.52326 3.88491 0.532294 3.84154C0.678591 3.13844 0.624243 1.80159 0.582058 1.07964C0.564646 0.781391 0.330261 0.828904 0 0.599922L0.0133339 0.484961C0.190158 0.316226 1.39135 0.0759635 1.7117 0Z" fill="#FEFEFE"/>
  </svg>
  <svg x="88.834" y="11.574" width="1.488" height="1.494" viewBox="0 0 1.49524 1.4933">
    <path id="Vector" d="M0.588603 0.0172328C0.994781 -0.0710274 1.39506 0.188515 1.4795 0.594963C1.56394 1.00148 1.30013 1.39862 0.892344 1.47902C0.4901 1.55833 0.0990048 1.29923 0.0157291 0.898308C-0.0675465 0.497462 0.188034 0.104329 0.588603 0.0172328Z" fill="#FEFEFE"/>
  </svg>
  <svg x="74.288" y="11.576" width="1.488" height="1.487" viewBox="0 0 1.48715 1.48517">
    <path id="Vector" d="M0.618566 0.0106588C1.01192 -0.0562821 1.38801 0.198745 1.47085 0.588531C1.55361 0.978317 1.31355 1.36396 0.926897 1.46218C0.662572 1.52942 0.382651 1.44669 0.197521 1.24659C0.0123916 1.04657 -0.048225 0.761344 0.0396407 0.503476C0.127506 0.245608 0.349724 0.0564261 0.618566 0.0106588Z" fill="#FEFEFE"/>
  </svg>
  <svg x="153.729" y="11.581" width="1.469" height="1.481" viewBox="0 0 1.48289 1.48097">
    <path id="Vector" d="M0.585791 0.0165896C0.982862 -0.0683964 1.37484 0.181399 1.46445 0.576933C1.55407 0.972467 1.30853 1.36647 0.913648 1.4607C0.653548 1.52262 0.381068 1.4404 0.198925 1.24539C0.0167822 1.05039 -0.0458756 0.772732 0.0342671 0.518502C0.113681 0.264199 0.324963 0.0724707 0.585791 0.0165896Z" fill="#FEFEFE"/>
  </svg>
  <svg x="50.704" y="11.513" width="1.432" height="1.577" viewBox="0 0 1.43837 1.57581">
    <path id="Vector" d="M0.528204 0C1.43593 0.0265581 1.86244 1.08154 0.862837 1.57581C0.820215 1.57348 0.777667 1.57042 0.735191 1.56649C-0.2494 1.47081 -0.16933 0.552481 0.528204 0Z" fill="#FEFEFE"/>
  </svg>
  <svg x="0" y="0" width="31.081" height="21.919" viewBox="0 0 31.0762 21.9189">
    <path id="Vector" d="M15.5341 1.7891C17.254 0.435814 19.5531 -0.131299 21.7241 0.0253498C27.364 0.432345 31.1145 5.69236 31.0759 11.0988C31.0531 14.3132 29.7151 17.6139 27.2443 19.7981C26.6161 20.343 25.9231 20.8092 25.1812 21.1863C24.9363 21.314 24.6761 21.4176 24.4313 21.5443C24.1919 21.668 23.9881 21.9479 23.6967 21.9165C23.53 21.8986 23.4573 21.8708 23.3505 21.7488C23.3376 21.7048 23.669 19.3176 23.7136 19.0184C24.038 18.8306 24.2428 19.0684 24.4892 19.2796C25.0229 18.8747 25.5734 18.5466 26.0968 18.122C27.4076 17.0578 28.389 15.553 28.9301 13.9609C29.7176 11.5811 29.5232 8.98601 28.3899 6.74965C27.3408 4.63496 25.5195 2.78868 23.2456 2.03616C21.8097 1.56093 20.0705 1.6005 18.6296 2.06043C18.0048 2.25972 17.4043 2.5707 16.8197 2.8635C16.9938 3.01468 17.2456 3.3171 17.4043 3.50028C18.9293 5.25445 19.8578 7.69626 20.0472 10.0015C20.1511 11.2674 20.0195 12.7095 19.9166 13.977C20.0982 14.1912 20.2822 14.4367 20.1501 14.7134C19.929 14.8308 17.6606 14.2286 17.6353 13.8487C17.7397 13.6165 18.311 13.4455 18.3466 13.3393C18.6162 12.5266 18.4738 10.1712 18.4095 9.4541C18.4025 9.12419 18.2537 8.5106 18.1577 8.18939C17.622 6.39189 16.7925 5.19172 15.5341 3.85567C15.3926 4.00701 15.2531 4.15961 15.1146 4.31347C12.5739 7.14791 12.4466 9.61135 12.6442 13.1815C12.8992 13.2851 13.5046 13.4514 13.4853 13.7575C13.3119 13.9536 11.3484 14.5683 10.9925 14.4961C10.6882 14.2654 10.9867 13.9812 11.162 13.7541C10.608 9.73778 11.2946 5.86581 14.2168 2.8931C12.8179 1.99385 11.1605 1.58168 9.50251 1.72077C7.24426 1.9071 5.5308 2.97352 4.07817 4.63905C0.704289 8.50744 0.856095 14.3796 4.68119 17.887C5.28288 18.4386 5.95377 18.7716 6.55101 19.2743C6.79957 19.0883 7.04491 18.8407 7.35263 19.0054C7.47451 19.5559 7.57364 21.0302 7.73831 21.6902C7.71585 21.7258 7.69345 21.7614 7.67099 21.7969C7.28511 22.0445 6.88153 21.7014 6.53142 21.5358C2.92604 19.8302 0.62836 16.5933 0.101957 12.5801C-0.308846 9.45766 0.531855 6.29953 2.44119 3.79278C4.09192 1.65399 6.38031 0.377978 9.05323 0.032508C11.5702 -0.0378178 13.4464 0.223657 15.5341 1.7891Z" fill="#0D55A2"/>
  </svg>
</svg>
